<svg width="32" height="32" version="1.1" xmlns="http://www.w3.org/2000/svg" desc="Created with imagetracer.js version 1.2.6" ><path fill="rgb(255,0,9)" stroke="rgb(255,0,9)" stroke-width="1" opacity="0.984313725490196" d="M 4.5 2 L 4.5 3 L 4.5 2 Z " /><path fill="rgb(255,0,9)" stroke="rgb(255,0,9)" stroke-width="1" opacity="0.984313725490196" d="M 8.5 2 L 8.5 3 L 8.5 2 Z " /><path fill="rgb(255,0,9)" stroke="rgb(255,0,9)" stroke-width="1" opacity="0.984313725490196" d="M 25.5 3 L 25.5 4 L 25.5 3 Z " /><path fill="rgb(255,0,9)" stroke="rgb(255,0,9)" stroke-width="1" opacity="0.984313725490196" d="M 11.5 5 L 11.5 6 L 11.5 5 Z " /><path fill="rgb(255,0,9)" stroke="rgb(255,0,9)" stroke-width="1" opacity="0.984313725490196" d="M 1.5 7 L 1.5 8 L 1.5 7 Z " /><path fill="rgb(255,0,9)" stroke="rgb(255,0,9)" stroke-width="1" opacity="0.984313725490196" d="M 4.5 9 L 5 16.5 L 4 16.5 L 4.5 9 Z " /><path fill="rgb(255,0,9)" stroke="rgb(255,0,9)" stroke-width="1" opacity="0.984313725490196" d="M 13.5 11 L 13.5 12 L 13.5 11 Z " /><path fill="rgb(255,0,9)" stroke="rgb(255,0,9)" stroke-width="1" opacity="0.984313725490196" d="M 11.5 13 L 11.5 14 L 11.5 13 Z " /><path fill="rgb(255,0,9)" stroke="rgb(255,0,9)" stroke-width="1" opacity="0.984313725490196" d="M 11.5 18 L 11.5 19 L 11.5 18 Z " /><path fill="rgb(255,0,9)" stroke="rgb(255,0,9)" stroke-width="1" opacity="0.984313725490196" d="M 5.5 20 L 5.5 21 L 5.5 20 Z " /><path fill="rgb(255,0,9)" stroke="rgb(255,0,9)" stroke-width="1" opacity="0.984313725490196" d="M 13.5 20 L 13.5 21 L 13.5 20 Z " /><path fill="rgb(255,0,9)" stroke="rgb(255,0,9)" stroke-width="1" opacity="0.984313725490196" d="M 1.5 21 L 1.5 22 L 1.5 21 Z " /><path fill="rgb(255,0,9)" stroke="rgb(255,0,9)" stroke-width="1" opacity="0.984313725490196" d="M 8.5 29 L 8.5 30 L 8.5 29 Z " /><path fill="rgb(255,0,9)" stroke="rgb(255,0,9)" stroke-width="1" opacity="1" d="M 1 1 L 5 1.5 L 4 2.5 L 4.5 4 Q -0.75 5.5 1 1 Z " /><path fill="rgb(255,0,9)" stroke="rgb(255,0,9)" stroke-width="1" opacity="1" d="M 11.5 1 L 21.5 1 L 29 6.5 L 31 11 L 26 11 L 26 9.5 Q 22.97 4.53 15.5 4 Q 14.75 5.75 11.5 5 L 8.5 8 L 8 3.5 L 11.5 1 Z " /><path fill="rgb(255,0,9)" stroke="rgb(255,0,9)" stroke-width="1" opacity="1" d="M 1 8 L 5 8.5 L 4 9.5 L 4 16.5 Q 5.75 17.25 5 20.5 L 8.5 25 L 11.5 27 L 17.5 28 L 22.5 26 L 26 22.5 L 26 21 L 31 21 Q 29.75 26 25.5 29 L 21.5 31 L 11.5 31 Q 5.33 28.67 2 23.5 L 1 20.5 L 1 8 Z " /><path fill="rgb(255,0,9)" stroke="rgb(255,0,9)" stroke-width="1" opacity="1" d="M 14.5 11 Q 20 10 21 13.5 L 22 16.5 L 18.5 21 L 14.5 21 L 12 20 L 11 17.5 L 11 14.5 L 12 12 L 14.5 11 Z " /><path fill="rgb(255,0,9)" stroke="rgb(255,0,9)" stroke-width="1" opacity="0" d="M 6 0 L 11 0.5 L 7 2.5 L 7 8.5 L 8.5 9 Q 11.29 4.29 20.5 6 L 25 9.5 L 26.5 12 L 32 12 L 32 20 L 26.5 20 L 25 21.5 L 22.5 25 Q 19.33 27.33 12.5 26 L 7 21.5 L 6 19.5 L 6 7 L 0 7 L 0 5 L 6 5 L 6 0 Z M 14 10 L 10 14 L 10 19 L 14 22 L 19 22 L 21 21 L 23 17 L 21 11 L 19 10 L 14 10 Z " /><path fill="rgb(255,0,9)" stroke="rgb(255,0,9)" stroke-width="1" opacity="0" d="M 22.5 0 L 32 0 L 32 8.5 L 31 8.5 L 25.5 2 L 22.5 1 L 22.5 0 Z " /><path fill="rgb(255,0,9)" stroke="rgb(255,0,9)" stroke-width="1" opacity="0" d="M 0.5 22 L 5.5 29 L 10 31.5 L 0 32 L 0.5 22 Z " /><path fill="rgb(255,0,9)" stroke="rgb(255,0,9)" stroke-width="1" opacity="0" d="M 31.5 23 L 32 32 L 22 31.5 Q 28.1 29.6 31 24.5 L 31.5 23 Z " /><path fill="rgb(255,0,9)" stroke="rgb(255,0,9)" stroke-width="1" opacity="0.8196078431372549" d="M 0.5 0 L 0.5 1 L 0.5 0 Z " /><path fill="rgb(255,0,9)" stroke="rgb(255,0,9)" stroke-width="1" opacity="0.8196078431372549" d="M 18.5 0 L 18.5 1 L 18.5 0 Z " /><path fill="rgb(255,0,9)" stroke="rgb(255,0,9)" stroke-width="1" opacity="0.8196078431372549" d="M 0.5 4 L 0.5 5 L 0.5 4 Z " /><path fill="rgb(255,0,9)" stroke="rgb(255,0,9)" stroke-width="1" opacity="0.8196078431372549" d="M 20.5 5 L 20.5 6 L 20.5 5 Z " /><path fill="rgb(255,0,9)" stroke="rgb(255,0,9)" stroke-width="1" opacity="0.8196078431372549" d="M 22.5 6 L 22.5 7 L 22.5 6 Z " /><path fill="rgb(255,0,9)" stroke="rgb(255,0,9)" stroke-width="1" opacity="0.8196078431372549" d="M 0.5 7 L 0.5 8 L 0.5 7 Z " /><path fill="rgb(255,0,9)" stroke="rgb(255,0,9)" stroke-width="1" opacity="0.8196078431372549" d="M 22.5 25 L 22.5 26 L 22.5 25 Z " /><path fill="rgb(255,0,9)" stroke="rgb(255,0,9)" stroke-width="1" opacity="0.8196078431372549" d="M 20.5 26 L 20.5 27 L 20.5 26 Z " /><path fill="rgb(255,0,9)" stroke="rgb(255,0,9)" stroke-width="1" opacity="0.8196078431372549" d="M 18.5 31 L 18.5 32 L 18.5 31 Z " /><path fill="rgb(255,0,9)" stroke="rgb(255,0,9)" stroke-width="1" opacity="0.9450980392156862" d="M 1.5 0 Q 3 1 0.5 2 Q -1 1 1.5 0 Z " /><path fill="rgb(255,0,9)" stroke="rgb(255,0,9)" stroke-width="1" opacity="0.9450980392156862" d="M 3.5 0 L 3.5 1 L 3.5 0 Z " /><path fill="rgb(255,0,9)" stroke="rgb(255,0,9)" stroke-width="1" opacity="0.9450980392156862" d="M 0.5 3 Q 3 4 1.5 5 Q -1 4 0.5 3 Z " /><path fill="rgb(255,0,9)" stroke="rgb(255,0,9)" stroke-width="1" opacity="0.9450980392156862" d="M 3.5 4 L 5 4.5 L 3.5 5 L 3.5 4 Z " /><path fill="rgb(255,0,9)" stroke="rgb(255,0,9)" stroke-width="1" opacity="0.9450980392156862" d="M 17.5 4 L 17.5 5 L 17.5 4 Z " /><path fill="rgb(255,0,9)" stroke="rgb(255,0,9)" stroke-width="1" opacity="0.9450980392156862" d="M 3.5 7 L 5 7.5 L 3.5 8 L 3.5 7 Z " /><path fill="rgb(255,0,9)" stroke="rgb(255,0,9)" stroke-width="1" opacity="0.9450980392156862" d="M 29.5 7 L 29.5 8 L 29.5 7 Z " /><path fill="rgb(255,0,9)" stroke="rgb(255,0,9)" stroke-width="1" opacity="0.9450980392156862" d="M 7.5 23 Q 10 24 8.5 25 Q 6 24 7.5 23 Z " /><path fill="rgb(255,0,9)" stroke="rgb(255,0,9)" stroke-width="1" opacity="0.9450980392156862" d="M 29.5 24 L 29.5 25 L 29.5 24 Z " /><path fill="rgb(255,0,9)" stroke="rgb(255,0,9)" stroke-width="1" opacity="0.9450980392156862" d="M 11.5 26 L 11.5 27 L 11.5 26 Z " /><path fill="rgb(255,0,9)" stroke="rgb(255,0,9)" stroke-width="1" opacity="0.9450980392156862" d="M 17.5 27 L 17.5 28 L 17.5 27 Z " /><path fill="rgb(255,0,9)" stroke="rgb(255,0,9)" stroke-width="1" opacity="0.9450980392156862" d="M 16.5 31 L 16.5 32 L 16.5 31 Z " /><path fill="rgb(255,0,9)" stroke="rgb(255,0,9)" stroke-width="1" opacity="0.35294117647058826" d="M 11.5 0 L 11.5 1 L 11.5 0 Z " /><path fill="rgb(255,0,9)" stroke="rgb(255,0,9)" stroke-width="1" opacity="0.35294117647058826" d="M 7.5 4 L 8 6.5 L 7 6.5 L 7.5 4 Z " /><path fill="rgb(255,0,9)" stroke="rgb(255,0,9)" stroke-width="1" opacity="0.35294117647058826" d="M 13.5 5 L 13.5 6 L 13.5 5 Z " /><path fill="rgb(255,0,9)" stroke="rgb(255,0,9)" stroke-width="1" opacity="0.35294117647058826" d="M 8.5 8 L 8.5 9 L 8.5 8 Z " /><path fill="rgb(255,0,9)" stroke="rgb(255,0,9)" stroke-width="1" opacity="0.35294117647058826" d="M 18.5 10 L 18.5 11 L 18.5 10 Z " /><path fill="rgb(255,0,9)" stroke="rgb(255,0,9)" stroke-width="1" opacity="0.35294117647058826" d="M 11.5 12 L 11.5 13 L 11.5 12 Z " /><path fill="rgb(255,0,9)" stroke="rgb(255,0,9)" stroke-width="1" opacity="0.35294117647058826" d="M 0.5 20 L 0.5 21 L 0.5 20 Z " /><path fill="rgb(255,0,9)" stroke="rgb(255,0,9)" stroke-width="1" opacity="0.35294117647058826" d="M 18.5 21 L 18.5 22 L 18.5 21 Z " /><path fill="rgb(255,0,9)" stroke="rgb(255,0,9)" stroke-width="1" opacity="0.35294117647058826" d="M 29.5 25 L 29.5 26 L 29.5 25 Z " /><path fill="rgb(255,0,9)" stroke="rgb(255,0,9)" stroke-width="1" opacity="0.35294117647058826" d="M 13.5 26 L 13.5 27 L 13.5 26 Z " /><path fill="rgb(255,0,9)" stroke="rgb(255,0,9)" stroke-width="1" opacity="0.35294117647058826" d="M 23.5 30 L 23.5 31 L 23.5 30 Z " /><path fill="rgb(255,0,9)" stroke="rgb(255,0,9)" stroke-width="1" opacity="0.35294117647058826" d="M 11.5 31 L 11.5 32 L 11.5 31 Z " /><path fill="rgb(255,0,9)" stroke="rgb(255,0,9)" stroke-width="1" opacity="0.4666666666666667" d="M 20.5 0 L 20.5 1 L 20.5 0 Z " /><path fill="rgb(255,0,9)" stroke="rgb(255,0,9)" stroke-width="1" opacity="0.4666666666666667" d="M 19.5 5 L 19.5 6 L 19.5 5 Z " /><path fill="rgb(255,0,9)" stroke="rgb(255,0,9)" stroke-width="1" opacity="0.4666666666666667" d="M 28.5 5 L 28.5 6 L 28.5 5 Z " /><path fill="rgb(255,0,9)" stroke="rgb(255,0,9)" stroke-width="1" opacity="0.4666666666666667" d="M 12.5 20 L 12.5 21 L 12.5 20 Z " /><path fill="rgb(255,0,9)" stroke="rgb(255,0,9)" stroke-width="1" opacity="0.4666666666666667" d="M 19.5 26 L 19.5 27 L 19.5 26 Z " /><path fill="rgb(255,0,9)" stroke="rgb(255,0,9)" stroke-width="1" opacity="0.4666666666666667" d="M 20.5 31 L 20.5 32 L 20.5 31 Z " /><path fill="rgb(255,0,9)" stroke="rgb(255,0,9)" stroke-width="1" opacity="0.9215686274509803" d="M 2.5 0 L 2.5 1 L 2.5 0 Z " /><path fill="rgb(255,0,9)" stroke="rgb(255,0,9)" stroke-width="1" opacity="0.9215686274509803" d="M 4.5 0 L 4.5 1 L 4.5 0 Z " /><path fill="rgb(255,0,9)" stroke="rgb(255,0,9)" stroke-width="1" opacity="0.9215686274509803" d="M 15.5 0 L 17 0.5 L 15.5 1 L 15.5 0 Z " /><path fill="rgb(255,0,9)" stroke="rgb(255,0,9)" stroke-width="1" opacity="0.9215686274509803" d="M 10.5 1 L 10.5 2 L 10.5 1 Z " /><path fill="rgb(255,0,9)" stroke="rgb(255,0,9)" stroke-width="1" opacity="0.9215686274509803" d="M 2.5 4 L 2.5 5 L 2.5 4 Z " /><path fill="rgb(255,0,9)" stroke="rgb(255,0,9)" stroke-width="1" opacity="0.9215686274509803" d="M 15.5 4 L 17 4.5 L 15.5 5 L 15.5 4 Z " /><path fill="rgb(255,0,9)" stroke="rgb(255,0,9)" stroke-width="1" opacity="0.9215686274509803" d="M 2.5 7 L 2.5 8 L 2.5 7 Z " /><path fill="rgb(255,0,9)" stroke="rgb(255,0,9)" stroke-width="1" opacity="0.9215686274509803" d="M 0.5 8 L 0.5 9 L 0.5 8 Z " /><path fill="rgb(255,0,9)" stroke="rgb(255,0,9)" stroke-width="1" opacity="0.9215686274509803" d="M 15.5 27 L 17 27.5 L 15.5 28 L 15.5 27 Z " /><path fill="rgb(255,0,9)" stroke="rgb(255,0,9)" stroke-width="1" opacity="0.9215686274509803" d="M 10.5 30 L 10.5 31 L 10.5 30 Z " /><path fill="rgb(255,0,9)" stroke="rgb(255,0,9)" stroke-width="1" opacity="0.9215686274509803" d="M 15.5 31 L 15.5 32 L 15.5 31 Z " /><path fill="rgb(255,0,9)" stroke="rgb(255,0,9)" stroke-width="1" opacity="0.8588235294117647" d="M 14.5 0 L 14.5 1 L 14.5 0 Z " /><path fill="rgb(255,0,9)" stroke="rgb(255,0,9)" stroke-width="1" opacity="0.8588235294117647" d="M 20.5 12 L 20.5 13 L 20.5 12 Z " /><path fill="rgb(255,0,9)" stroke="rgb(255,0,9)" stroke-width="1" opacity="0.8588235294117647" d="M 0.5 17 L 0.5 18 L 0.5 17 Z " /><path fill="rgb(255,0,9)" stroke="rgb(255,0,9)" stroke-width="1" opacity="0.8588235294117647" d="M 20.5 19 L 20.5 20 L 20.5 19 Z " /><path fill="rgb(255,0,9)" stroke="rgb(255,0,9)" stroke-width="1" opacity="0.8588235294117647" d="M 5.5 27 L 5.5 28 L 5.5 27 Z " /><path fill="rgb(255,0,9)" stroke="rgb(255,0,9)" stroke-width="1" opacity="0.8588235294117647" d="M 14.5 31 L 14.5 32 L 14.5 31 Z " /><path fill="rgb(255,0,9)" stroke="rgb(255,0,9)" stroke-width="1" opacity="0.41568627450980394" d="M 7.5 3 L 7.5 4 L 7.5 3 Z " /><path fill="rgb(255,0,9)" stroke="rgb(255,0,9)" stroke-width="1" opacity="0.41568627450980394" d="M 26.5 3 L 26.5 4 L 26.5 3 Z " /><path fill="rgb(255,0,9)" stroke="rgb(255,0,9)" stroke-width="1" opacity="0.41568627450980394" d="M 7.5 8 L 7.5 9 L 7.5 8 Z " /><path fill="rgb(255,0,9)" stroke="rgb(255,0,9)" stroke-width="1" opacity="0.41568627450980394" d="M 12.5 11 L 12.5 12 L 12.5 11 Z " /><path fill="rgb(255,0,9)" stroke="rgb(255,0,9)" stroke-width="1" opacity="0.41568627450980394" d="M 26.5 11 L 26.5 12 L 26.5 11 Z " /><path fill="rgb(255,0,9)" stroke="rgb(255,0,9)" stroke-width="1" opacity="0.41568627450980394" d="M 10.5 14 L 10.5 15 L 10.5 14 Z " /><path fill="rgb(255,0,9)" stroke="rgb(255,0,9)" stroke-width="1" opacity="0.41568627450980394" d="M 10.5 17 L 10.5 18 L 10.5 17 Z " /><path fill="rgb(255,0,9)" stroke="rgb(255,0,9)" stroke-width="1" opacity="0.41568627450980394" d="M 5.5 18 L 5.5 19 L 5.5 18 Z " /><path fill="rgb(255,0,9)" stroke="rgb(255,0,9)" stroke-width="1" opacity="0.41568627450980394" d="M 11.5 19 L 11.5 20 L 11.5 19 Z " /><path fill="rgb(255,0,9)" stroke="rgb(255,0,9)" stroke-width="1" opacity="0.41568627450980394" d="M 26.5 20 L 26.5 21 L 26.5 20 Z " /><path fill="rgb(255,0,9)" stroke="rgb(255,0,9)" stroke-width="1" opacity="0.41568627450980394" d="M 26.5 28 L 26.5 29 L 26.5 28 Z " /><path fill="rgb(255,0,9)" stroke="rgb(255,0,9)" stroke-width="1" opacity="0.8980392156862745" d="M 21.5 14 L 21.5 15 L 21.5 14 Z " /><path fill="rgb(255,0,9)" stroke="rgb(255,0,9)" stroke-width="1" opacity="0.8980392156862745" d="M 21.5 17 L 21.5 18 L 21.5 17 Z " /><path fill="rgb(255,0,9)" stroke="rgb(255,0,9)" stroke-width="1" opacity="0.8980392156862745" d="M 17.5 31 L 17.5 32 L 17.5 31 Z " /><path fill="rgb(255,0,9)" stroke="rgb(255,0,9)" stroke-width="1" opacity="0.8784313725490196" d="M 17.5 0 L 17.5 1 L 17.5 0 Z " /><path fill="rgb(255,0,9)" stroke="rgb(255,0,9)" stroke-width="1" opacity="0.8784313725490196" d="M 0.5 2 L 0.5 3 L 0.5 2 Z " /><path fill="rgb(255,0,9)" stroke="rgb(255,0,9)" stroke-width="1" opacity="0.8784313725490196" d="M 0.5 9 L 1 16.5 L 0 16.5 L 0.5 9 Z " /><path fill="rgb(255,0,9)" stroke="rgb(255,0,9)" stroke-width="1" opacity="0.8784313725490196" d="M 4.5 26 L 4.5 27 L 4.5 26 Z " /><path fill="rgb(255,0,9)" stroke="rgb(255,0,9)" stroke-width="1" opacity="0.7372549019607844" d="M 13.5 0 L 13.5 1 L 13.5 0 Z " /><path fill="rgb(255,0,9)" stroke="rgb(255,0,9)" stroke-width="1" opacity="0.7372549019607844" d="M 22.5 1 L 22.5 2 L 22.5 1 Z " /><path fill="rgb(255,0,9)" stroke="rgb(255,0,9)" stroke-width="1" opacity="0.7372549019607844" d="M 24.5 2 L 24.5 3 L 24.5 2 Z " /><path fill="rgb(255,0,9)" stroke="rgb(255,0,9)" stroke-width="1" opacity="0.7372549019607844" d="M 25.5 9 L 25.5 10 L 25.5 9 Z " /><path fill="rgb(255,0,9)" stroke="rgb(255,0,9)" stroke-width="1" opacity="0.7372549019607844" d="M 15.5 10 L 15.5 11 L 15.5 10 Z " /><path fill="rgb(255,0,9)" stroke="rgb(255,0,9)" stroke-width="1" opacity="0.7372549019607844" d="M 19.5 11 L 19.5 12 L 19.5 11 Z " /><path fill="rgb(255,0,9)" stroke="rgb(255,0,9)" stroke-width="1" opacity="0.7372549019607844" d="M 27.5 11 L 27.5 12 L 27.5 11 Z " /><path fill="rgb(255,0,9)" stroke="rgb(255,0,9)" stroke-width="1" opacity="0.7372549019607844" d="M 30.5 11 L 30.5 12 L 30.5 11 Z " /><path fill="rgb(255,0,9)" stroke="rgb(255,0,9)" stroke-width="1" opacity="0.7372549019607844" d="M 0.5 18 L 0.5 19 L 0.5 18 Z " /><path fill="rgb(255,0,9)" stroke="rgb(255,0,9)" stroke-width="1" opacity="0.7372549019607844" d="M 27.5 20 L 27.5 21 L 27.5 20 Z " /><path fill="rgb(255,0,9)" stroke="rgb(255,0,9)" stroke-width="1" opacity="0.7372549019607844" d="M 30.5 20 L 30.5 21 L 30.5 20 Z " /><path fill="rgb(255,0,9)" stroke="rgb(255,0,9)" stroke-width="1" opacity="0.7372549019607844" d="M 15.5 21 L 15.5 22 L 15.5 21 Z " /><path fill="rgb(255,0,9)" stroke="rgb(255,0,9)" stroke-width="1" opacity="0.7372549019607844" d="M 25.5 22 L 25.5 23 L 25.5 22 Z " /><path fill="rgb(255,0,9)" stroke="rgb(255,0,9)" stroke-width="1" opacity="0.7372549019607844" d="M 6.5 28 L 6.5 29 L 6.5 28 Z " /><path fill="rgb(255,0,9)" stroke="rgb(255,0,9)" stroke-width="1" opacity="0.7372549019607844" d="M 24.5 29 L 24.5 30 L 24.5 29 Z " /><path fill="rgb(255,0,9)" stroke="rgb(255,0,9)" stroke-width="1" opacity="0.7372549019607844" d="M 13.5 31 L 13.5 32 L 13.5 31 Z " /><path fill="rgb(255,0,9)" stroke="rgb(255,0,9)" stroke-width="1" opacity="0.10588235294117647" d="M 8.5 1 L 8.5 2 L 8.5 1 Z " /><path fill="rgb(255,0,9)" stroke="rgb(255,0,9)" stroke-width="1" opacity="0.10588235294117647" d="M 15.5 5 L 17 5.5 L 15.5 6 L 15.5 5 Z " /><path fill="rgb(255,0,9)" stroke="rgb(255,0,9)" stroke-width="1" opacity="0.10588235294117647" d="M 11.5 6 L 11.5 7 L 11.5 6 Z " /><path fill="rgb(255,0,9)" stroke="rgb(255,0,9)" stroke-width="1" opacity="0.10588235294117647" d="M 30.5 7 L 30.5 8 L 30.5 7 Z " /><path fill="rgb(255,0,9)" stroke="rgb(255,0,9)" stroke-width="1" opacity="0.10588235294117647" d="M 31.5 9 L 31.5 10 L 31.5 9 Z " /><path fill="rgb(255,0,9)" stroke="rgb(255,0,9)" stroke-width="1" opacity="0.10588235294117647" d="M 25.5 10 L 25.5 11 L 25.5 10 Z " /><path fill="rgb(255,0,9)" stroke="rgb(255,0,9)" stroke-width="1" opacity="0.10588235294117647" d="M 20.5 11 L 20.5 12 L 20.5 11 Z " /><path fill="rgb(255,0,9)" stroke="rgb(255,0,9)" stroke-width="1" opacity="0.10588235294117647" d="M 10.5 13 L 10.5 14 L 10.5 13 Z " /><path fill="rgb(255,0,9)" stroke="rgb(255,0,9)" stroke-width="1" opacity="0.10588235294117647" d="M 10.5 18 L 10.5 19 L 10.5 18 Z " /><path fill="rgb(255,0,9)" stroke="rgb(255,0,9)" stroke-width="1" opacity="0.10588235294117647" d="M 6.5 20 L 6.5 21 L 6.5 20 Z " /><path fill="rgb(255,0,9)" stroke="rgb(255,0,9)" stroke-width="1" opacity="0.10588235294117647" d="M 20.5 20 L 20.5 21 L 20.5 20 Z " /><path fill="rgb(255,0,9)" stroke="rgb(255,0,9)" stroke-width="1" opacity="0.10588235294117647" d="M 0.5 21 L 0.5 22 L 0.5 21 Z " /><path fill="rgb(255,0,9)" stroke="rgb(255,0,9)" stroke-width="1" opacity="0.10588235294117647" d="M 25.5 21 L 25.5 22 L 25.5 21 Z " /><path fill="rgb(255,0,9)" stroke="rgb(255,0,9)" stroke-width="1" opacity="0.10588235294117647" d="M 31.5 22 L 31.5 23 L 31.5 22 Z " /><path fill="rgb(255,0,9)" stroke="rgb(255,0,9)" stroke-width="1" opacity="0.10588235294117647" d="M 1.5 23 L 1.5 24 L 1.5 23 Z " /><path fill="rgb(255,0,9)" stroke="rgb(255,0,9)" stroke-width="1" opacity="0.10588235294117647" d="M 30.5 24 L 30.5 25 L 30.5 24 Z " /><path fill="rgb(255,0,9)" stroke="rgb(255,0,9)" stroke-width="1" opacity="0.10588235294117647" d="M 11.5 25 L 11.5 26 L 11.5 25 Z " /><path fill="rgb(255,0,9)" stroke="rgb(255,0,9)" stroke-width="1" opacity="0.10588235294117647" d="M 3.5 26 L 6 28.5 L 5.5 29 L 3 26.5 L 3.5 26 Z " /><path fill="rgb(255,0,9)" stroke="rgb(255,0,9)" stroke-width="1" opacity="0.10588235294117647" d="M 15.5 26 L 18 26.5 L 15.5 27 L 15.5 26 Z " /><path fill="rgb(255,0,9)" stroke="rgb(255,0,9)" stroke-width="1" opacity="0.10588235294117647" d="M 10.5 31 L 10.5 32 L 10.5 31 Z " /><path fill="rgb(255,0,9)" stroke="rgb(255,0,9)" stroke-width="1" opacity="0.5450980392156862" d="M 12.5 0 L 12.5 1 L 12.5 0 Z " /><path fill="rgb(255,0,9)" stroke="rgb(255,0,9)" stroke-width="1" opacity="0.5450980392156862" d="M 9.5 1 L 9.5 2 L 9.5 1 Z " /><path fill="rgb(255,0,9)" stroke="rgb(255,0,9)" stroke-width="1" opacity="0.5450980392156862" d="M 31.5 11 L 31.5 12 L 31.5 11 Z " /><path fill="rgb(255,0,9)" stroke="rgb(255,0,9)" stroke-width="1" opacity="0.5450980392156862" d="M 31.5 20 L 31.5 21 L 31.5 20 Z " /><path fill="rgb(255,0,9)" stroke="rgb(255,0,9)" stroke-width="1" opacity="0.5450980392156862" d="M 24.5 23 L 24.5 24 L 24.5 23 Z " /><path fill="rgb(255,0,9)" stroke="rgb(255,0,9)" stroke-width="1" opacity="0.5450980392156862" d="M 9.5 30 L 9.5 31 L 9.5 30 Z " /><path fill="rgb(255,0,9)" stroke="rgb(255,0,9)" stroke-width="1" opacity="0.5450980392156862" d="M 12.5 31 L 12.5 32 L 12.5 31 Z " /><path fill="rgb(255,0,9)" stroke="rgb(255,0,9)" stroke-width="1" opacity="0.5137254901960784" d="M 21.5 13 L 21.5 14 L 21.5 13 Z " /><path fill="rgb(255,0,9)" stroke="rgb(255,0,9)" stroke-width="1" opacity="0.5137254901960784" d="M 21.5 18 L 21.5 19 L 21.5 18 Z " /><path fill="rgb(255,0,9)" stroke="rgb(255,0,9)" stroke-width="1" opacity="0.5137254901960784" d="M 14.5 21 L 14.5 22 L 14.5 21 Z " /><path fill="rgb(255,0,9)" stroke="rgb(255,0,9)" stroke-width="1" opacity="0.5137254901960784" d="M 27.5 27 L 27.5 28 L 27.5 27 Z " /><path fill="rgb(255,0,9)" stroke="rgb(255,0,9)" stroke-width="1" opacity="0.6509803921568628" d="M 19.5 0 L 19.5 1 L 19.5 0 Z " /><path fill="rgb(255,0,9)" stroke="rgb(255,0,9)" stroke-width="1" opacity="0.6509803921568628" d="M 12.5 5 L 12.5 6 L 12.5 5 Z " /><path fill="rgb(255,0,9)" stroke="rgb(255,0,9)" stroke-width="1" opacity="0.6509803921568628" d="M 23.5 7 L 23.5 8 L 23.5 7 Z " /><path fill="rgb(255,0,9)" stroke="rgb(255,0,9)" stroke-width="1" opacity="0.6509803921568628" d="M 17.5 10 L 17.5 11 L 17.5 10 Z " /><path fill="rgb(255,0,9)" stroke="rgb(255,0,9)" stroke-width="1" opacity="0.6509803921568628" d="M 28.5 11 L 30 11.5 L 28.5 12 L 28.5 11 Z " /><path fill="rgb(255,0,9)" stroke="rgb(255,0,9)" stroke-width="1" opacity="0.6509803921568628" d="M 5.5 19 L 5.5 20 L 5.5 19 Z " /><path fill="rgb(255,0,9)" stroke="rgb(255,0,9)" stroke-width="1" opacity="0.6509803921568628" d="M 28.5 20 L 30 20.5 L 28.5 21 L 28.5 20 Z " /><path fill="rgb(255,0,9)" stroke="rgb(255,0,9)" stroke-width="1" opacity="0.6509803921568628" d="M 17.5 21 L 17.5 22 L 17.5 21 Z " /><path fill="rgb(255,0,9)" stroke="rgb(255,0,9)" stroke-width="1" opacity="0.6509803921568628" d="M 31.5 21 L 31.5 22 L 31.5 21 Z " /><path fill="rgb(255,0,9)" stroke="rgb(255,0,9)" stroke-width="1" opacity="0.6509803921568628" d="M 12.5 26 L 12.5 27 L 12.5 26 Z " /><path fill="rgb(255,0,9)" stroke="rgb(255,0,9)" stroke-width="1" opacity="0.6509803921568628" d="M 19.5 31 L 19.5 32 L 19.5 31 Z " /><path fill="rgb(255,0,9)" stroke="rgb(255,0,9)" stroke-width="1" opacity="0.1803921568627451" d="M 5.5 0 L 6 4.5 L 5 4.5 L 5.5 0 Z " /><path fill="rgb(255,0,9)" stroke="rgb(255,0,9)" stroke-width="1" opacity="0.1803921568627451" d="M 21.5 0 L 21.5 1 L 21.5 0 Z " /><path fill="rgb(255,0,9)" stroke="rgb(255,0,9)" stroke-width="1" opacity="0.1803921568627451" d="M 25.5 2 L 25.5 3 L 25.5 2 Z " /><path fill="rgb(255,0,9)" stroke="rgb(255,0,9)" stroke-width="1" opacity="0.1803921568627451" d="M 14.5 5 L 14.5 6 L 14.5 5 Z " /><path fill="rgb(255,0,9)" stroke="rgb(255,0,9)" stroke-width="1" opacity="0.1803921568627451" d="M 17.5 5 L 17.5 6 L 17.5 5 Z " /><path fill="rgb(255,0,9)" stroke="rgb(255,0,9)" stroke-width="1" opacity="0.1803921568627451" d="M 5.5 7 L 6 17.5 L 5 17.5 L 5.5 7 Z " /><path fill="rgb(255,0,9)" stroke="rgb(255,0,9)" stroke-width="1" opacity="0.1803921568627451" d="M 13.5 10 L 13.5 11 L 13.5 10 Z " /><path fill="rgb(255,0,9)" stroke="rgb(255,0,9)" stroke-width="1" opacity="0.1803921568627451" d="M 22.5 15 L 23 16.5 L 22 16.5 L 22.5 15 Z " /><path fill="rgb(255,0,9)" stroke="rgb(255,0,9)" stroke-width="1" opacity="0.1803921568627451" d="M 13.5 21 L 13.5 22 L 13.5 21 Z " /><path fill="rgb(255,0,9)" stroke="rgb(255,0,9)" stroke-width="1" opacity="0.1803921568627451" d="M 8.5 23 L 8.5 24 L 8.5 23 Z " /><path fill="rgb(255,0,9)" stroke="rgb(255,0,9)" stroke-width="1" opacity="0.1803921568627451" d="M 14.5 26 L 14.5 27 L 14.5 26 Z " /><path fill="rgb(255,0,9)" stroke="rgb(255,0,9)" stroke-width="1" opacity="0.1803921568627451" d="M 25.5 29 L 25.5 30 L 25.5 29 Z " /><path fill="rgb(255,0,9)" stroke="rgb(255,0,9)" stroke-width="1" opacity="0.1803921568627451" d="M 8.5 30 L 8.5 31 L 8.5 30 Z " /><path fill="rgb(255,0,9)" stroke="rgb(255,0,9)" stroke-width="1" opacity="0.1803921568627451" d="M 21.5 31 L 21.5 32 L 21.5 31 Z " /><path fill="rgb(255,0,9)" stroke="rgb(255,0,9)" stroke-width="1" opacity="0.7764705882352941" d="M 16.5 10 L 16.5 11 L 16.5 10 Z " /><path fill="rgb(255,0,9)" stroke="rgb(255,0,9)" stroke-width="1" opacity="0.7764705882352941" d="M 19.5 20 L 19.5 21 L 19.5 20 Z " /><path fill="rgb(255,0,9)" stroke="rgb(255,0,9)" stroke-width="1" opacity="0.7764705882352941" d="M 16.5 21 L 16.5 22 L 16.5 21 Z " /><path fill="rgb(255,0,9)" stroke="rgb(255,0,9)" stroke-width="1" opacity="0.7764705882352941" d="M 3.5 25 L 3.5 26 L 3.5 25 Z " /><path fill="rgb(255,0,9)" stroke="rgb(255,0,9)" stroke-width="1" opacity="0.7764705882352941" d="M 22.5 30 L 22.5 31 L 22.5 30 Z " /><path fill="rgb(255,0,9)" stroke="rgb(255,0,9)" stroke-width="1" opacity="0.592156862745098" d="M 10.5 6 L 10.5 7 L 10.5 6 Z " /><path fill="rgb(255,0,9)" stroke="rgb(255,0,9)" stroke-width="1" opacity="0.592156862745098" d="M 24.5 8 L 24.5 9 L 24.5 8 Z " /><path fill="rgb(255,0,9)" stroke="rgb(255,0,9)" stroke-width="1" opacity="0.592156862745098" d="M 30.5 8 L 30.5 9 L 30.5 8 Z " /><path fill="rgb(255,0,9)" stroke="rgb(255,0,9)" stroke-width="1" opacity="0.592156862745098" d="M 31.5 10 L 31.5 11 L 31.5 10 Z " /><path fill="rgb(255,0,9)" stroke="rgb(255,0,9)" stroke-width="1" opacity="0.592156862745098" d="M 10.5 15 L 11 16.5 L 10 16.5 L 10.5 15 Z " /><path fill="rgb(255,0,9)" stroke="rgb(255,0,9)" stroke-width="1" opacity="0.592156862745098" d="M 0.5 19 L 0.5 20 L 0.5 19 Z " /><path fill="rgb(255,0,9)" stroke="rgb(255,0,9)" stroke-width="1" opacity="0.592156862745098" d="M 6.5 21 L 6.5 22 L 6.5 21 Z " /><path fill="rgb(255,0,9)" stroke="rgb(255,0,9)" stroke-width="1" opacity="0.592156862745098" d="M 1.5 22 L 1.5 23 L 1.5 22 Z " /><path fill="rgb(255,0,9)" stroke="rgb(255,0,9)" stroke-width="1" opacity="0.592156862745098" d="M 30.5 23 L 30.5 24 L 30.5 23 Z " /><path fill="rgb(255,0,9)" stroke="rgb(255,0,9)" stroke-width="1" opacity="0.592156862745098" d="M 23.5 24 L 23.5 25 L 23.5 24 Z " /><path fill="rgb(255,0,9)" stroke="rgb(255,0,9)" stroke-width="1" opacity="0.592156862745098" d="M 10.5 25 L 10.5 26 L 10.5 25 Z " /><path fill="rgb(255,0,9)" stroke="rgb(255,0,9)" stroke-width="1" opacity="0.2901960784313726" d="M 23.5 1 L 23.5 2 L 23.5 1 Z " /><path fill="rgb(255,0,9)" stroke="rgb(255,0,9)" stroke-width="1" opacity="0.2901960784313726" d="M 7.5 2 L 7.5 3 L 7.5 2 Z " /><path fill="rgb(255,0,9)" stroke="rgb(255,0,9)" stroke-width="1" opacity="0.2901960784313726" d="M 18.5 5 L 18.5 6 L 18.5 5 Z " /><path fill="rgb(255,0,9)" stroke="rgb(255,0,9)" stroke-width="1" opacity="0.2901960784313726" d="M 21.5 6 L 21.5 7 L 21.5 6 Z " /><path fill="rgb(255,0,9)" stroke="rgb(255,0,9)" stroke-width="1" opacity="0.2901960784313726" d="M 29.5 6 L 29.5 7 L 29.5 6 Z " /><path fill="rgb(255,0,9)" stroke="rgb(255,0,9)" stroke-width="1" opacity="0.2901960784313726" d="M 9.5 7 L 9.5 8 L 9.5 7 Z " /><path fill="rgb(255,0,9)" stroke="rgb(255,0,9)" stroke-width="1" opacity="0.2901960784313726" d="M 7.5 22 L 7.5 23 L 7.5 22 Z " /><path fill="rgb(255,0,9)" stroke="rgb(255,0,9)" stroke-width="1" opacity="0.2901960784313726" d="M 9.5 24 L 9.5 25 L 9.5 24 Z " /><path fill="rgb(255,0,9)" stroke="rgb(255,0,9)" stroke-width="1" opacity="0.2901960784313726" d="M 21.5 25 L 21.5 26 L 21.5 25 Z " /><path fill="rgb(255,0,9)" stroke="rgb(255,0,9)" stroke-width="1" opacity="0.2901960784313726" d="M 18.5 26 L 18.5 27 L 18.5 26 Z " /><path fill="rgb(255,0,9)" stroke="rgb(255,0,9)" stroke-width="1" opacity="0.49411764705882355" d="M 27.5 4 L 27.5 5 L 27.5 4 Z " /><path fill="rgb(255,0,9)" stroke="rgb(255,0,9)" stroke-width="1" opacity="0.49411764705882355" d="M 7.5 7 L 7.5 8 L 7.5 7 Z " /><path fill="rgb(255,0,9)" stroke="rgb(255,0,9)" stroke-width="1" opacity="0.49411764705882355" d="M 14.5 10 L 14.5 11 L 14.5 10 Z " /><path fill="rgb(255,0,9)" stroke="rgb(255,0,9)" stroke-width="1" opacity="0.49411764705882355" d="M 2.5 24 L 2.5 25 L 2.5 24 Z " /><path fill="rgb(255,0,9)" stroke="rgb(255,0,9)" stroke-width="1" opacity="0.49411764705882355" d="M 28.5 26 L 28.5 27 L 28.5 26 Z " /><path fill="rgb(255,0,9)" stroke="rgb(255,0,9)" stroke-width="1" opacity="0.49411764705882355" d="M 7.5 29 L 7.5 30 L 7.5 29 Z " /></svg>