<?xml version="1.0" encoding="utf-8"?>
<!-- Generator: Adobe Illustrator 26.5.0, SVG Export Plug-In . SVG Version: 6.00 Build 0)  -->
<svg version="1.1" id="Layer_1" xmlns="http://www.w3.org/2000/svg" xmlns:xlink="http://www.w3.org/1999/xlink" x="0px" y="0px"
	 viewBox="0 0 169.4 172.17" style="enable-background:new 0 0 169.4 172.17;" xml:space="preserve">
<style type="text/css">
	.st0{fill:#FF0009;}
</style>
<g>
	<path class="st0" d="M169.07,109.32c-4.39,15.89-12.51,29.26-24.46,40.11c-18.01,16.36-39.38,23.77-63.69,22.62
		c-41.92-1.98-77.6-36.66-80.33-78.43c-1.17-17.8-0.17-35.65-0.46-53.47c-0.04-2.36,1.06-2.58,2.95-2.56
		c6.98,0.07,13.97,0.16,20.95-0.04c2.65-0.08,3.02,0.96,3.01,3.24c-0.08,15.09-0.04,30.18-0.04,45.27
		c0,27.28,18.85,51.38,45.05,57.59c27.14,6.44,54.86-6.35,67.13-31.15c1.24-2.5,2.56-3.33,5.31-3.26
		C152.57,109.45,160.67,109.32,169.07,109.32z"/>
	<path class="st0" d="M40.45,47.61c0-10.91,0.04-21.83-0.04-32.74c-0.01-2.01,1.43-2.45,2.66-3.16C61.27,1.24,80.81-2.43,101.35,1.6
		c34.47,6.76,56.5,27.79,68.06,61.32c-9.57,0-18.57,0.01-27.57-0.01c-1.87,0-1.89-1.77-2.46-2.87
		c-9.2-17.75-23.59-28.82-43.25-32.12c-20.88-3.51-38.78,2.97-53.42,18.32c-0.51,0.53-0.95,1.12-1.43,1.68
		C41,47.82,40.73,47.71,40.45,47.61z"/>
	<path class="st0" d="M86.13,55.1c17.21-0.04,31.18,13.83,31.2,30.97c0.02,17.21-13.83,31.11-31.04,31.12
		c-17.35,0.01-31.06-13.62-31.13-30.95C55.1,68.99,68.88,55.13,86.13,55.1z"/>
	<path class="st0" d="M0.16,13.18c0-3.61,0.08-7.22-0.03-10.82c-0.06-1.82,0.6-2.33,2.36-2.31c7.46,0.08,14.93,0.07,22.39,0
		c1.61-0.02,2.15,0.47,2.13,2.11c-0.07,7.59-0.07,15.18,0,22.77c0.01,1.61-0.48,2.14-2.11,2.12c-7.46-0.07-14.93-0.11-22.39,0.02
		c-2.16,0.04-2.42-0.92-2.38-2.68C0.23,20.65,0.16,16.92,0.16,13.18z"/>
</g>
</svg>
