<?xml version="1.0" encoding="utf-8"?>
<!-- Generator: Adobe Illustrator 26.5.0, SVG Export Plug-In . SVG Version: 6.00 Build 0)  -->
<svg version="1.1" id="Layer_1" xmlns="http://www.w3.org/2000/svg" xmlns:xlink="http://www.w3.org/1999/xlink" x="0px" y="0px"
	 viewBox="0 0 169.4 172.2" style="enable-background:new 0 0 169.4 172.2;" xml:space="preserve">
<style type="text/css">
	.st0{fill:#FFFFFF;}
</style>
<g>
	<path class="st0" d="M169.1,109.3c-4.4,15.9-12.5,29.3-24.5,40.1c-18,16.4-39.4,23.8-63.7,22.6c-41.9-2-77.6-36.7-80.3-78.4
		C-0.6,75.8,0.4,58,0.1,40.1c0-2.4,1.1-2.6,3-2.6c7,0.1,14,0.2,21,0c2.6-0.1,3,1,3,3.2C27,55.9,27,71,27,86.1
		c0,27.3,18.9,51.4,45,57.6c27.1,6.4,54.9-6.4,67.1-31.2c1.2-2.5,2.6-3.3,5.3-3.3C152.6,109.4,160.7,109.3,169.1,109.3z"/>
	<path class="st0" d="M40.5,47.6c0-10.9,0-21.8,0-32.7c0-2,1.4-2.4,2.7-3.2C61.3,1.2,80.8-2.4,101.3,1.6
		c34.5,6.8,56.5,27.8,68.1,61.3c-9.6,0-18.6,0-27.6,0c-1.9,0-1.9-1.8-2.5-2.9c-9.2-17.8-23.6-28.8-43.2-32.1
		c-20.9-3.5-38.8,3-53.4,18.3c-0.5,0.5-1,1.1-1.4,1.7C41,47.8,40.7,47.7,40.5,47.6z"/>
	<path class="st0" d="M86.1,55.1c17.2,0,31.2,13.8,31.2,31c0,17.2-13.8,31.1-31,31.1c-17.3,0-31.1-13.6-31.1-30.9
		C55.1,69,68.9,55.1,86.1,55.1z"/>
	<path class="st0" d="M0.2,13.2c0-3.6,0.1-7.2,0-10.8C0.1,0.5,0.7,0,2.5,0.1c7.5,0.1,14.9,0.1,22.4,0C26.5,0,27,0.5,27,2.2
		c-0.1,7.6-0.1,15.2,0,22.8c0,1.6-0.5,2.1-2.1,2.1c-7.5-0.1-14.9-0.1-22.4,0c-2.2,0-2.4-0.9-2.4-2.7C0.2,20.6,0.2,16.9,0.2,13.2z"/>
</g>
</svg>
