<?xml version="1.0" encoding="utf-8"?>
<!-- Generator: Adobe Illustrator 26.5.0, SVG Export Plug-In . SVG Version: 6.00 Build 0)  -->
<svg version="1.1" id="Layer_1" xmlns="http://www.w3.org/2000/svg" xmlns:xlink="http://www.w3.org/1999/xlink" x="0px" y="0px"
	 viewBox="0 0 500 500" style="enable-background:new 0 0 500 500;" xml:space="preserve">
<path d="M399,49.3c-16.6,0.4-30,14.1-30,30.9s2.9,14.6,7.5,20.1l-63,89.8c-3.4-1.3-7.1-2-10.9-2c-8,0-15.3,3.1-20.7,8.1l-52.6-34.8
	c1.1-3.2,1.7-6.6,1.7-10.1c0-17-13.9-30.9-30.9-30.9s-30.8,13.9-30.8,30.9s1.4,10.4,3.8,14.8l-56.3,52.7c-4.9-3-10.6-4.9-16.6-4.9
	c-16.9,0-30.8,13.9-30.8,30.9s13.9,30.9,30.8,30.9s30.9-14,30.9-30.9c0-16.9-1.4-10.4-3.8-14.8l56.3-52.7c4.8,3.1,10.5,4.9,16.6,4.9
	c6.2,0,15.3-3,20.7-8.1l52.7,34.8c-1.1,3.1-1.7,6.6-1.7,10.1c0,17,13.9,30.9,30.8,30.9s30.8-14,30.8-30.9s-2.9-14.6-7.5-20.1
	l62.9-89.9c3.4,1.3,7.1,2.1,10.9,2.1c16.9,0,30.8-14,30.8-30.9s-13.9-30.9-30.8-30.9H399z M378.3,191c-2,0-4,0.8-5.4,2.3
	c-1.5,1.4-2.3,3.4-2.3,5.4v237h-41.6V305l0,0c0-4.2-3.5-7.5-7.6-7.5h-43.1c-4.2,0-7.6,3.4-7.6,7.5v130.5h-41.5V251.8
	c0-2-0.8-4-2.3-5.4c-1.4-1.4-3.4-2.3-5.4-2.3h-43.2c-2,0-4,0.8-5.4,2.3c-1.4,1.4-2.3,3.4-2.3,5.4v183.7h-41.5v-77.2l0,0
	c0-4.2-3.5-7.5-7.6-7.5h-43c-4.2,0-7.6,3.4-7.6,7.5v77.2H37.6c-4.2,0-7.6,3.4-7.6,7.5s0.8,4,2.3,5.4c1.5,1.4,3.4,2.3,5.4,2.3h424.7
	c2,0,4-0.8,5.4-2.3c1.4-1.4,2.3-3.4,2.3-5.4c0-4.2-3.5-7.5-7.6-7.5H429V198.6c0-2-0.8-4-2.3-5.4c-1.4-1.4-3.4-2.3-5.4-2.3H378.3
	L378.3,191z"/>
</svg>
