<?xml version="1.0" encoding="utf-8"?>
<!-- Generator: Adobe Illustrator 26.5.0, SVG Export Plug-In . SVG Version: 6.00 Build 0)  -->
<svg version="1.1" id="Layer_1" xmlns="http://www.w3.org/2000/svg" xmlns:xlink="http://www.w3.org/1999/xlink" x="0px" y="0px"
	 viewBox="0 0 481.9 354.5" style="enable-background:new 0 0 481.9 354.5;" xml:space="preserve">
<path d="M481.9,259.4c0.4,8.1-3,11.7-10.8,11.7c-0.4,0-0.8,0-1.3,0c-27.3-1.3-54.6-2.5-81.9-3.9c-4.3-0.2-8.4-0.4-10.8-5.5
	c-2.3-5.1,0.3-8,3.2-10.9c8.4-8.4,16.7-16.9,25.2-25.1L232.3,52.5L129.6,155.1c-3.5,3.5-8.1,5.3-12.8,5.3s-9.2-1.8-12.8-5.3
	l-4.5-4.5L5.3,56.3c-7-7-7-18.5,0-25.5l4.5-4.5c3.5-3.5,8.1-5.3,12.8-5.3s9.2,1.8,12.8,5.3l81.6,81.6L219.6,5.3
	c3.5-3.5,8.1-5.3,12.8-5.3s9.2,1.8,12.8,5.3l82.3,82.3l16.6,16.6l91.5,91.5l2.7-2.7c0.9-0.8,1.8-1.6,2.7-2.5
	c6.5-6.4,12.9-12.9,19.3-19.3c2.3-2.3,4.6-4.8,7.8-4.8c1.2,0,2.5,0.4,4.1,1.2c4.9,2.7,6,7,6.2,11.9
	C479.3,206.1,480.6,232.7,481.9,259.4L481.9,259.4z"/>
<g>
	<path d="M364.4,267.6c-6.5-14.1,2.9-23.5,6-26.6c2.2-2.2,4.4-4.5,6.7-6.7c2.7-2.7,5.4-5.4,8.1-8.1L385,226l-29.1-29.1
		c-0.1,0.9-0.2,1.7-0.2,2.6v136.7c0,10,8.1,18,18,18h40.5c10,0,18-8.1,18-18v-52.8c-14.1-0.7-29-1.4-45-2.1
		C382.2,281,370.3,280.4,364.4,267.6z"/>
</g>
<path d="M144.4,336.1c0,10,8.1,18,18,18h40.5c10,0,18-8.1,18-18V97.6c0-3.3-0.9-6.4-2.5-9.1L161.8,145l-17.5,17.6V336.1z"/>
<path d="M326.6,166.4L311,150.9l-55.7-55.7c-3.2,3.3-5.2,7.7-5.2,12.7v228.2c0,10,8.1,18,18,18h40.5c10,0,18-8.1,18-18V166.4z"/>
<path d="M38.9,110.7c-0.1,0.8-0.2,1.6-0.2,2.4l0,223c0,10,8.1,18,18,18h40.5c10,0,18-8.1,18-18v-149L104.2,176L38.9,110.7z"/>
</svg>
