<?xml version="1.0" encoding="utf-8"?>
<!-- Generator: Adobe Illustrator 26.5.0, SVG Export Plug-In . SVG Version: 6.00 Build 0)  -->
<svg version="1.1" id="Layer_1" xmlns="http://www.w3.org/2000/svg" xmlns:xlink="http://www.w3.org/1999/xlink" x="0px" y="0px"
	 viewBox="0 0 500 500" style="enable-background:new 0 0 500 500;" xml:space="preserve">
<path d="M176.4,220l-16.3,16.4v161.3h0.1c0,9.3,7.5,16.7,16.7,16.7h37.6c9.3,0,16.7-7.5,16.7-16.7V175.9c0-3.1-0.8-5.9-2.3-8.5
	L176.4,220z M62.2,188.1c-0.1,0.7-0.2,1.5-0.2,2.2v207.3c0,9.3,7.5,16.7,16.7,16.7h37.6c9.3,0,16.7-7.5,16.7-16.7V259.1l-10.2-10.3
	L62.2,188.1z M263.3,173.7c-3,3.1-4.8,7.2-4.8,11.8v212.1c0,9.3,7.5,16.7,16.7,16.7h37.6c9.3,0,16.7-7.5,16.7-16.7V239.9l-14.5-14.4
	L263.3,173.7z M474,326.4c-1.2-24.8-2.4-49.5-3.3-74.3c-0.2-4.6-1.2-8.6-5.8-11.1c-1.5-0.7-2.7-1.1-3.8-1.1c-3,0-5.1,2.3-7.3,4.5
	c-5.9,5.9-11.9,12-17.9,17.9c-0.8,0.8-1.7,1.6-2.5,2.3l-2.5,2.5l-85.1-85.1l-15.4-15.4L254,90.1c-3.3-3.3-7.5-4.9-11.9-4.9
	s-8.6,1.7-11.9,4.9l-95.4,95.4l-75.9-75.9c-3.3-3.3-7.5-4.9-11.9-4.9c-4.4,0-8.6,1.7-11.9,4.9l-4.2,4.2c-6.5,6.5-6.5,17.2,0,23.7
	l87.6,87.7l4.2,4.2c3.3,3.3,7.5,4.9,11.9,4.9s8.6-1.7,11.9-4.9L242,134l161,161c-7.9,7.6-15.6,15.5-23.4,23.3
	c-2.7,2.7-5.1,5.4-3,10.1c2.2,4.7,6,4.9,10,5.1c25.4,1.3,50.8,2.4,76.1,3.6c0.5,0,0.8,0,1.2,0C471.2,337.2,474.4,333.9,474,326.4z
	 M364.8,334c-6-13.1,2.7-21.8,5.6-24.7c2-2,4.1-4.2,6.2-6.2c2.5-2.5,5-5,7.5-7.5l-0.2-0.2l-27.1-27.1c-0.1,0.8-0.2,1.6-0.2,2.4
	v127.1c0,9.3,7.5,16.7,16.7,16.7h37.6c9.3,0,16.7-7.5,16.7-16.7v-49.1c-13.1-0.7-27-1.3-41.8-2C381.3,346.4,370.2,345.9,364.8,334z"
	/>
</svg>
