<?xml version="1.0" encoding="utf-8"?>
<!-- Generator: Adobe Illustrator 26.5.0, SVG Export Plug-In . SVG Version: 6.00 Build 0)  -->
<svg version="1.1" id="Layer_1" xmlns="http://www.w3.org/2000/svg" xmlns:xlink="http://www.w3.org/1999/xlink" x="0px" y="0px"
	 viewBox="0 0 500 500" style="enable-background:new 0 0 500 500;" xml:space="preserve">
<g>
	<path d="M474,96.1c-1.1,24.8-2.4,49.6-3.4,74.3c-0.2,4.6-1.2,8.6-5.8,11.1c-1.4,0.7-2.7,1.1-3.8,1.1c-3,0-5-2.3-7.3-4.5
		c-6-6-11.9-12-17.9-17.9c-0.7-0.7-1.6-1.5-2.5-2.3l-2.5-2.5l-85.1,85.2l-15.4,15.4l-76.5,76.5c-3.3,3.3-7.5,4.9-11.9,4.9
		s-8.6-1.7-11.9-4.9l-95.3-95.5l-75.9,75.9c-3.3,3.3-7.5,4.9-11.9,4.9s-8.6-1.7-11.9-4.9l-4.2-4.2c-6.5-6.5-6.5-17.2,0-23.7
		l87.8-87.8l4.2-4.2c3.3-3.3,7.5-4.9,11.9-4.9c4.4,0,8.6,1.7,11.9,4.9l95.5,95.5l161-161c-8-7.6-15.6-15.5-23.4-23.3
		c-2.7-2.7-5.2-5.4-3-10.1c2.1-4.7,6-4.9,10-5.1c25.4-1.2,50.8-2.4,76.1-3.6c0.4,0,0.8,0,1.2,0C471.2,85.2,474.4,88.6,474,96.1
		L474,96.1z M73.8,327.8c-3.4,3.4-7.4,6.1-11.7,8v62.3c0,9.3,7.5,16.7,16.7,16.7h37.7c9.3,0,16.7-7.5,16.7-16.7V271
		c0-0.8-0.1-1.7-0.2-2.4L73.8,327.8z M215.1,347.3l-52.6-52.6c-1.5,2.5-2.3,5.4-2.3,8.5V398c0,9.3,7.5,16.7,16.7,16.7h37.7
		c9.3,0,16.7-7.5,16.7-16.7v-41.1C225.3,355.2,219.7,351.9,215.1,347.3L215.1,347.3z M272.9,343.2l-4.2,4.2
		c-3.1,3.1-6.6,5.6-10.3,7.3v43.3c0,9.3,7.5,16.7,16.7,16.7h37.7c9.3,0,16.7-7.5,16.7-16.7v-94.8c0-4.6-1.9-8.7-4.8-11.8
		L272.9,343.2z M366.9,249.2l-10.3,10.3v138.5c0,9.3,7.5,16.7,16.7,16.7H411c9.3,0,16.7-7.5,16.7-16.7V190.7c0-0.7-0.1-1.5-0.2-2.2
		L366.9,249.2z"/>
</g>
</svg>
