<?xml version="1.0" encoding="utf-8"?>
<!-- Generator: Adobe Illustrator 26.5.0, SVG Export Plug-In . SVG Version: 6.00 Build 0)  -->
<svg version="1.1" id="Layer_1" xmlns="http://www.w3.org/2000/svg" xmlns:xlink="http://www.w3.org/1999/xlink" x="0px" y="0px"
	 viewBox="0 0 500 500" style="enable-background:new 0 0 500 500;" xml:space="preserve">
<path d="M384.4,109.6h-39.5V85.7c0-8.1-6.6-14.7-14.7-14.7s-14.7,6.6-14.7,14.7l-0.1,23.9H180.5V85.7c0-8.1-6.6-14.7-14.7-14.7
	s-14.7,6.6-14.7,14.7v23.9h-35.5c-24.6,0-44.6,19.9-44.6,44.6v230.4c0,24.6,19.9,44.6,44.6,44.6h268.7c24.6,0,44.6-19.9,44.6-44.6
	V154.1C429,129.6,409.1,109.6,384.4,109.6z M399.5,384.5c0,8.4-6.8,15.2-15.2,15.2H115.7c-8.4,0-15.2-6.8-15.2-15.2V241.3h299.1
	L399.5,384.5L399.5,384.5z M399.5,212H100.5v-57.8c0-8.4,6.8-15.2,15.2-15.2h35.5v17.2c0,8.1,6.6,14.7,14.7,14.7s14.7-6.6,14.7-14.7
	v-17.2h135.1v17.2c0,8.1,6.6,14.7,14.7,14.7s14.7-6.6,14.7-14.7v-17.2h39.4c8.4,0,15.2,6.8,15.2,15.2L399.5,212L399.5,212z
	 M314.9,385.2h63.5c5.6,0,10.1-4.5,10.1-10.1v-42.2c0-5.6-4.5-10.1-10.1-10.1h-63.5c-5.6,0-10.1,4.5-10.1,10.1v42.2
	C304.7,380.7,309.3,385.2,314.9,385.2z M325,343h43.2v22H325V343z M314.9,310.8h63.5c5.6,0,10.1-4.6,10.1-10.1v-42.2
	c0-5.6-4.5-10.1-10.1-10.1h-63.5c-5.6,0-10.1,4.5-10.1,10.1v42.2C304.7,306.2,309.3,310.8,314.9,310.8z M325,268.6h43.2v22H325
	V268.6z M218.3,310.8h63.5c5.6,0,10.1-4.6,10.1-10.1v-42.2c0-5.6-4.5-10.1-10.1-10.1h-63.5c-5.6,0-10.1,4.5-10.1,10.1v42.2
	C208.1,306.2,212.7,310.8,218.3,310.8z M228.4,268.6h43.2v22h-43.2L228.4,268.6L228.4,268.6z M121.7,310.8h63.5
	c5.6,0,10.1-4.6,10.1-10.1v-42.2c0-5.6-4.5-10.1-10.1-10.1h-63.5c-5.6,0-10.1,4.5-10.1,10.1v42.2
	C111.6,306.2,116.1,310.8,121.7,310.8z M131.8,268.6h43.2v22h-43.2C131.8,290.5,131.8,268.6,131.8,268.6z M218.3,385.2h63.5
	c5.6,0,10.1-4.5,10.1-10.1v-42.2c0-5.6-4.5-10.1-10.1-10.1h-63.5c-5.6,0-10.1,4.5-10.1,10.1v42.2
	C208.1,380.7,212.7,385.2,218.3,385.2z M228.4,343h43.2v22h-43.2L228.4,343L228.4,343z M121.7,385.2h63.5c5.6,0,10.1-4.5,10.1-10.1
	v-42.2c0-5.6-4.5-10.1-10.1-10.1h-63.5c-5.6,0-10.1,4.5-10.1,10.1v42.2C111.6,380.7,116.1,385.2,121.7,385.2z M131.8,343h43.2v22
	h-43.2C131.8,364.9,131.8,343,131.8,343z"/>
</svg>
