<?xml version="1.0" encoding="utf-8"?>
<!-- Generator: Adobe Illustrator 26.5.0, SVG Export Plug-In . SVG Version: 6.00 Build 0)  -->
<svg version="1.1" id="Layer_1" xmlns="http://www.w3.org/2000/svg" xmlns:xlink="http://www.w3.org/1999/xlink" x="0px" y="0px"
	 viewBox="0 0 500 500" style="enable-background:new 0 0 500 500;" xml:space="preserve">
<style type="text/css">
	.st0{fill:#FFFFFF;}
</style>
<g>
	<path d="M422.9,122.7H352c-0.4,0-0.8,0.3-0.8,0.8V279c0,0.4,0.3,0.8,0.8,0.8h70.9c0.4,0,0.8-0.3,0.8-0.8V123.5
		C423.7,123.1,423.4,122.7,422.9,122.7z M387.5,177.7c-10.4,0-18.7-8.4-18.7-18.7c0-10.4,8.4-18.7,18.7-18.7
		c10.4,0,18.7,8.4,18.7,18.7C406.2,169.4,397.9,177.7,387.5,177.7z"/>
	<path d="M437.7,108.7c-4-4-9.2-6.1-14.8-6.1H352c-5.5,0-10.8,2.2-14.8,6.1c-4,4-6.1,9.2-6.1,14.8V279c0,5.5,2.2,10.8,6.1,14.8
		c4,4,9.2,6.1,14.8,6.1h70.9c5.5,0,10.8-2.2,14.8-6.1c4-4,6.1-9.2,6.1-14.8V123.5C443.8,118,441.7,112.7,437.7,108.7z M426.3,279
		c0,1.9-1.5,3.4-3.4,3.4H352c-1.9,0-3.4-1.5-3.4-3.4V123.5c0-1.9,1.5-3.4,3.4-3.4h70.9c1.9,0,3.4,1.5,3.4,3.4V279z"/>
	<path d="M307.7,262.8h-23.5c-4.7,0-9.1,2.4-11.5,6.4l-47,75.2c-1.4,2.2-2.1,4.7-2.1,7.2v37.3c-0.8,0.1-1.6,0.2-2.5,0.2
		c-3,0-6-0.8-8.6-2.2c-5.5-3.6-17.5-18.1-13.7-73.8l8.2-16.4c2.1-4.2,1.8-9.2-0.6-13.1c-2.4-4-6.8-6.5-11.6-6.5h-87.9
		c-4.1,0-8.1-1.4-11.4-3.9c-3.4-2.6-5.7-6.1-6.7-10l-4.8-17.9c-1-3.7-0.9-7.8,0.5-11.5l40.3-109.9c1.3-3.5,3.7-6.7,6.8-8.9
		c3.2-2.2,6.9-3.4,10.7-3.5H256c0.1,0,0.3,0,0.7,0c0.5,0,1.6-0.1,3.1-0.1c10.5,0,28.7,3,33.6,22.8c1.5,6,6.9,10.3,13.2,10.3
		c1.1,0,2.2-0.2,3.4-0.4c7.3-1.8,11.7-9.2,9.8-16.6c-8-32.1-36.1-43.5-59.7-43.5c-1.9,0-3.9,0.1-5.8,0.3H142.5
		c-9.2,0-18.7,2.9-26.3,8.3c-7.7,5.3-13.5,12.9-16.9,21.9L59.2,224.2c-3.5,9-3.9,18.7-1.4,28.2l4.7,17.8c2.7,9.8,8.6,18.4,16.6,24.4
		c7.9,6,17.9,9.4,28,9.4h65.8c-0.5,1.4-0.9,2.8-1,4.1c-4.2,54.4,4.2,87.6,25.8,101.4c6.7,4.4,14.3,6.6,22.5,6.6
		c12.9,0,23.1-5.4,23.5-5.7c4.3-2.5,7.1-7.1,7.1-12v-43.1l40.9-65.5h16c7.4,0,13.6-6,13.6-13.6C321.2,268.9,315.2,262.8,307.7,262.8
		z M307.8,285.7h-18.3l-42.8,68.4v44.3c0,3.5-1.9,6.7-4.9,8.3c-1,0.5-22.5,11.8-41.6-0.7c-20.2-12.9-28.1-44.9-23.9-97.6
		c0.1-1.2,0.4-2.3,1-3.5l2.6-5.2h-72.7c-9.2,0-18.2-3-25.5-8.6c-7.4-5.5-12.7-13.3-15.1-22.2l-4.7-17.8c-2.3-8.4-2-17.3,1.2-25.6
		l40.2-109.9c3-8,8.3-15,15.4-19.9c7-4.8,15.4-7.5,23.9-7.5h112.1c1.8-0.2,3.8-0.3,5.6-0.3c18.6,0,47.6,8.1,55.6,40.3
		c1.2,5-1.8,10.3-6.8,11.5c-5,1.2-10.2-1.8-11.5-6.8c-7.3-29.3-40.1-25.8-41.6-25.8H142.5c-4.7,0.1-9.2,1.6-13,4.2
		c-3.9,2.7-6.8,6.6-8.4,10.9L80.9,232.2c-1.7,4.5-2,9.5-0.6,14.1l4.7,17.8c1.2,4.9,4.1,9.2,8.2,12.3c4,3.1,9,4.8,14,4.8H195
		c3.3,0,6.2,1.6,7.9,4.4c1.7,2.8,1.9,6.2,0.4,9.2l-8.6,17.1c-4.1,56.8,8,73.6,15.6,78.5c5.3,3,11.7,3.6,17.5,1.7v-40.6
		c0-1.7,0.5-3.5,1.5-4.9l47-75.2c1.6-2.8,4.7-4.4,7.9-4.4h23.5c5.2,0,9.4,4.2,9.4,9.4S313,285.7,307.8,285.7z"/>
	<path d="M307.8,266.9h-23.5c-3.3,0-6.3,1.6-7.9,4.4l-47,75.2c-1,1.5-1.5,3.2-1.5,4.9V392c-5.8,1.9-12.2,1.3-17.5-1.7
		c-7.6-4.9-19.7-21.7-15.6-78.5l8.6-17.1c1.5-2.9,1.3-6.4-0.4-9.2c-1.7-2.8-4.7-4.4-7.9-4.4h-87.9c-5,0-10-1.6-14-4.8
		c-4.1-3.1-7-7.3-8.2-12.3l-4.7-17.8c-1.4-4.6-1.1-9.6,0.6-14.1l40.2-109.8c1.6-4.3,4.5-8.2,8.4-10.9c3.9-2.7,8.4-4.1,13-4.2H256
		c1.5,0,34.2-3.5,41.6,25.8c1.3,5,6.5,8,11.5,6.8c5-1.2,8-6.5,6.8-11.5c-8-32.1-37.1-40.3-55.6-40.3c-1.8,0-3.8,0.1-5.6,0.3H142.5
		c-8.6,0-16.9,2.7-23.9,7.5c-7.1,4.8-12.4,11.8-15.4,19.9L63,225.7c-3.2,8.3-3.5,17.2-1.2,25.6l4.7,17.8c2.4,8.9,7.7,16.7,15.1,22.2
		c7.3,5.5,16.2,8.6,25.5,8.6h72.7l-2.6,5.2c-0.5,1.1-0.9,2.2-1,3.5c-4.1,52.7,3.7,84.8,23.9,97.6c19.2,12.5,40.7,1.2,41.6,0.7
		c3-1.6,4.9-4.8,4.9-8.3v-44.3l42.8-68.4h18.3c5.2,0,9.4-4.2,9.4-9.4S313,266.9,307.8,266.9z"/>
	<circle class="st0" cx="387.5" cy="159" r="18.7"/>
</g>
</svg>
