<?xml version="1.0" encoding="utf-8"?>
<!-- Generator: Adobe Illustrator 26.5.0, SVG Export Plug-In . SVG Version: 6.00 Build 0)  -->
<svg version="1.1" id="Layer_1" xmlns="http://www.w3.org/2000/svg" xmlns:xlink="http://www.w3.org/1999/xlink" x="0px" y="0px"
	 viewBox="0 0 448.9 384.5" style="enable-background:new 0 0 448.9 384.5;" xml:space="preserve">
<g>
	<path d="M342.5,250h82.1c6.4,0,12.5-2.5,17.1-7.1s7.1-10.7,7.1-17.1v-180c0-6.4-2.5-12.5-7.1-17.1s-10.7-7.1-17.1-7.1h-82.1
		c-6.4,0-12.5,2.5-17.1,7.1s-7.1,10.7-7.1,17.1v180c0,6.4,2.5,12.5,7.1,17.1S336.1,250,342.5,250z"/>
	<path d="M236.2,0c27.3,0,59.8,13.2,69.1,50.3c2.1,8.5-3,17.1-11.4,19.2c-1.3,0.3-2.6,0.5-3.9,0.5c-7.3,0-13.6-4.9-15.3-11.9
		c-5.7-22.9-26.8-26.4-38.9-26.4c-1.7,0-3,0.1-3.6,0.1c-0.4,0-0.7,0-0.8,0H100c-4.4,0.1-8.7,1.5-12.4,4c-3.6,2.5-6.4,6.2-7.9,10.3
		L33.1,173.3c-1.6,4.3-1.8,9-0.6,13.3l5.5,20.7c1.2,4.5,3.9,8.6,7.8,11.6c3.8,2.9,8.5,4.5,13.2,4.5h101.7c5.5,0,10.6,2.9,13.4,7.5
		c2.8,4.6,3.1,10.3,0.7,15.2l-9.5,19c-4.5,64.5,9.4,81.2,15.8,85.4c3,1.7,6.4,2.6,9.9,2.6c1,0,2-0.1,2.9-0.2v-43.2
		c0-2.9,0.8-5.7,2.4-8.3l54.4-87c2.8-4.6,7.9-7.4,13.3-7.4h27.2c8.7,0,15.7,7.1,15.7,15.7c0,8.7-7.1,15.7-15.7,15.7h-18.5
		l-47.3,75.8v49.9c0,5.7-3.2,11-8.2,13.9c-0.5,0.3-12.3,6.6-27.2,6.6c-9.5,0-18.3-2.5-26-7.6c-25-16-34.8-54.4-29.9-117.4
		c0.1-1.6,0.5-3.2,1.1-4.8H59c-11.7,0-23.2-3.9-32.4-10.9c-9.3-7-16.1-17-19.2-28.3L2,195c-2.9-10.9-2.4-22.2,1.6-32.6L50,35.2
		C54,24.8,60.7,16,69.6,9.9c8.8-6.2,19.7-9.6,30.4-9.6h129.5C231.7,0.1,234,0,236.2,0z"/>
	<path d="M6.6,193.7l5.4,20.6c2.8,10.3,8.9,19.3,17.5,25.7c8.4,6.4,18.8,9.9,29.5,9.9h84.2l-3,6l0,0c-0.6,1.3-1,2.6-1.1,4
		c-4.8,61,4.3,98.1,27.7,113c22.2,14.5,47.1,1.4,48.2,0.8l0,0c3.5-1.9,5.7-5.5,5.7-9.6v-51.3l49.5-79.2h21.2c6,0,10.9-4.9,10.9-10.9
		s-4.9-10.9-10.9-10.9h-27.2c-3.8,0-7.3,1.9-9.2,5.1l-54.4,87c-1.1,1.7-1.7,3.7-1.7,5.7v47c-6.7,2.2-14.1,1.5-20.2-2
		c-8.8-5.7-22.8-25.1-18.1-90.9l9.9-19.8l0,0c1.7-3.4,1.5-7.4-0.5-10.6s-5.4-5.1-9.2-5.1H59.1c-5.8,0-11.6-1.9-16.2-5.5
		c-4.7-3.6-8.1-8.5-9.5-14.2L28,187.9c-1.6-5.3-1.3-11.1,0.7-16.3L75.2,44.5l0,0c1.8-5,5.2-9.5,9.7-12.6s9.7-4.8,15.1-4.9h131.4
		c1.7,0,39.6-4,48.1,29.9c1.5,5.8,7.5,9.3,13.3,7.9s9.3-7.5,7.9-13.3c-9.3-37.2-42.9-46.6-64.4-46.6c-2.1,0-4.4,0.1-6.5,0.3H100
		c-9.9,0-19.6,3.1-27.7,8.7c-8.2,5.6-14.3,13.7-17.8,23L8,164.1l0,0C4.3,173.7,3.9,184,6.6,193.7L6.6,193.7z"/>
	<path style="fill:#FFFFFF;" d="M361.9,86.9c0-12,9.7-21.7,21.7-21.7s21.7,9.7,21.7,21.7s-9.7,21.7-21.7,21.7S361.9,98.9,361.9,86.9
		"/>
</g>
<path style="fill:none;stroke:#FFFFFF;stroke-width:3;stroke-miterlimit:10;" d="M340.1,45.8c0-1.4,1.1-2.4,2.4-2.4h82.1
	c1.4,0,2.4,1.1,2.4,2.4v180c0,1.4-1.1,2.4-2.4,2.4h-82.1c-1.4,0-2.4-1.1-2.4-2.4V45.8z"/>
</svg>
