<?xml version="1.0" encoding="utf-8"?>
<!-- Generator: Adobe Illustrator 26.5.0, SVG Export Plug-In . SVG Version: 6.00 Build 0)  -->
<svg version="1.1" id="Layer_1" xmlns="http://www.w3.org/2000/svg" xmlns:xlink="http://www.w3.org/1999/xlink" x="0px" y="0px"
	 viewBox="0 0 500 500" style="enable-background:new 0 0 500 500;" xml:space="preserve">
<style type="text/css">
	.st0{fill:#FFFFFF;}
</style>
<g>
	<path d="M147.9,200.1h-71c-5.5,0-10.8,2.2-14.8,6.1c-4,4-6.1,9.2-6.1,14.8v155.6c0,5.5,2.2,10.8,6.1,14.8c4,4,9.2,6.1,14.8,6.1h71
		c5.5,0,10.8-2.2,14.8-6.1c4-4,6.1-9.2,6.1-14.8V221c0-5.5-2.2-10.8-6.1-14.8C158.7,202.3,153.4,200.1,147.9,200.1z M151.3,376.6
		c0,1.9-1.5,3.4-3.4,3.4h-71c-1.9,0-3.4-1.5-3.4-3.4V221c0-1.9,1.5-3.4,3.4-3.4h71c1.9,0,3.4,1.5,3.4,3.4V376.6z"/>
	<path d="M147.9,220.2h-71c-0.4,0-0.8,0.3-0.8,0.8v155.6c0,0.4,0.3,0.8,0.8,0.8h71c0.4,0,0.8-0.3,0.8-0.8V221
		C148.7,220.6,148.4,220.2,147.9,220.2z M112.5,359.8c-10.4,0-18.8-8.4-18.8-18.8s8.4-18.8,18.8-18.8s18.8,8.4,18.8,18.8
		S122.8,359.8,112.5,359.8z"/>
	<path d="M442.2,247.7l-4.7-17.8c-2.7-9.8-8.6-18.4-16.6-24.5c-8-6-17.9-9.4-28-9.4h-66c0.5-1.4,0.9-2.8,1-4.1
		c4.2-54.4-4.2-87.6-25.8-101.5c-6.7-4.4-14.3-6.6-22.5-6.6c-12.9,0-23.1,5.4-23.5,5.7c-4.3,2.5-7.1,7.1-7.1,12v43l-40.9,65.5h-16
		c-7.4,0-13.6,6-13.6,13.6c0,7.4,6,13.6,13.6,13.6h23.5c4.7,0,9.1-2.4,11.5-6.4l47-75.2c1.4-2.2,2.1-4.7,2.1-7.2v-37.3
		c0.8-0.1,1.6-0.2,2.5-0.2c3,0,6,0.8,8.6,2.2c5.5,3.6,17.6,18.1,13.7,73.8l-8.2,16.4c-2.1,4.2-1.8,9.2,0.6,13.1
		c2.4,4,6.8,6.5,11.6,6.5h88c4.1,0,8.1,1.4,11.4,3.9c3.4,2.6,5.7,6.1,6.7,10l4.8,17.9c1,3.7,0.9,7.8-0.5,11.5L375,376.3
		c-1.3,3.5-3.7,6.7-6.8,8.9c-3.2,2.2-6.9,3.4-10.7,3.5H243.9c-0.1,0-0.3,0-0.7,0c-0.5,0-1.6,0.1-3.1,0.1c-10.5,0-28.7-3-33.6-22.8
		c-1.5-6-6.9-10.3-13.2-10.3c-1.1,0-2.2,0.2-3.4,0.4c-7.3,1.8-11.7,9.2-9.9,16.6c8,32.1,36.1,43.5,59.7,43.5c1.9,0,4-0.1,5.8-0.3
		h111.8c9.2,0,18.7-2.9,26.3-8.3c7.7-5.3,13.6-12.9,16.9-21.9l40.3-109.8C444.3,266.9,444.7,257.1,442.2,247.7z M437,274.5
		l-40.3,109.9c-3,8-8.3,15-15.4,19.9c-7,4.8-15.4,7.5-23.9,7.5H245.4c-1.8,0.2-3.8,0.3-5.6,0.3c-18.6,0-47.6-8.1-55.7-40.3
		c-1.2-5,1.8-10.2,6.8-11.5c5-1.2,10.2,1.8,11.5,6.8c7.3,29.3,40.1,25.8,41.6,25.8h113.6c4.7-0.1,9.2-1.6,13-4.2
		c3.9-2.7,6.8-6.6,8.4-10.9l40.3-109.9c1.7-4.5,2-9.5,0.6-14.1l-4.7-17.8c-1.2-4.9-4.1-9.2-8.2-12.3c-4-3.1-9-4.8-14-4.8h-87.9
		c-3.3,0-6.3-1.6-8-4.4c-1.7-2.8-1.9-6.2-0.4-9.2l8.6-17.1c4.1-56.9-8-73.6-15.6-78.6c-5.3-3-11.7-3.6-17.5-1.7v40.6
		c0,1.7-0.5,3.5-1.5,4.9l-47,75.2c-1.6,2.8-4.7,4.4-8,4.4h-23.5c-5.2,0-9.4-4.2-9.4-9.4s4.2-9.4,9.4-9.4h18.3l42.8-68.4v-44.3
		c0-3.5,1.9-6.7,4.9-8.3c0.9-0.5,22.4-11.8,41.6,0.6c20.2,12.9,28.1,44.9,23.9,97.7c-0.1,1.2-0.4,2.3-1,3.5l-2.6,5.2H393
		c9.2,0,18.2,3,25.5,8.6c7.4,5.5,12.7,13.3,15.1,22.2l4.7,17.8C440.5,257.1,440.2,266,437,274.5z"/>
	<path d="M433.6,230.9c-2.4-8.9-7.7-16.7-15.1-22.2c-7.3-5.5-16.2-8.6-25.5-8.6h-72.8l2.6-5.2c0.5-1.1,0.9-2.2,1-3.5
		c4.1-52.7-3.7-84.8-23.9-97.7c-19.2-12.4-40.7-1.1-41.6-0.6c-3,1.6-4.9,4.8-4.9,8.3v44.3l-42.8,68.4h-18.3c-5.2,0-9.4,4.2-9.4,9.4
		s4.2,9.4,9.4,9.4h23.5c3.3,0,6.3-1.6,8-4.4l47-75.2c1-1.5,1.5-3.2,1.5-4.9v-40.6c5.8-1.9,12.2-1.3,17.5,1.7
		c7.6,4.9,19.7,21.7,15.6,78.6l-8.6,17.1c-1.5,2.9-1.3,6.4,0.4,9.2c1.6,2.8,4.7,4.4,8,4.4H393c5,0,10,1.6,14,4.8
		c4.1,3.1,7,7.3,8.2,12.3l4.7,17.8c1.4,4.6,1.1,9.6-0.6,14.1L379,377.9c-1.6,4.3-4.5,8.2-8.4,10.9c-3.9,2.7-8.4,4.1-13,4.2H244
		c-1.5,0-34.2,3.5-41.6-25.8c-1.3-5-6.5-8-11.5-6.8c-5,1.3-8,6.5-6.8,11.5c8,32.1,37.1,40.3,55.7,40.3c1.8,0,3.8-0.1,5.6-0.3h112.1
		c8.6,0,16.9-2.7,23.9-7.5c7.1-4.8,12.4-11.8,15.4-19.9L437,274.5c3.1-8.5,3.5-17.4,1.2-25.8L433.6,230.9z"/>
	<circle class="st0" cx="112.5" cy="341" r="18.8"/>
</g>
</svg>
