<?xml version="1.0" encoding="utf-8"?>
<!-- Generator: Adobe Illustrator 26.5.0, SVG Export Plug-In . SVG Version: 6.00 Build 0)  -->
<svg version="1.1" id="Layer_1" xmlns="http://www.w3.org/2000/svg" xmlns:xlink="http://www.w3.org/1999/xlink" x="0px" y="0px"
	 viewBox="0 0 437.5 507.5" style="enable-background:new 0 0 437.5 507.5;" xml:space="preserve">
<g>
	<path d="M404.5,173.1c-20.7-33.2-50-60.3-84.8-78.4c-2.7-34.8-22.9-65.9-53.6-82.4S198.3-4,167.8,12.9S117.5,61.2,115.3,96
		c-34.9,18.7-64,46.5-84.3,80.4c-20.4,34-31.1,72.8-31,112.3c0,120.6,98.1,218.8,218.8,218.8s218.7-98.1,218.7-218.8
		C437.5,247.9,426.1,207.8,404.5,173.1L404.5,173.1z M175.7,111.8c0-11.1,4.4-21.7,12.2-29.6S206.4,70,217.5,70s21.7,4.4,29.6,12.2
		c7.8,7.8,12.2,18.5,12.2,29.6s-4.4,21.7-12.2,29.6c-7.8,7.8-18.5,12.2-29.6,12.2s-21.7-4.4-29.5-12.3
		C180.1,133.5,175.7,122.9,175.7,111.8L175.7,111.8z M203.6,469.2c-73.6-6.3-134.6-57.3-156-125.5l82.3-11.7
		c7.4-1.1,14.2-4.8,19.2-10.5c4.9-5.7,7.7-13,7.7-20.5v-34.4c0-8.3-3.3-16.3-9.2-22.1c-5.9-5.9-13.8-9.1-22.1-9.2
		c-4.1,0-8.1-1.7-11.1-4.6c-2.9-2.9-4.6-6.9-4.6-11.1v-7.9c0-8.3-3.3-16.3-9.2-22.1c-5.9-5.9-13.8-9.1-22.1-9.2h-2.1
		c14-18.2,31.5-33.7,51.3-45.4c8,42.6,53.2,113.7,70.7,137.1c4.6,6.3,12,9.9,19.7,9.9s15.1-3.7,19.7-9.9
		c17.6-23.7,63.6-95.8,70.9-138.3c34.5,19.7,61.4,50.4,76.7,87.1c15.2,36.7,17.9,77.4,7.5,115.8h-17.2c-4.1,0-8.1-1.7-11.1-4.6
		c-2.9-2.9-4.6-6.9-4.6-11.1c0-10.4-4.1-20.3-11.4-27.6c-7.3-7.3-17.2-11.3-27.6-11.3h-15.6c-10.4,0-20.3,4.1-27.6,11.4
		c-7.3,7.3-11.4,17.2-11.4,27.6V337c0,6.3-2.5,12.2-6.9,16.6c-4.4,4.4-10.4,6.9-16.6,6.9c-10.4,0-20.3,4.1-27.6,11.4
		c-7.3,7.3-11.4,17.2-11.4,27.6L203.6,469.2z"/>
</g>
</svg>
