<?xml version="1.0" encoding="utf-8"?>
<!-- Generator: Adobe Illustrator 26.5.0, SVG Export Plug-In . SVG Version: 6.00 Build 0)  -->
<svg version="1.1" id="Layer_1" xmlns="http://www.w3.org/2000/svg" xmlns:xlink="http://www.w3.org/1999/xlink" x="0px" y="0px"
	 viewBox="0 0 500 500" style="enable-background:new 0 0 500 500;" xml:space="preserve">
<g>
	<path d="M396.9,186.2c-16.4-26.3-39.5-47.7-67.1-62c-2.1-27.5-18.1-52.1-42.4-65.2c-24.3-13-53.6-12.9-77.7,0.5
		s-39.8,38.2-41.5,65.7c-27.6,14.8-50.6,36.8-66.7,63.6c-16.1,26.9-24.6,57.6-24.5,88.8c0,95.4,77.6,173,173,173
		S423,373.1,423,277.6C423,245.4,414,213.7,396.9,186.2L396.9,186.2z M216,137.8c0-8.8,3.5-17.2,9.6-23.4c6.2-6.2,14.6-9.6,23.4-9.6
		c8.8,0,17.2,3.5,23.4,9.6c6.2,6.2,9.6,14.6,9.6,23.4s-3.5,17.2-9.6,23.4c-6.2,6.2-14.6,9.6-23.4,9.6c-8.8,0-17.2-3.5-23.3-9.7
		C219.4,154.9,216,146.5,216,137.8L216,137.8z M238,420.4c-58.2-5-106.4-45.3-123.4-99.2l65.1-9.3c5.9-0.9,11.2-3.8,15.2-8.3
		c3.9-4.5,6.1-10.3,6.1-16.2v-27.2c0-6.6-2.6-12.9-7.3-17.5c-4.7-4.7-10.9-7.2-17.5-7.3c-3.2,0-6.4-1.3-8.8-3.6
		c-2.3-2.3-3.6-5.5-3.6-8.8v-6.2c0-6.6-2.6-12.9-7.3-17.5c-4.7-4.7-10.9-7.2-17.5-7.3h-1.7c11.1-14.4,24.9-26.6,40.6-35.9
		c6.3,33.7,42.1,89.9,55.9,108.4c3.6,5,9.5,7.8,15.6,7.8s11.9-2.9,15.6-7.8c13.9-18.7,50.3-75.8,56.1-109.4
		c27.3,15.6,48.6,39.9,60.7,68.9c12,29,14.2,61.2,5.9,91.6h-13.6c-3.2,0-6.4-1.3-8.8-3.6c-2.3-2.3-3.6-5.5-3.6-8.8
		c0-8.2-3.2-16.1-9-21.8s-13.6-8.9-21.8-8.9h-12.3c-8.2,0-16.1,3.2-21.8,9c-5.8,5.8-9,13.6-9,21.8v12.6c0,5-2,9.6-5.5,13.1
		c-3.5,3.5-8.2,5.5-13.1,5.5c-8.2,0-16.1,3.2-21.8,9c-5.8,5.8-9,13.6-9,21.8L238,420.4z"/>
</g>
</svg>
