<?xml version="1.0" encoding="utf-8"?>
<!-- Generator: Adobe Illustrator 26.5.0, SVG Export Plug-In . SVG Version: 6.00 Build 0)  -->
<svg version="1.1" id="Layer_1" xmlns="http://www.w3.org/2000/svg" xmlns:xlink="http://www.w3.org/1999/xlink" x="0px" y="0px"
	 viewBox="0 0 448.9 384.5" style="enable-background:new 0 0 448.9 384.5;" xml:space="preserve">
<g>
	<path d="M106.3,134.5H24.2c-6.4,0-12.5,2.5-17.1,7.1S0,152.3,0,158.7v180c0,6.4,2.5,12.5,7.1,17.1s10.7,7.1,17.1,7.1h82.1
		c6.4,0,12.5-2.5,17.1-7.1s7.1-10.7,7.1-17.1v-180c0-6.4-2.5-12.5-7.1-17.1C118.8,137.1,112.7,134.5,106.3,134.5z"/>
	<path d="M212.6,384.5c-27.3,0-59.8-13.2-69.1-50.3c-2.1-8.5,3-17.1,11.4-19.2c1.3-0.3,2.6-0.5,3.9-0.5c7.3,0,13.6,4.9,15.3,11.9
		c5.7,22.9,26.8,26.4,38.9,26.4c1.7,0,3-0.1,3.6-0.1c0.4,0,0.7,0,0.8,0h131.4c4.4-0.1,8.7-1.5,12.4-4c3.6-2.5,6.4-6.2,7.9-10.3
		l46.6-127.2c1.6-4.3,1.8-9,0.6-13.3l-5.5-20.7c-1.2-4.5-3.9-8.6-7.8-11.6c-3.8-2.9-8.5-4.5-13.2-4.5H288c-5.5,0-10.6-2.9-13.4-7.5
		s-3.1-10.3-0.7-15.2l9.5-19C288,55,274,38.2,267.6,34c-3-1.7-6.4-2.6-9.9-2.6c-1,0-2,0.1-2.9,0.2v43.2c0,2.9-0.8,5.7-2.4,8.3
		l-54.4,87c-2.8,4.6-7.9,7.4-13.3,7.4h-27.2c-8.7,0-15.7-7.1-15.7-15.7c0-8.7,7.1-15.7,15.7-15.7H176l47.3-75.8V20.5
		c0-5.7,3.2-11,8.2-13.9C232,6.3,243.8,0,258.7,0c9.5,0,18.3,2.5,26,7.6c25,16,34.8,54.4,29.9,117.4c-0.1,1.6-0.5,3.2-1.1,4.8h76.4
		c11.7,0,23.2,3.9,32.4,10.9c9.3,7,16.1,17,19.2,28.3l5.4,20.6c2.9,10.9,2.4,22.2-1.6,32.6l-46.6,127.1
		c-3.9,10.4-10.7,19.2-19.6,25.3c-8.8,6.2-19.7,9.6-30.4,9.6H219.3C217.2,384.4,214.8,384.5,212.6,384.5z"/>
	<path d="M442.3,190.8l-5.4-20.6c-2.8-10.3-8.9-19.3-17.5-25.7c-8.4-6.4-18.8-9.9-29.5-9.9h-84.2l3-6l0,0c0.6-1.3,1-2.6,1.1-4
		c4.8-61-4.3-98.1-27.7-113C259.9-2.8,235,10.3,234,10.9l0,0c-3.5,1.9-5.7,5.5-5.7,9.6v51.3L178.8,151h-21.2
		c-6,0-10.9,4.9-10.9,10.9s4.9,10.9,10.9,10.9h27.2c3.8,0,7.3-1.9,9.2-5.1l54.4-87c1.1-1.7,1.7-3.7,1.7-5.7V28
		c6.7-2.2,14.1-1.5,20.2,2c8.8,5.7,22.8,25.1,18.1,90.9l-9.9,19.8l0,0c-1.7,3.4-1.5,7.4,0.5,10.6c1.9,3.2,5.4,5.1,9.2,5.1h101.7
		c5.8,0,11.6,1.9,16.2,5.5c4.7,3.6,8.1,8.5,9.5,14.2l5.4,20.6c1.6,5.3,1.3,11.1-0.7,16.3l-46.6,127.2l0,0c-1.8,5-5.2,9.5-9.7,12.6
		s-9.7,4.8-15.1,4.9H217.5c-1.7,0-39.6,4-48.1-29.9c-1.5-5.8-7.5-9.3-13.3-7.9c-5.8,1.5-9.3,7.5-7.9,13.3
		c9.3,37.2,42.9,46.6,64.4,46.6c2.1,0,4.4-0.1,6.5-0.3h129.7c9.9,0,19.6-3.1,27.7-8.7c8.2-5.6,14.3-13.7,17.8-23l46.6-127.2l0,0
		C444.5,210.8,444.9,200.5,442.3,190.8L442.3,190.8z"/>
	<path style="fill:#FFFFFF;" d="M87,297.6c0,12-9.7,21.7-21.7,21.7s-21.7-9.7-21.7-21.7s9.7-21.7,21.7-21.7S87,285.6,87,297.6"/>
</g>
<path style="fill:none;stroke:#FFFFFF;stroke-width:3;stroke-miterlimit:10;" d="M108.7,338.7c0,1.4-1.1,2.4-2.4,2.4H24.2
	c-1.4,0-2.4-1.1-2.4-2.4v-180c0-1.4,1.1-2.4,2.4-2.4h82.1c1.4,0,2.4,1.1,2.4,2.4C108.7,158.7,108.7,338.7,108.7,338.7z"/>
</svg>
