<?xml version="1.0" encoding="utf-8"?>
<!-- Generator: Adobe Illustrator 26.5.0, SVG Export Plug-In . SVG Version: 6.00 Build 0)  -->
<svg version="1.1" id="Layer_1" xmlns="http://www.w3.org/2000/svg" xmlns:xlink="http://www.w3.org/1999/xlink" x="0px" y="0px"
	 viewBox="0 0 500 500" style="enable-background:new 0 0 500 500;" xml:space="preserve">
<style type="text/css">
	.st0{fill:none;}
</style>
<g>
	<path class="st0" d="M60.7,287.6c0.1,0.3,0.2,0.6,0.3,0.8c0.1,0.2,0.2,0.4,0.3,0.6c0.1,0.3,0.3,0.5,0.3,0.8
		c0.1,0.2,0.2,0.3,0.3,0.6c0.2,0.3,0.3,0.5,0.4,0.7c0.1,0.2,0.3,0.3,0.3,0.5c0.2,0.3,0.3,0.4,0.5,0.7c0.2,0.2,0.3,0.3,0.4,0.5
		c0.2,0.3,0.3,0.4,0.6,0.6c0.2,0.2,0.3,0.3,0.4,0.4c0.3,0.3,0.4,0.4,0.7,0.6c0.2,0.1,0.3,0.3,0.4,0.3c0.3,0.3,0.8,0.6,1.1,0.8
		c0.1,0.1,0.2,0.1,0.3,0.2c0.3,0.3,0.7,0.4,1,0.6c0.2,0.1,0.3,0.2,0.5,0.3c0.3,0.2,0.5,0.3,0.8,0.4c0.2,0.1,0.3,0.2,0.5,0.3
		c0.3,0.1,0.5,0.2,0.8,0.3c0.2,0.1,0.4,0.1,0.6,0.2c0.3,0.1,0.5,0.2,0.8,0.3c0.2,0.1,0.4,0.1,0.6,0.2c0.3,0.1,0.6,0.1,0.8,0.2
		c0.2,0,0.4,0.1,0.6,0.1c0.3,0,0.6,0.1,0.9,0.1c0.2,0,0.3,0,0.6,0c0.3,0,0.7,0,1,0c0.2,0,0.3,0,0.5,0c0.5-0.1,1-0.1,1.5-0.2
		c8.5-1.5,14.1-9.8,12.6-18.1c-0.3-1.2-0.4-2.4-0.7-3.6c-0.1-0.3-0.1-0.6-0.2-0.9c-0.2-0.9-0.3-1.8-0.4-2.8c-0.1-0.3-0.1-0.7-0.2-1
		c-0.2-1.1-0.3-2.2-0.4-3.3c-0.1-0.5-0.1-1.1-0.2-1.6c-0.1-0.6-0.1-1.2-0.2-1.8c-0.1-0.7-0.1-1.3-0.2-1.9c0-0.4-0.1-0.8-0.1-1.3
		c-0.1-1.4-0.2-2.8-0.3-4.3c0-0.2,0-0.3,0-0.5v-0.1c0-0.9-0.1-1.8-0.1-2.7c0-0.3,0-0.6,0-0.8c0-0.8,0-1.8,0-2.6c0-0.3,0-0.6,0-0.8
		c0-0.9,0-1.8,0-2.7c0-0.1,0-0.1,0-0.2c0.1-3,0.2-6,0.4-8.9c0-0.3,0-0.6,0.1-0.9c0.1-0.8,0.2-1.7,0.3-2.4c0-0.3,0.1-0.8,0.1-1.1
		c0.1-0.8,0.2-1.6,0.3-2.4c0-0.3,0.1-0.7,0.1-1c0.3-2.7,0.8-5.3,1.2-7.9c0.1-0.3,0.1-0.8,0.2-1.1c0.2-0.8,0.3-1.4,0.4-2.2
		c0.1-0.5,0.2-0.9,0.3-1.4c0.2-0.7,0.3-1.3,0.4-2c0.1-0.5,0.3-1,0.3-1.5c0.2-0.7,0.3-1.3,0.4-2c0.2-0.5,0.3-1.1,0.4-1.6
		c0.3-1,0.5-1.9,0.8-2.9c0.2-0.7,0.4-1.4,0.6-2.1c0.2-0.6,0.3-1.1,0.5-1.7c0.2-0.6,0.3-1.2,0.6-1.8c0.2-0.6,0.3-1.1,0.5-1.7
		c0.2-0.6,0.4-1.3,0.6-1.8c0.2-0.5,0.3-1.1,0.5-1.6c0.3-0.7,0.5-1.3,0.8-2c0.2-0.5,0.3-0.9,0.5-1.4c0.4-1.1,0.8-2.2,1.3-3.3
		c0.1-0.3,0.2-0.5,0.3-0.8c0.3-0.9,0.8-1.8,1.1-2.7c0.2-0.4,0.3-0.8,0.5-1.3c0.3-0.8,0.7-1.4,1-2.2c0.2-0.4,0.4-0.8,0.6-1.3
		c0.3-0.8,0.7-1.4,1-2.2c0.2-0.4,0.3-0.8,0.6-1.2c0.4-0.9,0.9-1.8,1.3-2.7c0.1-0.3,0.3-0.4,0.3-0.7c0.6-1.1,1.2-2.2,1.8-3.3
		c0.1-0.3,0.3-0.4,0.3-0.7c0.5-0.8,1-1.8,1.5-2.6c0.2-0.3,0.4-0.7,0.6-1c0.4-0.8,0.9-1.5,1.3-2.3c0.2-0.3,0.4-0.7,0.6-1
		c0.5-0.8,1-1.6,1.5-2.3c0.2-0.3,0.3-0.5,0.5-0.8c0.7-1.1,1.4-2.1,2.1-3.2c24.6-35.7,61.3-59.6,103.8-67.6c0.1,0,0.3,0,0.3-0.1
		c1.2-0.3,2.3-0.4,3.5-0.6c0.4-0.1,0.9-0.2,1.3-0.2c0.8-0.2,1.7-0.3,2.5-0.3c0.5-0.1,1-0.2,1.6-0.2c0.8-0.1,1.6-0.2,2.3-0.3
		c0.6-0.1,1.1-0.1,1.7-0.2c0.8-0.1,1.5-0.2,2.3-0.3c0.6-0.1,1.1-0.1,1.7-0.2c0.8-0.1,1.5-0.1,2.2-0.2c0.6,0,1.2-0.1,1.8-0.1
		c0.8,0,1.4-0.1,2.2-0.1c0.6,0,1.2-0.1,1.8-0.1c0.8,0,1.4-0.1,2.2-0.1c0.6,0,1.2,0,1.8,0c0.4,0,0.8,0,1.2,0s0.8,0,1.2,0
		c0.4,0,0.8,0,1.2,0c1,0,1.9,0,2.9,0.1c0.3,0,0.5,0,0.7,0c1.2,0.1,2.3,0.1,3.5,0.2c0.3,0,0.7,0.1,1,0.1c0.9,0.1,1.8,0.1,2.6,0.2
		c0.4,0,0.8,0.1,1.2,0.1c0.9,0.1,1.8,0.2,2.7,0.3c0.3,0,0.7,0.1,0.9,0.1c1.2,0.2,2.3,0.3,3.5,0.4c0.3,0,0.6,0.1,0.8,0.1
		c0.9,0.2,1.8,0.3,2.7,0.4c0.4,0.1,0.8,0.2,1.2,0.2c0.8,0.2,1.7,0.3,2.5,0.4c0.3,0.1,0.7,0.2,1.1,0.2c1.2,0.3,2.3,0.4,3.4,0.7
		c0.2,0,0.4,0.1,0.6,0.1c1,0.2,1.9,0.4,2.9,0.7c0.4,0.1,0.8,0.2,1.2,0.3c0.8,0.2,1.6,0.4,2.4,0.6c0.3,0.1,0.8,0.2,1.1,0.3
		c1.1,0.3,2.1,0.6,3.2,0.8c0.1,0,0.2,0.1,0.3,0.1c1.1,0.3,2.3,0.7,3.3,1c0.3,0.1,0.7,0.3,1.1,0.3c0.8,0.3,1.6,0.5,2.4,0.8
		c0.3,0.1,0.8,0.3,1.1,0.4c0.9,0.3,1.8,0.7,2.8,1c0.2,0.1,0.4,0.2,0.6,0.3c1.1,0.4,2.3,0.8,3.3,1.3c0.3,0.1,0.6,0.3,0.9,0.3
		c0.8,0.3,1.7,0.7,2.5,1c0.3,0.2,0.7,0.3,1.1,0.4c0.8,0.3,1.7,0.8,2.6,1.2c0.3,0.1,0.5,0.3,0.8,0.3c1.1,0.5,2.2,1,3.3,1.6
		c0.3,0.1,0.4,0.3,0.7,0.3c0.8,0.4,1.8,0.8,2.6,1.3c0.3,0.2,0.7,0.3,1,0.5c0.8,0.4,1.7,0.8,2.4,1.3c0.3,0.2,0.5,0.3,0.8,0.4
		c1.1,0.6,2.2,1.2,3.2,1.8c0.1,0.1,0.3,0.2,0.3,0.2c0.9,0.6,1.9,1.1,2.8,1.7c0.3,0.2,0.6,0.3,0.8,0.6c0.8,0.5,1.6,1,2.3,1.5
		c0.3,0.2,0.6,0.3,0.8,0.5c1,0.7,2.1,1.3,3.1,2.1c73.7,50.5,92.4,151.4,41.9,225c-0.1,0.1-0.2,0.2-0.3,0.3c-0.8,1.2-1.7,2.3-2.5,3.5
		c-0.3,0.4-0.7,0.9-1,1.3c-0.6,0.8-1.3,1.7-1.8,2.5c-0.3,0.5-0.8,0.9-1.1,1.4c-0.7,0.8-1.3,1.6-1.9,2.3c-0.3,0.4-0.7,0.8-1.1,1.3
		c-0.8,1-1.7,1.9-2.5,2.8c-0.2,0.3-0.3,0.4-0.6,0.7c-1,1.2-2,2.3-3.1,3.3c-0.3,0.4-0.8,0.8-1.1,1.1c-0.7,0.8-1.4,1.5-2.2,2.2
		c-0.4,0.4-0.8,0.8-1.3,1.3c-0.7,0.7-1.4,1.3-2.1,2c-0.4,0.4-0.8,0.8-1.3,1.2c-0.8,0.8-1.7,1.6-2.6,2.3c-0.3,0.3-0.6,0.5-0.8,0.8
		c-1.1,1-2.3,1.9-3.4,2.8c-0.4,0.3-0.8,0.6-1.2,0.9c-0.8,0.7-1.6,1.3-2.4,1.9c-0.4,0.3-0.9,0.7-1.4,1.1c-0.8,0.6-1.5,1.2-2.3,1.8
		c-0.4,0.3-0.9,0.7-1.4,1c-0.8,0.6-1.8,1.3-2.7,1.8c-0.3,0.3-0.7,0.5-1.1,0.8c-1.3,0.8-2.4,1.6-3.7,2.4c-0.4,0.3-0.8,0.5-1.2,0.8
		c-0.9,0.6-1.8,1.1-2.7,1.7c-0.5,0.3-1,0.6-1.5,0.8c-0.8,0.5-1.7,0.9-2.4,1.4c-0.5,0.3-1,0.6-1.5,0.8c-0.9,0.5-1.8,1-2.7,1.4
		c-0.4,0.3-0.8,0.4-1.3,0.7c-1.3,0.7-2.6,1.3-3.9,1.9c-0.3,0.2-0.7,0.3-1.1,0.5c-1,0.5-2,0.9-3,1.3c-0.5,0.3-1,0.4-1.5,0.7
		c-0.8,0.4-1.8,0.8-2.6,1.1c-0.5,0.3-1,0.4-1.6,0.7c-0.9,0.3-1.8,0.8-2.8,1.1c-0.4,0.2-0.9,0.3-1.3,0.5c-1.3,0.5-2.8,1-4.1,1.4
		c-0.3,0.1-0.6,0.2-0.8,0.3c-1.1,0.3-2.3,0.8-3.3,1.1c-0.5,0.2-1,0.3-1.5,0.4c-0.9,0.3-1.8,0.6-2.8,0.8c-0.5,0.2-1.1,0.3-1.6,0.4
		c-1,0.3-1.9,0.5-2.9,0.8c-0.5,0.1-0.9,0.3-1.4,0.3c-1.4,0.3-2.8,0.7-4.3,1c-0.2,0-0.3,0.1-0.4,0.1c-1.3,0.3-2.6,0.5-3.9,0.8
		c-0.5,0.1-1,0.2-1.4,0.3c-1,0.2-2,0.3-2.9,0.5c-0.5,0.1-1.1,0.2-1.6,0.3c-1,0.2-2,0.3-3,0.4c-0.5,0.1-0.9,0.1-1.4,0.2
		c-1.3,0.2-2.8,0.3-4.1,0.4c-0.1,0-0.2,0-0.3,0c-1.5,0.2-2.9,0.3-4.4,0.3c-0.4,0-0.9,0.1-1.3,0.1c-1,0.1-2.1,0.1-3.1,0.2
		c-0.5,0-1,0-1.6,0.1c-1,0-2,0-3,0.1c-0.3,0-0.7,0-1,0c-0.3,0-0.4,0-0.7,0c-0.3,0-0.8,0-1.1,0c-0.8,0-1.7,0-2.6-0.1
		c-0.3,0-0.7,0-1.1,0c-1.2,0-2.3-0.1-3.5-0.2c-0.1,0-0.2,0-0.3,0c-1.1-0.1-2.2-0.2-3.3-0.3c-0.3,0-0.8-0.1-1.1-0.1
		c-0.8-0.1-1.7-0.2-2.5-0.3c-0.3,0-0.8-0.1-1.1-0.1c-1.1-0.1-2.1-0.3-3.2-0.3c-0.1,0-0.3,0-0.3,0c-1.2-0.2-2.3-0.3-3.4-0.5
		c-0.3-0.1-0.8-0.1-1.1-0.2c-0.8-0.2-1.7-0.3-2.5-0.4c-0.4-0.1-0.8-0.2-1.2-0.2c-0.9-0.2-1.9-0.3-2.8-0.5c-0.3-0.1-0.4-0.1-0.7-0.2
		c-1.2-0.3-2.3-0.5-3.4-0.8c-0.3-0.1-0.8-0.2-1.1-0.3c-0.8-0.2-1.6-0.4-2.4-0.6c-0.4-0.1-0.8-0.2-1.2-0.3c-0.8-0.3-1.8-0.4-2.6-0.7
		c-0.3-0.1-0.6-0.2-0.8-0.3c-1.1-0.3-2.3-0.7-3.3-1c-0.3-0.1-0.7-0.3-1-0.3c-0.8-0.3-1.6-0.5-2.4-0.8c-0.4-0.2-0.8-0.3-1.2-0.4
		c-0.8-0.3-1.7-0.6-2.4-0.8c-0.3-0.1-0.7-0.3-1-0.3c-1.1-0.4-2.2-0.8-3.3-1.3c-0.3-0.1-0.6-0.3-0.9-0.3c-0.8-0.3-1.7-0.7-2.5-1
		c-0.4-0.2-0.8-0.3-1.2-0.5c-0.8-0.3-1.6-0.7-2.3-1c-0.3-0.2-0.7-0.3-1-0.5c-1.1-0.5-2.2-1-3.3-1.5c-0.3-0.1-0.5-0.3-0.8-0.4
		c-0.8-0.4-1.7-0.8-2.5-1.3c-0.4-0.2-0.8-0.4-1.2-0.6c-0.8-0.4-1.5-0.8-2.3-1.2c-0.3-0.2-0.7-0.4-1.1-0.6c-1.1-0.6-2.1-1.2-3.2-1.8
		c-0.2-0.1-0.3-0.3-0.6-0.3c-0.9-0.5-1.8-1-2.7-1.6c-0.3-0.3-0.8-0.4-1.1-0.7c-0.8-0.4-1.4-0.9-2.2-1.3c-0.3-0.3-0.7-0.4-1.1-0.7
		c-1-0.7-1.9-1.3-2.8-1.9c-0.1-0.1-0.2-0.1-0.3-0.2c-20.4-14-36.9-31.9-49-53.3c-0.5-0.9-1-1.8-1.5-2.8c-0.3-0.5-0.5-1-0.8-1.5
		c-0.2-0.3-0.4-0.7-0.6-1.1c0,0,0-0.1-0.1-0.1c-0.4-0.8-0.8-1.6-1.3-2.3c-0.2-0.3-0.3-0.5-0.4-0.8c-0.3-0.7-0.7-1.3-0.9-1.9
		c-0.2-0.3-0.3-0.8-0.5-1.1c-0.6-1.3-1.3-2.7-1.8-4c-0.2-0.4-0.4-0.9-0.7-1.3c-0.1-0.1-0.1-0.3-0.2-0.3c-0.2-0.3-0.4-0.7-0.6-0.9
		c-0.1-0.1-0.2-0.2-0.2-0.3c-0.3-0.4-0.6-0.8-0.8-1.1l0,0c-0.3-0.3-0.6-0.7-0.9-1c-0.1-0.1-0.2-0.2-0.3-0.3
		c-0.3-0.3-0.5-0.5-0.8-0.7c-0.1-0.1-0.2-0.2-0.3-0.2c-0.3-0.3-0.8-0.6-1.1-0.8l-0.1-0.1c-0.3-0.3-0.7-0.4-1.1-0.6
		c-0.1-0.1-0.3-0.1-0.3-0.2c-0.3-0.2-0.7-0.3-1-0.4c-0.1,0-0.2-0.1-0.3-0.1c-0.4-0.2-0.8-0.3-1.3-0.4c-0.1,0-0.2,0-0.3-0.1
		c-0.3-0.1-0.8-0.2-1.1-0.3c-0.2,0-0.3-0.1-0.4-0.1c-0.3-0.1-0.7-0.1-1.1-0.2c-0.1,0-0.3,0-0.3,0c-0.4,0-0.9-0.1-1.3-0.1
		c-0.3,0-0.6,0-0.9,0.1c-0.3,0-0.4,0-0.7,0c-0.3,0-0.7,0.1-0.9,0.2c-0.2,0-0.4,0.1-0.6,0.1c-0.3,0.1-0.8,0.2-1.1,0.3
		c-0.2,0-0.3,0.1-0.4,0.1c-0.5,0.2-1,0.3-1.5,0.6c-7.8,3.4-11.5,12.7-8.1,20.6c0.8,1.5,1.3,3.2,2.1,4.8c0.1,0.3,0.2,0.4,0.3,0.7
		c0.6,1.3,1.3,2.5,1.8,3.8c0.1,0.2,0.2,0.4,0.3,0.6c0.8,1.5,1.5,2.9,2.3,4.4c0.8,1.5,1.6,3,2.4,4.4c14.5,25.5,34.2,47,58.7,63.6
		c33.3,22.9,71.3,33.8,108.9,33.8c61.5,0,122.1-29.2,159.5-83.9c60.3-87.7,37.8-208.2-50-268.5C326.7,69,289.1,57.5,250.6,57.5
		c-11.9,0-24,1.1-35.9,3.3c-50.5,8.9-94.7,37.5-123.9,80C68,174.1,56.3,212.7,56.8,252.2v0.1c0.2,11,1.3,22.2,3.3,33.3
		c0,0.1,0,0.2,0.1,0.3c0.1,0.4,0.2,0.8,0.3,1.2C60.5,287.3,60.6,287.4,60.7,287.6z"/>
	<path class="st0" d="M56.8,252.3L56.8,252.3C56.8,252.3,56.8,252.3,56.8,252.3z"/>
	<path class="st0" d="M335.6,358.8c3.7-0.2,7.6-1.5,10.5-4.2c22.1-20.4,36.3-46.6,41.1-76c1.3-8.5-4.3-16.6-12.9-18
		c-8.5-1.5-16.6,4.3-18,12.9c-3.8,22.5-14.7,42.7-31.3,58.2c-6.3,5.8-6.8,15.8-1,22.1C327.2,357.1,331.4,358.8,335.6,358.8z"/>
	<path class="st0" d="M268.9,296.4h-41.3c-9.4,0-17.3-7.8-17.3-17.3c0-8.7-7-15.6-15.6-15.6c-8.7,0-15.6,7-15.6,15.6
		c0,26.8,21.7,48.5,48.5,48.5h5v17.7c0,8.7,7,15.6,15.6,15.6c8.7,0,15.6-7,15.6-15.6v-17.7h5c26.8,0,48.5-21.7,48.5-48.5
		s-21.7-48.5-48.5-48.5h-41.3c-9.4,0-17.3-7.8-17.3-17.3s7.8-17.3,17.3-17.3h41.3c9.4,0,17.3,7.8,17.3,17.3c0,8.7,7,15.6,15.6,15.6
		c8.6,0,15.6-7,15.6-15.6c0-26.8-21.7-48.5-48.5-48.5h-5v-13.8c0-8.7-7-15.6-15.6-15.6c-8.7,0-15.6,7-15.6,15.6v13.8h-5
		c-26.8,0-48.5,21.7-48.5,48.5s21.7,48.5,48.5,48.5h41.3c9.4,0,17.3,7.8,17.3,17.3C286.1,288.5,278.5,296.4,268.9,296.4z"/>
	<path d="M447.8,213.1c-4.8-25.7-14.3-49.8-28.3-71.8c-14.5-22.7-33.2-42-55.6-57.3l0,0C330,61,290.9,48.9,250.7,48.9v8v-8
		c-12.4,0-25.1,1.2-37.4,3.5c-52.9,9.9-98.8,39.8-129.1,83.9C53.8,180.5,42.5,234,52.2,287.1c1.3,6.8,5.4,12.4,11,15.8
		c0.8,2.7,1.8,5.3,2.7,7.9c-2.8,5.9-3.2,13-0.3,19.6c0,0.1,0.1,0.2,0.1,0.3c0.3,0.6,0.6,1.3,0.9,2.1c0.3,0.8,0.8,1.8,1.2,2.7
		c0,0,0,0.1,0.1,0.1l0.6,1.1c2.1,4.3,4.3,8.7,6.9,13.1c15.3,26.8,35.8,49.1,61.1,66.3c33.6,23,72.8,35.2,113.5,35.2
		c32.1,0,64-7.8,92.4-22.4c29.4-15.1,54.9-37.6,73.7-65c15.4-22.3,25.8-47,31.2-73.4C452.4,264.7,452.5,238.7,447.8,213.1z
		 M409.3,359c-37.4,54.6-98,83.9-159.5,83.9c-37.7,0-75.6-10.9-108.9-33.8c-24.5-16.6-44.1-38.1-58.7-63.6c-0.8-1.5-1.7-3-2.4-4.4
		c-0.8-1.5-1.5-2.9-2.3-4.4c-0.1-0.2-0.2-0.4-0.3-0.6c-0.6-1.3-1.3-2.5-1.8-3.8c-0.1-0.3-0.2-0.4-0.3-0.7c-0.8-1.5-1.3-3.2-2.1-4.8
		c-3.4-7.9,0.3-17,8.1-20.6c0.5-0.3,1-0.4,1.5-0.6c0.2-0.1,0.3-0.1,0.4-0.1c0.3-0.1,0.8-0.3,1.1-0.3c0.2,0,0.4-0.1,0.6-0.1
		c0.3-0.1,0.7-0.1,0.9-0.2c0.3,0,0.4,0,0.7,0c0.3,0,0.6-0.1,0.9-0.1c0.4,0,0.9,0,1.3,0.1c0.1,0,0.3,0,0.3,0c0.3,0,0.7,0.1,1.1,0.2
		c0.2,0,0.3,0.1,0.4,0.1c0.3,0.1,0.8,0.2,1.1,0.3c0.1,0,0.2,0,0.3,0.1c0.4,0.2,0.8,0.3,1.3,0.4c0.1,0,0.2,0.1,0.3,0.1
		c0.3,0.2,0.7,0.3,1,0.4c0.1,0.1,0.3,0.1,0.3,0.2c0.3,0.2,0.8,0.4,1.1,0.6l0.1,0.1c0.4,0.3,0.8,0.5,1.1,0.8c0.1,0.1,0.2,0.2,0.3,0.2
		c0.3,0.3,0.6,0.4,0.8,0.7c0.1,0.1,0.2,0.2,0.3,0.3c0.3,0.3,0.7,0.7,0.9,1l0,0c0.3,0.3,0.6,0.8,0.8,1.1c0.1,0.1,0.2,0.2,0.2,0.3
		c0.3,0.3,0.4,0.6,0.6,0.9c0.1,0.1,0.1,0.3,0.2,0.3c0.3,0.4,0.4,0.8,0.7,1.3c0.6,1.3,1.3,2.7,1.8,4c0.2,0.3,0.3,0.8,0.5,1.1
		c0.3,0.7,0.7,1.3,0.9,1.9c0.2,0.3,0.3,0.5,0.4,0.8c0.4,0.8,0.8,1.6,1.3,2.3c0,0,0,0.1,0.1,0.1c0.2,0.3,0.4,0.8,0.6,1.1
		c0.3,0.5,0.5,1,0.8,1.5c0.5,0.9,1,1.8,1.5,2.8c12.1,21.4,28.7,39.4,49,53.3c0.1,0.1,0.2,0.1,0.3,0.2c0.9,0.7,1.9,1.3,2.8,1.9
		c0.3,0.3,0.7,0.4,1.1,0.7c0.8,0.5,1.4,0.9,2.2,1.3c0.3,0.3,0.8,0.4,1.1,0.7c0.9,0.5,1.8,1.1,2.7,1.6c0.2,0.1,0.3,0.3,0.6,0.3
		c1.1,0.6,2.1,1.2,3.2,1.8c0.3,0.2,0.7,0.4,1.1,0.6c0.8,0.4,1.5,0.8,2.3,1.2c0.4,0.2,0.8,0.4,1.2,0.6c0.8,0.4,1.7,0.8,2.5,1.3
		c0.3,0.1,0.5,0.3,0.8,0.4c1.1,0.5,2.2,1,3.3,1.5c0.3,0.2,0.7,0.3,1,0.5c0.8,0.3,1.6,0.7,2.3,1c0.4,0.2,0.8,0.3,1.2,0.5
		c0.8,0.3,1.7,0.7,2.5,1c0.3,0.1,0.6,0.3,0.9,0.3c1.1,0.4,2.2,0.8,3.3,1.3c0.3,0.1,0.7,0.3,1,0.3c0.8,0.3,1.6,0.6,2.4,0.8
		c0.4,0.2,0.8,0.3,1.2,0.4c0.8,0.3,1.6,0.5,2.4,0.8c0.3,0.1,0.7,0.3,1,0.3c1.1,0.3,2.3,0.7,3.3,1c0.3,0.1,0.6,0.2,0.8,0.3
		c0.8,0.3,1.8,0.5,2.6,0.7c0.4,0.1,0.8,0.2,1.2,0.3c0.8,0.2,1.6,0.4,2.4,0.6c0.3,0.1,0.8,0.2,1.1,0.3c1.2,0.3,2.3,0.5,3.4,0.8
		c0.3,0.1,0.4,0.1,0.7,0.2c0.9,0.2,1.9,0.3,2.8,0.5c0.4,0.1,0.8,0.2,1.2,0.2c0.8,0.2,1.7,0.3,2.5,0.4c0.3,0.1,0.8,0.1,1.1,0.2
		c1.2,0.2,2.3,0.3,3.4,0.5c0.1,0,0.3,0,0.3,0c1.1,0.2,2.1,0.3,3.2,0.3c0.3,0,0.8,0.1,1.1,0.1c0.8,0.1,1.7,0.2,2.5,0.3
		c0.3,0,0.8,0.1,1.1,0.1c1.1,0.1,2.2,0.2,3.3,0.3c0.1,0,0.2,0,0.3,0c1.2,0.1,2.3,0.1,3.5,0.2c0.3,0,0.7,0,1.1,0c0.8,0,1.7,0,2.6,0.1
		c0.3,0,0.8,0,1.1,0c0.3,0,0.4,0,0.7,0c0.3,0,0.7,0,1,0c1,0,2,0,3-0.1c0.5,0,1.1,0,1.6-0.1c1,0,2.1-0.1,3.1-0.2
		c0.4,0,0.9-0.1,1.3-0.1c1.5-0.1,2.9-0.2,4.4-0.3c0.1,0,0.2,0,0.3,0c1.3-0.1,2.8-0.3,4.1-0.4c0.5-0.1,0.9-0.1,1.4-0.2
		c1-0.1,2-0.3,3-0.4c0.5-0.1,1.1-0.2,1.6-0.3c1-0.2,2-0.3,2.9-0.5c0.5-0.1,1-0.2,1.4-0.3c1.3-0.3,2.6-0.5,3.9-0.8
		c0.2,0,0.3-0.1,0.4-0.1c1.4-0.3,2.8-0.6,4.3-1c0.5-0.1,0.9-0.3,1.4-0.3c1-0.3,1.9-0.5,2.9-0.8c0.5-0.2,1.1-0.3,1.6-0.4
		c0.9-0.3,1.8-0.5,2.8-0.8c0.5-0.2,1-0.3,1.5-0.4c1.1-0.3,2.3-0.7,3.3-1.1c0.3-0.1,0.6-0.2,0.8-0.3c1.3-0.5,2.8-0.9,4.1-1.4
		c0.4-0.2,0.9-0.3,1.3-0.5c0.9-0.3,1.8-0.8,2.8-1.1c0.5-0.2,1-0.4,1.6-0.7c0.9-0.3,1.8-0.8,2.6-1.1c0.5-0.3,1-0.4,1.5-0.7
		c1-0.4,2-0.9,3-1.3c0.3-0.2,0.7-0.3,1.1-0.5c1.3-0.6,2.6-1.3,3.9-1.9c0.4-0.3,0.8-0.4,1.3-0.7c0.9-0.5,1.8-0.9,2.7-1.4
		c0.5-0.3,1-0.6,1.5-0.8c0.8-0.5,1.7-0.9,2.4-1.4c0.5-0.3,1-0.6,1.5-0.8c0.9-0.5,1.8-1.1,2.7-1.7c0.4-0.3,0.8-0.5,1.2-0.8
		c1.3-0.8,2.4-1.6,3.7-2.4c0.3-0.3,0.7-0.5,1.1-0.8c0.9-0.6,1.8-1.3,2.7-1.8c0.5-0.3,0.9-0.7,1.4-1c0.8-0.6,1.5-1.2,2.3-1.8
		c0.5-0.3,0.9-0.7,1.4-1.1c0.8-0.7,1.6-1.3,2.4-1.9c0.4-0.3,0.8-0.6,1.2-0.9c1.2-0.9,2.3-1.9,3.4-2.8c0.3-0.3,0.6-0.5,0.8-0.8
		c0.8-0.8,1.7-1.5,2.6-2.3c0.4-0.4,0.8-0.8,1.3-1.2c0.8-0.7,1.4-1.3,2.1-2c0.4-0.4,0.8-0.8,1.3-1.3c0.8-0.8,1.4-1.4,2.2-2.2
		c0.3-0.3,0.8-0.8,1.1-1.1c1-1.1,2.1-2.2,3.1-3.3c0.2-0.3,0.3-0.4,0.6-0.7c0.8-0.9,1.7-1.9,2.5-2.8c0.3-0.4,0.8-0.8,1.1-1.3
		c0.7-0.8,1.3-1.6,1.9-2.3c0.3-0.5,0.8-0.9,1.1-1.4c0.7-0.8,1.3-1.7,1.8-2.5c0.3-0.4,0.7-0.9,1-1.3c0.8-1.2,1.7-2.3,2.5-3.5
		c0.1-0.1,0.2-0.2,0.3-0.3c50.5-73.6,31.8-174.5-41.9-225c-1-0.7-2.1-1.4-3.1-2.1c-0.3-0.2-0.5-0.3-0.8-0.5c-0.8-0.5-1.6-1-2.3-1.5
		c-0.3-0.2-0.6-0.3-0.8-0.6c-0.9-0.6-1.8-1.2-2.8-1.7c-0.1-0.1-0.3-0.2-0.3-0.2c-1.1-0.6-2.1-1.3-3.2-1.8c-0.3-0.2-0.5-0.3-0.8-0.4
		c-0.8-0.4-1.6-0.9-2.4-1.3c-0.3-0.2-0.7-0.3-1-0.5c-0.8-0.4-1.8-0.9-2.6-1.3c-0.3-0.1-0.4-0.3-0.7-0.3c-1.1-0.5-2.2-1-3.3-1.6
		c-0.3-0.1-0.5-0.3-0.8-0.3c-0.8-0.4-1.7-0.8-2.6-1.2c-0.3-0.2-0.7-0.3-1.1-0.4c-0.8-0.3-1.7-0.7-2.5-1c-0.3-0.1-0.6-0.3-0.9-0.3
		c-1.1-0.4-2.2-0.8-3.3-1.3c-0.2-0.1-0.4-0.2-0.6-0.3c-0.9-0.3-1.8-0.7-2.8-1c-0.3-0.2-0.8-0.3-1.1-0.4c-0.8-0.3-1.6-0.5-2.4-0.8
		c-0.3-0.1-0.7-0.3-1.1-0.3c-1.1-0.3-2.3-0.7-3.3-1c-0.1,0-0.2-0.1-0.3-0.1c-1.1-0.3-2.1-0.6-3.2-0.8c-0.3-0.1-0.8-0.2-1.1-0.3
		c-0.8-0.3-1.6-0.4-2.4-0.6c-0.4-0.1-0.8-0.2-1.2-0.3c-1-0.3-1.9-0.4-2.9-0.7c-0.2,0-0.4-0.1-0.6-0.1c-1.2-0.3-2.3-0.5-3.4-0.7
		c-0.3-0.1-0.7-0.2-1.1-0.2c-0.8-0.2-1.7-0.3-2.5-0.4c-0.4-0.1-0.8-0.2-1.2-0.2c-0.9-0.2-1.8-0.3-2.7-0.4c-0.3,0-0.6-0.1-0.8-0.1
		c-1.2-0.2-2.3-0.3-3.5-0.4c-0.3,0-0.7-0.1-0.9-0.1c-0.9-0.1-1.8-0.2-2.7-0.3c-0.4,0-0.8-0.1-1.2-0.1c-0.8-0.1-1.8-0.2-2.6-0.2
		c-0.3,0-0.7-0.1-1-0.1c-1.2-0.1-2.3-0.2-3.5-0.2c-0.3,0-0.5,0-0.7,0c-1,0-1.9-0.1-2.9-0.1c-0.4,0-0.8,0-1.2,0c-0.4,0-0.8,0-1.2,0
		s-0.8,0-1.2,0c-0.6,0-1.2,0-1.8,0c-0.8,0-1.4,0-2.2,0.1c-0.6,0-1.2,0-1.8,0.1c-0.8,0-1.4,0.1-2.2,0.1c-0.6,0-1.2,0.1-1.8,0.1
		c-0.8,0.1-1.5,0.1-2.2,0.2c-0.6,0.1-1.1,0.1-1.7,0.2c-0.8,0.1-1.5,0.2-2.3,0.3c-0.6,0.1-1.1,0.1-1.7,0.2c-0.8,0.1-1.6,0.2-2.3,0.3
		c-0.5,0.1-1,0.2-1.6,0.2c-0.8,0.1-1.7,0.3-2.5,0.3c-0.4,0.1-0.9,0.2-1.3,0.2c-1.2,0.2-2.3,0.4-3.5,0.6c-0.1,0-0.3,0-0.3,0.1
		c-42.4,8-79.2,31.9-103.8,67.6c-0.8,1-1.4,2.1-2.1,3.2c-0.2,0.3-0.3,0.5-0.5,0.8c-0.5,0.8-1,1.6-1.5,2.3c-0.2,0.3-0.4,0.7-0.6,1
		c-0.5,0.8-0.9,1.5-1.3,2.3c-0.2,0.3-0.4,0.7-0.6,1c-0.5,0.8-1,1.8-1.5,2.6c-0.1,0.3-0.3,0.4-0.3,0.7c-0.6,1.1-1.2,2.2-1.8,3.3
		c-0.1,0.3-0.3,0.4-0.3,0.7c-0.4,0.8-0.9,1.8-1.3,2.7c-0.2,0.4-0.3,0.8-0.6,1.2c-0.3,0.8-0.7,1.4-1,2.2c-0.2,0.4-0.4,0.8-0.6,1.3
		c-0.3,0.8-0.7,1.4-1,2.2c-0.2,0.4-0.3,0.8-0.5,1.3c-0.3,0.9-0.8,1.8-1.1,2.7c-0.1,0.3-0.2,0.5-0.3,0.8c-0.4,1.1-0.8,2.2-1.3,3.3
		c-0.2,0.5-0.3,0.9-0.5,1.4c-0.3,0.7-0.5,1.3-0.8,2c-0.2,0.5-0.3,1.1-0.5,1.6c-0.2,0.6-0.4,1.3-0.6,1.8c-0.2,0.6-0.3,1.1-0.5,1.7
		c-0.2,0.6-0.3,1.2-0.6,1.8c-0.2,0.6-0.3,1.1-0.5,1.7c-0.2,0.7-0.4,1.4-0.6,2.1c-0.3,1-0.5,1.9-0.8,2.9c-0.2,0.5-0.3,1.1-0.4,1.6
		c-0.2,0.7-0.3,1.3-0.4,2c-0.1,0.5-0.3,1-0.3,1.5c-0.2,0.7-0.3,1.3-0.4,2c-0.1,0.5-0.2,0.9-0.3,1.4c-0.2,0.8-0.3,1.4-0.4,2.2
		c-0.1,0.3-0.2,0.8-0.2,1.1c-0.4,2.7-0.8,5.3-1.2,7.9c0,0.3-0.1,0.7-0.1,1c-0.1,0.8-0.2,1.6-0.3,2.4c0,0.3-0.1,0.8-0.1,1.1
		c-0.1,0.8-0.2,1.7-0.3,2.4c0,0.3-0.1,0.6-0.1,0.9c-0.3,3-0.3,5.9-0.4,8.9c0,0.1,0,0.1,0,0.2c0,0.9,0,1.8,0,2.7c0,0.3,0,0.6,0,0.8
		c0,0.8,0,1.8,0,2.6c0,0.3,0,0.6,0,0.8c0,0.9,0.1,1.8,0.1,2.7v0.1c0,0.2,0,0.3,0,0.5c0.1,1.4,0.2,2.8,0.3,4.3c0,0.4,0.1,0.8,0.1,1.3
		c0.1,0.7,0.1,1.3,0.2,1.9c0.1,0.6,0.1,1.2,0.2,1.8c0.1,0.5,0.1,1.1,0.2,1.6c0.1,1.1,0.3,2.2,0.4,3.3c0.1,0.3,0.1,0.7,0.2,1
		c0.2,0.9,0.3,1.8,0.4,2.8c0.1,0.3,0.1,0.6,0.2,0.9c0.2,1.2,0.4,2.4,0.7,3.6c1.5,8.4-4.1,16.6-12.6,18.1c-0.5,0.1-1,0.2-1.5,0.2
		c-0.2,0-0.3,0-0.5,0c-0.3,0-0.7,0-1,0c-0.2,0-0.4,0-0.6,0c-0.3,0-0.6,0-0.9-0.1c-0.2,0-0.4-0.1-0.6-0.1c-0.3,0-0.6-0.1-0.8-0.2
		c-0.2,0-0.4-0.1-0.6-0.2c-0.3-0.1-0.6-0.2-0.8-0.3c-0.2-0.1-0.4-0.1-0.6-0.2c-0.3-0.1-0.5-0.2-0.8-0.3c-0.2-0.1-0.3-0.2-0.5-0.3
		c-0.3-0.1-0.6-0.3-0.8-0.4c-0.2-0.1-0.3-0.2-0.5-0.3c-0.3-0.2-0.7-0.4-1-0.6c-0.1-0.1-0.2-0.1-0.3-0.2c-0.4-0.3-0.8-0.5-1.1-0.8
		c-0.2-0.1-0.3-0.3-0.4-0.3c-0.3-0.2-0.4-0.4-0.7-0.6c-0.2-0.2-0.3-0.3-0.4-0.4c-0.2-0.2-0.4-0.4-0.6-0.6c-0.2-0.2-0.3-0.3-0.4-0.5
		c-0.2-0.3-0.3-0.4-0.5-0.7c-0.1-0.2-0.3-0.3-0.3-0.5c-0.2-0.3-0.3-0.4-0.4-0.7c-0.1-0.2-0.2-0.3-0.3-0.6c-0.1-0.3-0.3-0.5-0.3-0.8
		c-0.1-0.2-0.2-0.4-0.3-0.6c-0.1-0.3-0.2-0.6-0.3-0.8c-0.1-0.2-0.2-0.3-0.2-0.6c-0.1-0.4-0.2-0.8-0.3-1.2c0-0.1,0-0.2-0.1-0.3
		c-2.1-11.1-3.2-22.2-3.3-33.3v-0.1c0-0.2,0-0.4,0-0.6c0-0.3,0-0.8,0-1.1l0,0c-0.2-38.9,11.4-76.9,33.9-109.7
		c29.2-42.5,73.4-71,124-80.6c11.9-2.3,24-3.3,35.9-3.3c38.5,0,76.1,11.6,108.7,33.7C447.2,150.9,469.6,271.3,409.3,359z
		 M268.9,261.7h-41.3c-26.8,0-48.5-21.7-48.5-48.5c0-26.8,21.7-48.5,48.5-48.5h5v-13.8c0-8.7,7-15.6,15.6-15.6
		c8.7,0,15.6,7,15.6,15.6v13.8h5c26.8,0,48.5,21.7,48.5,48.5c0,8.7-7,15.6-15.6,15.6c-8.6,0-15.6-7-15.6-15.6
		c0-9.5-7.9-17.3-17.3-17.3h-41.3c-9.5,0-17.3,7.8-17.3,17.3c0,9.5,7.9,17.3,17.3,17.3h41.3c26.8,0,48.5,21.7,48.5,48.5
		c0,26.8-21.7,48.5-48.5,48.5h-5v17.7c0,8.7-7,15.6-15.6,15.6c-8.7,0-15.6-7-15.6-15.6v-17.7h-5c-26.8,0-48.5-21.7-48.5-48.5
		c0-8.7,7-15.6,15.6-15.6c8.7,0,15.6,7,15.6,15.6c0,9.5,7.9,17.3,17.3,17.3h41.3c9.6,0,17.2-7.9,17.3-17.3
		C286.2,269.5,278.3,261.7,268.9,261.7z M325.1,331.7c16.7-15.5,27.6-35.8,31.3-58.2c1.3-8.5,9.4-14.4,18-12.9
		c8.5,1.3,14.2,9.4,12.9,18c-4.9,29.4-19,55.6-41.1,76c-2.9,2.7-6.9,4-10.5,4.2c-4.3,0-8.4-1.7-11.4-5
		C318.3,347.5,318.8,337.6,325.1,331.7z"/>
</g>
</svg>
