<?xml version="1.0" encoding="utf-8"?>
<!-- Generator: Adobe Illustrator 26.5.0, SVG Export Plug-In . SVG Version: 6.00 Build 0)  -->
<svg version="1.1" id="Layer_1" xmlns="http://www.w3.org/2000/svg" xmlns:xlink="http://www.w3.org/1999/xlink" x="0px" y="0px"
	 viewBox="0 0 481.6 481.6" style="enable-background:new 0 0 481.6 481.6;" xml:space="preserve">
<style type="text/css">
	.st0{fill:none;}
</style>
<g>
	<path class="st0" d="M14.2,285.8c0.1,0.3,0.2,0.7,0.4,1c0.1,0.2,0.2,0.5,0.3,0.7c0.1,0.3,0.3,0.6,0.4,0.9c0.1,0.2,0.2,0.4,0.4,0.7
		c0.2,0.3,0.3,0.6,0.5,0.8c0.1,0.2,0.3,0.4,0.4,0.6c0.2,0.3,0.4,0.5,0.6,0.8c0.2,0.2,0.3,0.4,0.5,0.6c0.2,0.3,0.4,0.5,0.7,0.7
		c0.2,0.2,0.3,0.3,0.5,0.5c0.3,0.3,0.5,0.5,0.8,0.7c0.2,0.1,0.3,0.3,0.5,0.4c0.4,0.4,0.9,0.7,1.3,1c0.1,0.1,0.2,0.1,0.3,0.2
		c0.4,0.3,0.8,0.5,1.2,0.7c0.2,0.1,0.4,0.2,0.6,0.3c0.3,0.2,0.6,0.3,1,0.5c0.2,0.1,0.4,0.2,0.6,0.3c0.3,0.1,0.6,0.2,1,0.4
		c0.2,0.1,0.5,0.1,0.7,0.2c0.3,0.1,0.6,0.2,1,0.3c0.2,0.1,0.5,0.1,0.7,0.2c0.3,0.1,0.7,0.1,1,0.2c0.2,0,0.5,0.1,0.7,0.1
		c0.4,0,0.7,0.1,1.1,0.1c0.2,0,0.4,0,0.7,0c0.4,0,0.8,0,1.2,0c0.2,0,0.4,0,0.6,0c0.6-0.1,1.2-0.1,1.8-0.2
		c10.2-1.8,16.9-11.7,15.1-21.7c-0.3-1.4-0.5-2.9-0.8-4.3c-0.1-0.4-0.1-0.7-0.2-1.1c-0.2-1.1-0.3-2.2-0.5-3.3
		c-0.1-0.4-0.1-0.8-0.2-1.2c-0.2-1.3-0.3-2.6-0.5-3.9c-0.1-0.6-0.1-1.3-0.2-1.9c-0.1-0.7-0.1-1.4-0.2-2.1c-0.1-0.8-0.1-1.6-0.2-2.3
		c0-0.5-0.1-1-0.1-1.5c-0.1-1.7-0.2-3.4-0.3-5.1c0-0.2,0-0.4,0-0.6c0,0,0-0.1,0-0.1c0-1.1-0.1-2.1-0.1-3.2c0-0.3,0-0.7,0-1
		c0-1,0-2.1,0-3.1c0-0.3,0-0.7,0-1c0-1.1,0-2.2,0-3.2c0-0.1,0-0.1,0-0.2c0.1-3.6,0.2-7.2,0.5-10.7c0-0.4,0-0.7,0.1-1.1
		c0.1-1,0.2-2,0.3-2.9c0-0.4,0.1-0.9,0.1-1.3c0.1-1,0.2-1.9,0.3-2.9c0-0.4,0.1-0.8,0.1-1.2c0.4-3.2,0.9-6.3,1.4-9.5
		c0.1-0.4,0.1-0.9,0.2-1.3c0.2-0.9,0.3-1.7,0.5-2.6c0.1-0.6,0.2-1.1,0.3-1.7c0.2-0.8,0.3-1.6,0.5-2.4c0.1-0.6,0.3-1.2,0.4-1.8
		c0.2-0.8,0.4-1.6,0.5-2.4c0.2-0.6,0.3-1.3,0.5-1.9c0.3-1.2,0.6-2.3,0.9-3.5c0.2-0.8,0.5-1.7,0.7-2.5c0.2-0.7,0.4-1.3,0.6-2
		c0.2-0.7,0.4-1.4,0.7-2.2c0.2-0.7,0.4-1.3,0.6-2c0.2-0.7,0.5-1.5,0.7-2.2c0.2-0.6,0.4-1.3,0.6-1.9c0.3-0.8,0.6-1.6,0.9-2.4
		c0.2-0.6,0.4-1.1,0.6-1.7c0.5-1.3,1-2.6,1.5-3.9c0.1-0.3,0.2-0.6,0.4-0.9c0.4-1.1,0.9-2.1,1.3-3.2c0.2-0.5,0.4-1,0.6-1.5
		c0.4-0.9,0.8-1.7,1.2-2.6c0.2-0.5,0.5-1,0.7-1.5c0.4-0.9,0.8-1.7,1.2-2.6c0.2-0.5,0.4-0.9,0.7-1.4c0.5-1.1,1.1-2.1,1.6-3.2
		c0.1-0.3,0.3-0.5,0.4-0.8c0.7-1.3,1.4-2.6,2.1-3.9c0.1-0.3,0.3-0.5,0.4-0.8c0.6-1,1.2-2.1,1.8-3.1c0.2-0.4,0.5-0.8,0.7-1.2
		c0.5-0.9,1.1-1.8,1.6-2.7c0.2-0.4,0.5-0.8,0.7-1.2c0.6-0.9,1.2-1.9,1.8-2.8c0.2-0.3,0.4-0.6,0.6-1c0.8-1.3,1.7-2.5,2.5-3.8
		c29.4-42.7,73.4-71.3,124.2-80.9c0.1,0,0.3,0,0.4-0.1c1.4-0.3,2.8-0.5,4.2-0.7c0.5-0.1,1.1-0.2,1.6-0.2c1-0.2,2-0.3,3-0.4
		c0.6-0.1,1.2-0.2,1.9-0.2c0.9-0.1,1.9-0.2,2.8-0.3c0.7-0.1,1.3-0.1,2-0.2c0.9-0.1,1.8-0.2,2.7-0.3c0.7-0.1,1.3-0.1,2-0.2
		c0.9-0.1,1.8-0.1,2.6-0.2c0.7,0,1.4-0.1,2.1-0.1c0.9,0,1.7-0.1,2.6-0.1c0.7,0,1.4-0.1,2.1-0.1c0.9,0,1.7-0.1,2.6-0.1
		c0.7,0,1.4,0,2.1,0c0.5,0,0.9,0,1.4,0c0.5,0,0.9,0,1.4,0c0.5,0,0.9,0,1.4,0c1.2,0,2.3,0,3.5,0.1c0.3,0,0.6,0,0.8,0
		c1.4,0.1,2.8,0.1,4.2,0.2c0.4,0,0.8,0.1,1.2,0.1c1.1,0.1,2.1,0.1,3.1,0.2c0.5,0,0.9,0.1,1.4,0.1c1.1,0.1,2.1,0.2,3.2,0.3
		c0.4,0,0.8,0.1,1.1,0.1c1.4,0.2,2.8,0.3,4.2,0.5c0.3,0,0.7,0.1,1,0.1c1.1,0.2,2.2,0.3,3.2,0.5c0.5,0.1,0.9,0.2,1.4,0.2
		c1,0.2,2,0.3,3,0.5c0.4,0.1,0.8,0.2,1.3,0.2c1.4,0.3,2.7,0.5,4.1,0.8c0.2,0,0.5,0.1,0.7,0.1c1.2,0.2,2.3,0.5,3.5,0.8
		c0.5,0.1,0.9,0.2,1.4,0.3c1,0.2,1.9,0.5,2.9,0.7c0.4,0.1,0.9,0.2,1.3,0.3c1.3,0.3,2.5,0.7,3.8,1c0.1,0,0.2,0.1,0.3,0.1
		c1.3,0.4,2.7,0.8,4,1.2c0.4,0.1,0.8,0.3,1.3,0.4c1,0.3,1.9,0.6,2.9,1c0.4,0.1,0.9,0.3,1.3,0.5c1.1,0.4,2.2,0.8,3.3,1.2
		c0.2,0.1,0.5,0.2,0.7,0.3c1.3,0.5,2.7,1,4,1.5c0.4,0.1,0.7,0.3,1.1,0.4c1,0.4,2,0.8,3,1.2c0.4,0.2,0.8,0.4,1.3,0.5
		c1,0.4,2,0.9,3.1,1.4c0.3,0.1,0.6,0.3,0.9,0.4c1.3,0.6,2.6,1.2,3.9,1.9c0.3,0.1,0.5,0.3,0.8,0.4c1,0.5,2.1,1,3.1,1.6
		c0.4,0.2,0.8,0.4,1.2,0.6c1,0.5,2,1,2.9,1.6c0.3,0.2,0.6,0.3,1,0.5c1.3,0.7,2.6,1.4,3.8,2.2c0.1,0.1,0.3,0.2,0.4,0.2
		c1.1,0.7,2.3,1.3,3.4,2c0.4,0.2,0.7,0.4,1,0.7c0.9,0.6,1.9,1.2,2.8,1.8c0.3,0.2,0.7,0.4,1,0.6c1.2,0.8,2.5,1.6,3.7,2.5
		c88.2,60.5,110.6,181.2,50.1,269.3c-0.1,0.1-0.2,0.2-0.3,0.4c-1,1.4-2,2.8-3,4.2c-0.4,0.5-0.8,1.1-1.2,1.6c-0.7,1-1.5,2-2.2,3
		c-0.4,0.6-0.9,1.1-1.3,1.7c-0.8,1-1.5,1.9-2.3,2.8c-0.4,0.5-0.8,1-1.3,1.6c-1,1.2-2,2.3-3,3.4c-0.2,0.3-0.4,0.5-0.7,0.8
		c-1.2,1.4-2.4,2.7-3.7,4c-0.4,0.5-0.9,0.9-1.3,1.3c-0.8,0.9-1.7,1.8-2.6,2.6c-0.5,0.5-1,1-1.5,1.5c-0.8,0.8-1.7,1.6-2.5,2.4
		c-0.5,0.5-1,0.9-1.5,1.4c-1,0.9-2,1.9-3.1,2.8c-0.3,0.3-0.7,0.6-1,0.9c-1.3,1.2-2.7,2.3-4.1,3.4c-0.5,0.4-0.9,0.7-1.4,1.1
		c-1,0.8-1.9,1.5-2.9,2.3c-0.5,0.4-1.1,0.8-1.7,1.3c-0.9,0.7-1.8,1.4-2.7,2.1c-0.5,0.4-1.1,0.8-1.7,1.2c-1,0.7-2.1,1.5-3.2,2.2
		c-0.4,0.3-0.8,0.6-1.3,0.9c-1.5,1-2.9,1.9-4.4,2.9c-0.5,0.3-0.9,0.6-1.4,0.9c-1.1,0.7-2.1,1.3-3.2,2c-0.6,0.3-1.2,0.7-1.8,1
		c-1,0.6-2,1.1-2.9,1.7c-0.6,0.3-1.2,0.7-1.8,1c-1.1,0.6-2.2,1.2-3.2,1.7c-0.5,0.3-1,0.5-1.5,0.8c-1.5,0.8-3.1,1.6-4.7,2.3
		c-0.4,0.2-0.8,0.4-1.3,0.6c-1.2,0.6-2.4,1.1-3.6,1.6c-0.6,0.3-1.2,0.5-1.8,0.8c-1,0.5-2.1,0.9-3.1,1.3c-0.6,0.3-1.2,0.5-1.9,0.8
		c-1.1,0.4-2.2,0.9-3.4,1.3c-0.5,0.2-1.1,0.4-1.6,0.6c-1.6,0.6-3.3,1.2-4.9,1.7c-0.3,0.1-0.7,0.2-1,0.3c-1.3,0.4-2.7,0.9-4,1.3
		c-0.6,0.2-1.2,0.4-1.8,0.5c-1.1,0.3-2.2,0.7-3.3,1c-0.6,0.2-1.3,0.4-1.9,0.5c-1.2,0.3-2.3,0.6-3.5,0.9c-0.6,0.1-1.1,0.3-1.7,0.4
		c-1.7,0.4-3.4,0.8-5.1,1.2c-0.2,0-0.4,0.1-0.5,0.1c-1.5,0.3-3.1,0.6-4.7,0.9c-0.6,0.1-1.2,0.2-1.7,0.3c-1.2,0.2-2.4,0.4-3.5,0.6
		c-0.6,0.1-1.3,0.2-1.9,0.3c-1.2,0.2-2.4,0.3-3.6,0.5c-0.6,0.1-1.1,0.1-1.7,0.2c-1.6,0.2-3.3,0.4-4.9,0.5c-0.1,0-0.2,0-0.4,0
		c-1.8,0.2-3.5,0.3-5.3,0.4c-0.5,0-1.1,0.1-1.6,0.1c-1.2,0.1-2.5,0.1-3.7,0.2c-0.6,0-1.2,0-1.9,0.1c-1.2,0-2.4,0-3.6,0.1
		c-0.4,0-0.8,0-1.2,0c-0.3,0-0.5,0-0.8,0c-0.4,0-0.9,0-1.3,0c-1,0-2,0-3.1-0.1c-0.4,0-0.8,0-1.3,0c-1.4,0-2.8-0.1-4.2-0.2
		c-0.1,0-0.2,0-0.3,0c-1.3-0.1-2.6-0.2-3.9-0.3c-0.4,0-0.9-0.1-1.3-0.1c-1-0.1-2-0.2-3-0.3c-0.4,0-0.9-0.1-1.3-0.1
		c-1.3-0.1-2.5-0.3-3.8-0.4c-0.1,0-0.3,0-0.4,0c-1.4-0.2-2.8-0.4-4.1-0.6c-0.4-0.1-0.9-0.1-1.3-0.2c-1-0.2-2-0.3-3-0.5
		c-0.5-0.1-0.9-0.2-1.4-0.2c-1.1-0.2-2.3-0.4-3.4-0.6c-0.3-0.1-0.5-0.1-0.8-0.2c-1.4-0.3-2.7-0.6-4.1-0.9c-0.4-0.1-0.9-0.2-1.3-0.3
		c-1-0.2-1.9-0.5-2.9-0.7c-0.5-0.1-1-0.2-1.4-0.4c-1-0.3-2.1-0.5-3.1-0.8c-0.3-0.1-0.7-0.2-1-0.3c-1.3-0.4-2.7-0.8-4-1.2
		c-0.4-0.1-0.8-0.3-1.2-0.4c-1-0.3-1.9-0.6-2.9-0.9c-0.5-0.2-1-0.3-1.4-0.5c-1-0.3-2-0.7-2.9-1c-0.4-0.1-0.8-0.3-1.2-0.4
		c-1.3-0.5-2.6-1-3.9-1.5c-0.4-0.1-0.7-0.3-1.1-0.4c-1-0.4-2-0.8-3-1.2c-0.5-0.2-0.9-0.4-1.4-0.6c-0.9-0.4-1.9-0.8-2.8-1.2
		c-0.4-0.2-0.8-0.4-1.2-0.6c-1.3-0.6-2.6-1.2-3.9-1.8c-0.3-0.1-0.6-0.3-0.9-0.5c-1-0.5-2-1-3-1.5c-0.5-0.2-0.9-0.5-1.4-0.7
		c-0.9-0.5-1.8-0.9-2.7-1.4c-0.4-0.2-0.8-0.5-1.3-0.7c-1.3-0.7-2.5-1.4-3.8-2.1c-0.2-0.1-0.4-0.3-0.7-0.4c-1.1-0.6-2.1-1.2-3.2-1.9
		c-0.4-0.3-0.9-0.5-1.3-0.8c-0.9-0.5-1.7-1.1-2.6-1.6c-0.4-0.3-0.8-0.5-1.3-0.8c-1.2-0.8-2.3-1.5-3.4-2.3c-0.1-0.1-0.2-0.1-0.3-0.2
		c-24.4-16.7-44.2-38.2-58.7-63.8c-0.6-1.1-1.2-2.2-1.8-3.3c-0.3-0.6-0.6-1.2-0.9-1.8c-0.2-0.4-0.5-0.8-0.7-1.3c0,0,0-0.1-0.1-0.1
		c-0.5-0.9-1-1.9-1.5-2.8c-0.2-0.3-0.3-0.6-0.5-0.9c-0.4-0.8-0.8-1.5-1.1-2.3c-0.2-0.4-0.4-0.9-0.6-1.3c-0.7-1.6-1.5-3.2-2.2-4.8
		c-0.2-0.5-0.5-1.1-0.8-1.6c-0.1-0.1-0.1-0.3-0.2-0.4c-0.2-0.4-0.5-0.8-0.7-1.1c-0.1-0.1-0.2-0.2-0.2-0.3c-0.3-0.5-0.7-0.9-1-1.3
		c0,0,0,0,0,0c-0.4-0.4-0.7-0.8-1.1-1.2c-0.1-0.1-0.2-0.2-0.3-0.3c-0.3-0.3-0.6-0.6-1-0.8c-0.1-0.1-0.2-0.2-0.3-0.2
		c-0.4-0.3-0.9-0.7-1.3-0.9c0,0-0.1-0.1-0.1-0.1c-0.4-0.3-0.8-0.5-1.3-0.7c-0.1-0.1-0.3-0.1-0.4-0.2c-0.4-0.2-0.8-0.4-1.2-0.5
		c-0.1,0-0.2-0.1-0.4-0.1c-0.5-0.2-1-0.4-1.5-0.5c-0.1,0-0.2,0-0.3-0.1c-0.4-0.1-0.9-0.2-1.3-0.3c-0.2,0-0.3-0.1-0.5-0.1
		c-0.4-0.1-0.8-0.1-1.3-0.2c-0.1,0-0.3,0-0.4,0c-0.5,0-1.1-0.1-1.6-0.1c-0.4,0-0.7,0-1.1,0.1c-0.3,0-0.5,0-0.8,0
		c-0.4,0-0.8,0.1-1.1,0.2c-0.2,0-0.5,0.1-0.7,0.1c-0.4,0.1-0.9,0.2-1.3,0.3c-0.2,0-0.3,0.1-0.5,0.1c-0.6,0.2-1.2,0.4-1.8,0.7
		c-9.3,4.1-13.8,15.2-9.7,24.6c0.9,1.8,1.6,3.8,2.5,5.7c0.1,0.3,0.2,0.5,0.4,0.8c0.7,1.5,1.5,3,2.2,4.5c0.1,0.2,0.2,0.5,0.3,0.7
		c0.9,1.8,1.8,3.5,2.7,5.3c0.9,1.8,1.9,3.6,2.9,5.3c17.4,30.5,40.9,56.2,70.2,76.1c39.9,27.4,85.3,40.4,130.4,40.4
		c73.6,0,146.1-35,190.9-100.4c72.2-105,45.3-249.2-59.8-321.4c-39-26.5-84-40.3-130.1-40.3c-14.3,0-28.7,1.3-43,4
		C138,25.1,85.1,59.3,50.2,110.2C22.9,149.9,9,196.1,9.6,243.4c0,0,0,0.1,0,0.1c0.2,13.2,1.5,26.6,3.9,39.9c0,0.1,0,0.2,0.1,0.3
		c0.1,0.5,0.2,1,0.3,1.4C14,285.4,14.1,285.6,14.2,285.8z"/>
	<path class="st0" d="M9.6,243.5c0,0,0-0.1,0-0.1C9.6,243.5,9.6,243.5,9.6,243.5z"/>
	<path class="st0" d="M343.2,371c4.4-0.2,9.1-1.8,12.6-5c26.4-24.4,43.4-55.8,49.2-91c1.6-10.2-5.2-19.9-15.4-21.5
		c-10.2-1.8-19.9,5.2-21.5,15.4c-4.5,26.9-17.6,51.1-37.5,69.7c-7.5,7-8.1,18.9-1.2,26.4C333.2,369,338.2,371,343.2,371z"/>
	<path class="st0" d="M263.4,296.3H214c-11.3,0-20.7-9.3-20.7-20.7c0-10.4-8.4-18.7-18.7-18.7c-10.4,0-18.7,8.4-18.7,18.7
		c0,32.1,26,58.1,58.1,58.1h6v21.2c0,10.4,8.4,18.7,18.7,18.7c10.4,0,18.7-8.4,18.7-18.7v-21.2h6c32.1,0,58.1-26,58.1-58.1
		c0-32.1-26-58.1-58.1-58.1H214c-11.3,0-20.7-9.3-20.7-20.7c0-11.4,9.3-20.7,20.7-20.7h49.4c11.3,0,20.7,9.3,20.7,20.7
		c0,10.4,8.4,18.7,18.7,18.7s18.7-8.4,18.7-18.7c0-32.1-26-58.1-58.1-58.1h-6v-16.5c0-10.4-8.4-18.7-18.7-18.7
		c-10.4,0-18.7,8.4-18.7,18.7v16.5h-6c-32.1,0-58.1,26-58.1,58.1c0,32.1,26,58.1,58.1,58.1h49.4c11.3,0,20.7,9.3,20.7,20.7
		C284,286.9,274.9,296.3,263.4,296.3z"/>
	<path d="M477.5,196.6c-5.7-30.8-17.1-59.6-33.9-85.9c-17.4-27.2-39.7-50.3-66.5-68.6c0,0,0,0,0,0c-40.5-27.5-87.3-42-135.5-42v9.6
		l0-9.6c-14.9,0-30,1.4-44.8,4.2C133.5,16.2,78.6,51.9,42.3,104.7C6,157.6-7.6,221.7,4.1,285.2c1.5,8.1,6.5,14.9,13.2,18.9
		c1,3.2,2.1,6.4,3.2,9.5c-3.4,7.1-3.8,15.6-0.4,23.4c0,0.1,0.1,0.2,0.1,0.3c0.3,0.7,0.7,1.6,1.1,2.5c0.4,1,0.9,2.1,1.4,3.2
		c0,0,0,0.1,0.1,0.1l0.7,1.3c2.5,5.1,5.1,10.4,8.2,15.7c18.3,32.1,42.9,58.8,73.1,79.3c40.2,27.5,87.1,42.1,135.8,42.1
		c38.4,0,76.6-9.3,110.6-26.8c35.2-18.1,65.7-45,88.2-77.8c18.4-26.7,30.9-56.3,37.4-87.9C483,258.4,483.2,227.3,477.5,196.6z
		 M431.5,371.3c-44.8,65.4-117.3,100.4-190.9,100.4c-45.1,0-90.5-13.1-130.4-40.4c-29.3-19.9-52.8-45.6-70.2-76.1
		c-1-1.8-2-3.6-2.9-5.3c-0.9-1.8-1.8-3.5-2.7-5.3c-0.1-0.2-0.2-0.5-0.3-0.7c-0.7-1.5-1.5-3-2.2-4.5c-0.1-0.3-0.2-0.5-0.4-0.8
		c-0.9-1.8-1.6-3.8-2.5-5.7c-4.1-9.4,0.4-20.4,9.7-24.6c0.6-0.3,1.2-0.5,1.8-0.7c0.2-0.1,0.3-0.1,0.5-0.1c0.4-0.1,0.9-0.3,1.3-0.3
		c0.2,0,0.5-0.1,0.7-0.1c0.4-0.1,0.8-0.1,1.1-0.2c0.3,0,0.5,0,0.8,0c0.4,0,0.7-0.1,1.1-0.1c0.5,0,1.1,0,1.6,0.1c0.1,0,0.3,0,0.4,0
		c0.4,0,0.8,0.1,1.3,0.2c0.2,0,0.3,0.1,0.5,0.1c0.4,0.1,0.9,0.2,1.3,0.3c0.1,0,0.2,0,0.3,0.1c0.5,0.2,1,0.3,1.5,0.5
		c0.1,0,0.2,0.1,0.4,0.1c0.4,0.2,0.8,0.3,1.2,0.5c0.1,0.1,0.3,0.1,0.4,0.2c0.4,0.2,0.9,0.5,1.3,0.7c0,0,0.1,0.1,0.1,0.1
		c0.5,0.3,0.9,0.6,1.3,0.9c0.1,0.1,0.2,0.2,0.3,0.2c0.3,0.3,0.7,0.5,1,0.8c0.1,0.1,0.2,0.2,0.3,0.3c0.4,0.4,0.8,0.8,1.1,1.2
		c0,0,0,0,0,0c0.4,0.4,0.7,0.9,1,1.3c0.1,0.1,0.2,0.2,0.2,0.3c0.3,0.4,0.5,0.7,0.7,1.1c0.1,0.1,0.1,0.3,0.2,0.4
		c0.3,0.5,0.5,1,0.8,1.6c0.7,1.6,1.5,3.2,2.2,4.8c0.2,0.4,0.4,0.9,0.6,1.3c0.4,0.8,0.8,1.5,1.1,2.3c0.2,0.3,0.3,0.6,0.5,0.9
		c0.5,0.9,1,1.9,1.5,2.8c0,0,0,0.1,0.1,0.1c0.2,0.4,0.5,0.9,0.7,1.3c0.3,0.6,0.6,1.2,0.9,1.8c0.6,1.1,1.2,2.2,1.8,3.3
		c14.5,25.6,34.4,47.1,58.7,63.8c0.1,0.1,0.2,0.1,0.3,0.2c1.1,0.8,2.3,1.5,3.4,2.3c0.4,0.3,0.8,0.5,1.3,0.8c0.9,0.6,1.7,1.1,2.6,1.6
		c0.4,0.3,0.9,0.5,1.3,0.8c1.1,0.6,2.1,1.3,3.2,1.9c0.2,0.1,0.4,0.3,0.7,0.4c1.3,0.7,2.5,1.4,3.8,2.1c0.4,0.2,0.8,0.5,1.3,0.7
		c0.9,0.5,1.8,1,2.7,1.4c0.5,0.2,0.9,0.5,1.4,0.7c1,0.5,2,1,3,1.5c0.3,0.1,0.6,0.3,0.9,0.5c1.3,0.6,2.6,1.2,3.9,1.8
		c0.4,0.2,0.8,0.4,1.2,0.6c0.9,0.4,1.9,0.8,2.8,1.2c0.5,0.2,0.9,0.4,1.4,0.6c1,0.4,2,0.8,3,1.2c0.4,0.1,0.7,0.3,1.1,0.4
		c1.3,0.5,2.6,1,3.9,1.5c0.4,0.1,0.8,0.3,1.2,0.4c1,0.3,1.9,0.7,2.9,1c0.5,0.2,1,0.3,1.4,0.5c1,0.3,1.9,0.6,2.9,0.9
		c0.4,0.1,0.8,0.3,1.2,0.4c1.3,0.4,2.7,0.8,4,1.2c0.3,0.1,0.7,0.2,1,0.3c1,0.3,2.1,0.6,3.1,0.8c0.5,0.1,1,0.2,1.4,0.4
		c1,0.2,1.9,0.5,2.9,0.7c0.4,0.1,0.9,0.2,1.3,0.3c1.4,0.3,2.7,0.6,4.1,0.9c0.3,0.1,0.5,0.1,0.8,0.2c1.1,0.2,2.3,0.4,3.4,0.6
		c0.5,0.1,0.9,0.2,1.4,0.2c1,0.2,2,0.3,3,0.5c0.4,0.1,0.9,0.1,1.3,0.2c1.4,0.2,2.8,0.4,4.1,0.6c0.1,0,0.3,0,0.4,0
		c1.3,0.2,2.5,0.3,3.8,0.4c0.4,0,0.9,0.1,1.3,0.1c1,0.1,2,0.2,3,0.3c0.4,0,0.9,0.1,1.3,0.1c1.3,0.1,2.6,0.2,3.9,0.3
		c0.1,0,0.2,0,0.3,0c1.4,0.1,2.8,0.1,4.2,0.2c0.4,0,0.8,0,1.3,0c1,0,2,0,3.1,0.1c0.4,0,0.9,0,1.3,0c0.3,0,0.5,0,0.8,0
		c0.4,0,0.8,0,1.2,0c1.2,0,2.4,0,3.6-0.1c0.6,0,1.3,0,1.9-0.1c1.2,0,2.5-0.1,3.7-0.2c0.5,0,1.1-0.1,1.6-0.1c1.8-0.1,3.5-0.2,5.3-0.4
		c0.1,0,0.2,0,0.4,0c1.6-0.1,3.3-0.3,4.9-0.5c0.6-0.1,1.1-0.1,1.7-0.2c1.2-0.1,2.4-0.3,3.6-0.5c0.6-0.1,1.3-0.2,1.9-0.3
		c1.2-0.2,2.4-0.4,3.5-0.6c0.6-0.1,1.2-0.2,1.7-0.3c1.6-0.3,3.1-0.6,4.7-0.9c0.2,0,0.4-0.1,0.5-0.1c1.7-0.4,3.4-0.7,5.1-1.2
		c0.6-0.1,1.1-0.3,1.7-0.4c1.2-0.3,2.3-0.6,3.5-0.9c0.6-0.2,1.3-0.3,1.9-0.5c1.1-0.3,2.2-0.6,3.3-1c0.6-0.2,1.2-0.4,1.8-0.5
		c1.3-0.4,2.7-0.8,4-1.3c0.3-0.1,0.7-0.2,1-0.3c1.6-0.6,3.3-1.1,4.9-1.7c0.5-0.2,1.1-0.4,1.6-0.6c1.1-0.4,2.2-0.9,3.4-1.3
		c0.6-0.2,1.2-0.5,1.9-0.8c1.1-0.4,2.1-0.9,3.1-1.3c0.6-0.3,1.2-0.5,1.8-0.8c1.2-0.5,2.4-1.1,3.6-1.6c0.4-0.2,0.8-0.4,1.3-0.6
		c1.6-0.7,3.1-1.5,4.7-2.3c0.5-0.3,1-0.5,1.5-0.8c1.1-0.6,2.2-1.1,3.2-1.7c0.6-0.3,1.2-0.7,1.8-1c1-0.6,2-1.1,2.9-1.7
		c0.6-0.3,1.2-0.7,1.8-1c1.1-0.6,2.1-1.3,3.2-2c0.5-0.3,0.9-0.6,1.4-0.9c1.5-0.9,2.9-1.9,4.4-2.9c0.4-0.3,0.8-0.6,1.3-0.9
		c1.1-0.7,2.1-1.5,3.2-2.2c0.6-0.4,1.1-0.8,1.7-1.2c0.9-0.7,1.8-1.4,2.7-2.1c0.6-0.4,1.1-0.8,1.7-1.3c1-0.8,1.9-1.5,2.9-2.3
		c0.5-0.4,0.9-0.7,1.4-1.1c1.4-1.1,2.7-2.3,4.1-3.4c0.3-0.3,0.7-0.6,1-0.9c1-0.9,2-1.8,3.1-2.8c0.5-0.5,1-0.9,1.5-1.4
		c0.9-0.8,1.7-1.6,2.5-2.4c0.5-0.5,1-1,1.5-1.5c0.9-0.9,1.7-1.7,2.6-2.6c0.4-0.4,0.9-0.9,1.3-1.3c1.2-1.3,2.5-2.6,3.7-4
		c0.2-0.3,0.4-0.5,0.7-0.8c1-1.1,2-2.3,3-3.4c0.4-0.5,0.9-1,1.3-1.6c0.8-0.9,1.5-1.9,2.3-2.8c0.4-0.6,0.9-1.1,1.3-1.7
		c0.8-1,1.5-2,2.2-3c0.4-0.5,0.8-1.1,1.2-1.6c1-1.4,2-2.8,3-4.2c0.1-0.1,0.2-0.2,0.3-0.4c60.5-88.1,38.1-208.9-50.1-269.3
		c-1.2-0.8-2.5-1.7-3.7-2.5c-0.3-0.2-0.6-0.4-1-0.6c-0.9-0.6-1.9-1.2-2.8-1.8c-0.3-0.2-0.7-0.4-1-0.7c-1.1-0.7-2.2-1.4-3.4-2
		c-0.1-0.1-0.3-0.2-0.4-0.2c-1.3-0.7-2.5-1.5-3.8-2.2c-0.3-0.2-0.6-0.3-1-0.5c-1-0.5-1.9-1.1-2.9-1.6c-0.4-0.2-0.8-0.4-1.2-0.6
		c-1-0.5-2.1-1.1-3.1-1.6c-0.3-0.1-0.5-0.3-0.8-0.4c-1.3-0.6-2.6-1.2-3.9-1.9c-0.3-0.1-0.6-0.3-0.9-0.4c-1-0.5-2-0.9-3.1-1.4
		c-0.4-0.2-0.8-0.4-1.3-0.5c-1-0.4-2-0.8-3-1.2c-0.4-0.1-0.7-0.3-1.1-0.4c-1.3-0.5-2.6-1-4-1.5c-0.2-0.1-0.5-0.2-0.7-0.3
		c-1.1-0.4-2.2-0.8-3.3-1.2c-0.4-0.2-0.9-0.3-1.3-0.5c-1-0.3-1.9-0.6-2.9-1c-0.4-0.1-0.8-0.3-1.3-0.4c-1.3-0.4-2.7-0.8-4-1.2
		c-0.1,0-0.2-0.1-0.3-0.1c-1.3-0.4-2.5-0.7-3.8-1c-0.4-0.1-0.9-0.2-1.3-0.3c-1-0.3-1.9-0.5-2.9-0.7c-0.5-0.1-0.9-0.2-1.4-0.3
		c-1.2-0.3-2.3-0.5-3.5-0.8c-0.2,0-0.5-0.1-0.7-0.1c-1.4-0.3-2.7-0.6-4.1-0.8c-0.4-0.1-0.8-0.2-1.3-0.2c-1-0.2-2-0.4-3-0.5
		c-0.5-0.1-0.9-0.2-1.4-0.2c-1.1-0.2-2.2-0.3-3.2-0.5c-0.3,0-0.7-0.1-1-0.1c-1.4-0.2-2.8-0.4-4.2-0.5c-0.4,0-0.8-0.1-1.1-0.1
		c-1.1-0.1-2.1-0.2-3.2-0.3c-0.5,0-0.9-0.1-1.4-0.1c-1-0.1-2.1-0.2-3.1-0.2c-0.4,0-0.8-0.1-1.2-0.1c-1.4-0.1-2.8-0.2-4.2-0.2
		c-0.3,0-0.6,0-0.8,0c-1.2,0-2.3-0.1-3.5-0.1c-0.5,0-0.9,0-1.4,0c-0.5,0-0.9,0-1.4,0c-0.5,0-0.9,0-1.4,0c-0.7,0-1.4,0-2.1,0
		c-0.9,0-1.7,0-2.6,0.1c-0.7,0-1.4,0-2.1,0.1c-0.9,0-1.7,0.1-2.6,0.1c-0.7,0-1.4,0.1-2.1,0.1c-0.9,0.1-1.8,0.1-2.6,0.2
		c-0.7,0.1-1.3,0.1-2,0.2c-0.9,0.1-1.8,0.2-2.7,0.3c-0.7,0.1-1.3,0.1-2,0.2c-0.9,0.1-1.9,0.2-2.8,0.3c-0.6,0.1-1.2,0.2-1.9,0.2
		c-1,0.1-2,0.3-3,0.4c-0.5,0.1-1.1,0.2-1.6,0.2c-1.4,0.2-2.8,0.5-4.2,0.7c-0.1,0-0.3,0-0.4,0.1c-50.8,9.6-94.8,38.2-124.2,80.9
		c-0.9,1.2-1.7,2.5-2.5,3.8c-0.2,0.3-0.4,0.6-0.6,1c-0.6,0.9-1.2,1.9-1.8,2.8c-0.2,0.4-0.5,0.8-0.7,1.2c-0.6,0.9-1.1,1.8-1.6,2.7
		c-0.2,0.4-0.5,0.8-0.7,1.2c-0.6,1-1.2,2.1-1.8,3.1c-0.1,0.3-0.3,0.5-0.4,0.8c-0.7,1.3-1.4,2.6-2.1,3.9c-0.1,0.3-0.3,0.5-0.4,0.8
		c-0.5,1-1.1,2.1-1.6,3.2c-0.2,0.5-0.4,0.9-0.7,1.4c-0.4,0.9-0.8,1.7-1.2,2.6c-0.2,0.5-0.5,1-0.7,1.5c-0.4,0.9-0.8,1.7-1.2,2.6
		c-0.2,0.5-0.4,1-0.6,1.5c-0.4,1.1-0.9,2.1-1.3,3.2c-0.1,0.3-0.2,0.6-0.4,0.9c-0.5,1.3-1,2.6-1.5,3.9c-0.2,0.6-0.4,1.1-0.6,1.7
		c-0.3,0.8-0.6,1.6-0.9,2.4c-0.2,0.6-0.4,1.3-0.6,1.9c-0.2,0.7-0.5,1.5-0.7,2.2c-0.2,0.7-0.4,1.3-0.6,2c-0.2,0.7-0.4,1.4-0.7,2.2
		c-0.2,0.7-0.4,1.3-0.6,2c-0.2,0.8-0.5,1.7-0.7,2.5c-0.3,1.2-0.6,2.3-0.9,3.5c-0.2,0.6-0.3,1.3-0.5,1.9c-0.2,0.8-0.4,1.6-0.5,2.4
		c-0.1,0.6-0.3,1.2-0.4,1.8c-0.2,0.8-0.3,1.6-0.5,2.4c-0.1,0.6-0.2,1.1-0.3,1.7c-0.2,0.9-0.3,1.7-0.5,2.6c-0.1,0.4-0.2,0.9-0.2,1.3
		c-0.5,3.2-1,6.3-1.4,9.5c0,0.4-0.1,0.8-0.1,1.2c-0.1,1-0.2,1.9-0.3,2.9c0,0.4-0.1,0.9-0.1,1.3c-0.1,1-0.2,2-0.3,2.9
		c0,0.4-0.1,0.7-0.1,1.1c-0.3,3.6-0.4,7.1-0.5,10.7c0,0.1,0,0.1,0,0.2c0,1.1,0,2.2,0,3.2c0,0.3,0,0.7,0,1c0,1,0,2.1,0,3.1
		c0,0.3,0,0.7,0,1c0,1.1,0.1,2.1,0.1,3.2c0,0,0,0.1,0,0.1c0,0.2,0,0.4,0,0.6c0.1,1.7,0.2,3.4,0.3,5.1c0,0.5,0.1,1,0.1,1.5
		c0.1,0.8,0.1,1.6,0.2,2.3c0.1,0.7,0.1,1.4,0.2,2.1c0.1,0.6,0.1,1.3,0.2,1.9c0.1,1.3,0.3,2.6,0.5,3.9c0.1,0.4,0.1,0.8,0.2,1.2
		c0.2,1.1,0.3,2.2,0.5,3.3c0.1,0.4,0.1,0.7,0.2,1.1c0.2,1.4,0.5,2.9,0.8,4.3c1.8,10-4.9,19.9-15.1,21.7c-0.6,0.1-1.2,0.2-1.8,0.2
		c-0.2,0-0.4,0-0.6,0c-0.4,0-0.8,0-1.2,0c-0.2,0-0.5,0-0.7,0c-0.4,0-0.7,0-1.1-0.1c-0.2,0-0.5-0.1-0.7-0.1c-0.3,0-0.7-0.1-1-0.2
		c-0.2,0-0.5-0.1-0.7-0.2c-0.3-0.1-0.7-0.2-1-0.3c-0.2-0.1-0.5-0.1-0.7-0.2c-0.3-0.1-0.6-0.2-1-0.4c-0.2-0.1-0.4-0.2-0.6-0.3
		c-0.3-0.1-0.7-0.3-1-0.5c-0.2-0.1-0.4-0.2-0.6-0.3c-0.4-0.2-0.8-0.5-1.2-0.7c-0.1-0.1-0.2-0.1-0.3-0.2c-0.5-0.3-0.9-0.6-1.3-1
		c-0.2-0.1-0.3-0.3-0.5-0.4c-0.3-0.2-0.5-0.5-0.8-0.7c-0.2-0.2-0.3-0.3-0.5-0.5c-0.2-0.2-0.5-0.5-0.7-0.7c-0.2-0.2-0.3-0.4-0.5-0.6
		c-0.2-0.3-0.4-0.5-0.6-0.8c-0.1-0.2-0.3-0.4-0.4-0.6c-0.2-0.3-0.3-0.5-0.5-0.8c-0.1-0.2-0.2-0.4-0.4-0.7c-0.1-0.3-0.3-0.6-0.4-0.9
		c-0.1-0.2-0.2-0.5-0.3-0.7c-0.1-0.3-0.2-0.7-0.4-1c-0.1-0.2-0.2-0.4-0.2-0.7c-0.1-0.5-0.2-1-0.3-1.4c0-0.1,0-0.2-0.1-0.3
		c-2.5-13.3-3.8-26.6-3.9-39.9c0,0,0-0.1,0-0.1c0-0.2,0-0.5,0-0.7c0-0.4,0-0.9,0-1.3l0,0c-0.2-46.6,13.7-92.1,40.6-131.3
		c34.9-50.9,87.8-85,148.4-96.5c14.3-2.7,28.7-4,43-4c46.1,0,91.1,13.9,130.1,40.3C476.8,122.2,503.6,266.3,431.5,371.3z
		 M263.4,254.8H214c-32.1,0-58.1-26-58.1-58.1c0-32.1,26-58.1,58.1-58.1h6v-16.5c0-10.4,8.4-18.7,18.7-18.7
		c10.4,0,18.7,8.4,18.7,18.7v16.5h6c32.1,0,58.1,26,58.1,58.1c0,10.4-8.4,18.7-18.7,18.7s-18.7-8.4-18.7-18.7
		c0-11.4-9.4-20.7-20.7-20.7H214c-11.4,0-20.7,9.3-20.7,20.7c0,11.4,9.4,20.7,20.7,20.7h49.4c32.1,0,58.1,26,58.1,58.1
		c0,32.1-26,58.1-58.1,58.1h-6v21.2c0,10.4-8.4,18.7-18.7,18.7c-10.4,0-18.7-8.4-18.7-18.7v-21.2h-6c-32.1,0-58.1-26-58.1-58.1
		c0-10.4,8.4-18.7,18.7-18.7c10.4,0,18.7,8.4,18.7,18.7c0,11.4,9.4,20.7,20.7,20.7h49.4c11.5,0,20.6-9.4,20.7-20.7
		C284.1,264.1,274.7,254.8,263.4,254.8z M330.7,338.6c20-18.6,33-42.8,37.5-69.7c1.6-10.2,11.3-17.2,21.5-15.4
		c10.2,1.6,17,11.3,15.4,21.5c-5.9,35.2-22.8,66.6-49.2,91c-3.5,3.2-8.2,4.8-12.6,5c-5.1,0-10.1-2-13.7-6
		C322.6,357.5,323.2,345.6,330.7,338.6z"/>
</g>
</svg>
