<?xml version="1.0" encoding="utf-8"?>
<!-- Generator: Adobe Illustrator 26.5.0, SVG Export Plug-In . SVG Version: 6.00 Build 0)  -->
<svg version="1.1" id="Layer_1" xmlns="http://www.w3.org/2000/svg" xmlns:xlink="http://www.w3.org/1999/xlink" x="0px" y="0px"
	 viewBox="0 0 485 480" style="enable-background:new 0 0 485 480;" xml:space="preserve">
<style type="text/css">
	.st0{fill-rule:evenodd;clip-rule:evenodd;}
</style>
<g>
	<path class="st0" d="M485,140c0-11-9-20-20-20H20c-11,0-20,9-20,20v320c0,11,9,20,20,20h445c11,0,20-9,20-20V140z M354.7,316.6
		c6.3-3.5,10.3-10.2,10.3-17.5c0-7.3-3.9-14-10.3-17.5l-180-100c-6.2-3.4-13.8-3.3-19.9,0.2c-6.1,3.6-9.9,10.2-9.9,17.2v200
		c0,7.1,3.7,13.6,9.9,17.2c6.1,3.6,13.7,3.7,19.9,0.2L354.7,316.6z"/>
	<path class="st0" d="M73.2,100H415c11,0,20-9,20-20s-9-20-20-20H73.2c-11,0-20,9-20,20S62.2,100,73.2,100L73.2,100z"/>
	<path class="st0" d="M153.2,40H335c11,0,20-9,20-20s-9-20-20-20H153.2c-11,0-20,9-20,20S142.2,40,153.2,40z"/>
</g>
</svg>
