<?xml version="1.0" encoding="utf-8"?>
<!-- Generator: Adobe Illustrator 26.5.0, SVG Export Plug-In . SVG Version: 6.00 Build 0)  -->
<svg version="1.1" id="Layer_1" xmlns="http://www.w3.org/2000/svg" xmlns:xlink="http://www.w3.org/1999/xlink" x="0px" y="0px"
	 viewBox="0 0 500 500" style="enable-background:new 0 0 500 500;" xml:space="preserve">
<style type="text/css">
	.st0{fill-rule:evenodd;clip-rule:evenodd;}
</style>
<g>
	<path class="st0" d="M430.6,175.5c0-8.2-6.7-14.9-14.9-14.9H84.3c-8.2,0-14.9,6.7-14.9,14.9v238.3c0,8.2,6.7,14.9,14.9,14.9h331.3
		c8.2,0,14.9-6.7,14.9-14.9V175.5z M333.5,307c4.7-2.6,7.7-7.6,7.7-13s-2.9-10.4-7.7-13l-134-74.5c-4.6-2.5-10.3-2.5-14.8,0.1
		c-4.5,2.7-7.4,7.6-7.4,12.8v148.9c0,5.3,2.8,10.1,7.4,12.8c4.5,2.7,10.2,2.8,14.8,0.1L333.5,307z"/>
	<path class="st0" d="M123.9,145.8h254.5c8.2,0,14.9-6.7,14.9-14.9s-6.7-14.9-14.9-14.9H123.9c-8.2,0-14.9,6.7-14.9,14.9
		S115.8,145.8,123.9,145.8L123.9,145.8z"/>
	<path class="st0" d="M183.5,101.1h135.4c8.2,0,14.9-6.7,14.9-14.9s-6.7-14.9-14.9-14.9H183.5c-8.2,0-14.9,6.7-14.9,14.9
		S175.3,101.1,183.5,101.1z"/>
</g>
</svg>
