<?xml version="1.0" encoding="utf-8"?>
<!-- Generator: Adobe Illustrator 26.5.0, SVG Export Plug-In . SVG Version: 6.00 Build 0)  -->
<svg version="1.1" id="Layer_1" xmlns="http://www.w3.org/2000/svg" xmlns:xlink="http://www.w3.org/1999/xlink" x="0px" y="0px"
	 viewBox="0 0 500 500" style="enable-background:new 0 0 500 500;" xml:space="preserve">
<g>
	<path d="M446.4,47.1H54c-13.4,0-24.1,10.7-24.1,24.1v94.6c0,13.4,11.1,24.1,24.1,24.1h141.4v-18.1c0-28.7,23.2-51.9,51.9-51.9
		c13.9,0,26.9,5.5,36.6,15.3c9.8,9.8,15.3,22.7,15.3,36.6v18.1h146.6c13.4,0,24.1-11.1,24.1-24.1V71.2
		C470.5,58.2,459.8,47.1,446.4,47.1L446.4,47.1z"/>
	<path d="M384.2,270.6c-8.8,0-16.7,4.6-20.9,11.6v-0.5c0-13.4-11.1-24.6-24.6-24.6c-8.8,0-16.7,4.6-20.9,11.6v-0.5
		c0-13.4-11.1-24.6-24.6-24.6c-8.8,0-16.7,4.6-20.9,11.6v-83.5c0-6.5-2.8-13-7.5-17.6c-4.6-4.6-10.7-7.5-17.6-7.5
		c-13.4,0-24.6,11.1-24.6,24.6v161.6c0,1.4-0.9,2.8-2.3,3.2c-1.4,0.5-2.8,0.5-3.7-0.9l-25-25c-8.4-8.4-21.8-9.8-31.6-2.8
		c-6,3.7-9.8,10.2-10.7,17.1c-0.9,7,0.9,13.9,5.5,19.5l62.6,75.6c17.6,21.4,43.6,33.4,71.4,33.4h38.9c21.8,0,42.2-8.4,57.5-23.7
		c15.3-15.3,23.7-35.7,23.7-57.5v-77C408.8,281.8,397.7,270.6,384.2,270.6L384.2,270.6z"/>
</g>
</svg>
