<?xml version="1.0" encoding="utf-8"?>
<!-- Generator: Adobe Illustrator 26.5.0, SVG Export Plug-In . SVG Version: 6.00 Build 0)  -->
<svg version="1.1" id="Layer_1" xmlns="http://www.w3.org/2000/svg" xmlns:xlink="http://www.w3.org/1999/xlink" x="0px" y="0px"
	 viewBox="0 0 531.5 490" style="enable-background:new 0 0 531.5 490;" xml:space="preserve">
<g>
	<path d="M502.9,0H29.1C12.9,0,0,12.9,0,29.1v114.2c0,16.2,13.4,29.1,29.1,29.1h170.8v-21.8c0-34.7,28-62.7,62.7-62.7
		c16.8,0,32.5,6.7,44.2,18.5c11.8,11.8,18.5,27.4,18.5,44.2v21.8h177c16.2,0,29.1-13.4,29.1-29.1V29.1C532,13.4,519.1,0,502.9,0
		L502.9,0z"/>
	<path d="M427.8,269.9c-10.6,0-20.2,5.6-25.2,14v-0.6c0-16.2-13.4-29.7-29.7-29.7c-10.6,0-20.2,5.6-25.2,14v-0.6
		c0-16.2-13.4-29.7-29.7-29.7c-10.6,0-20.2,5.6-25.2,14l0-100.8c0-7.8-3.4-15.7-9-21.3c-5.6-5.6-12.9-9-21.3-9
		c-16.2,0-29.7,13.4-29.7,29.7V345c0,1.7-1.1,3.4-2.8,3.9c-1.7,0.6-3.4,0.6-4.5-1.1l-30.2-30.2c-10.1-10.1-26.3-11.8-38.1-3.4
		c-7.3,4.5-11.8,12.3-12.9,20.7c-1.1,8.4,1.1,16.8,6.7,23.5l75.6,91.3c21.3,25.8,52.6,40.3,86.2,40.3h47c26.3,0,51-10.1,69.4-28.6
		c18.5-18.5,28.6-43.1,28.6-69.4v-93C457.5,283.4,444.1,269.9,427.8,269.9L427.8,269.9z"/>
</g>
</svg>
