<?xml version="1.0" encoding="utf-8"?>
<!-- Generator: Adobe Illustrator 26.5.0, SVG Export Plug-In . SVG Version: 6.00 Build 0)  -->
<svg version="1.1" id="Layer_1" xmlns="http://www.w3.org/2000/svg" xmlns:xlink="http://www.w3.org/1999/xlink" x="0px" y="0px"
	 viewBox="0 0 500 500" style="enable-background:new 0 0 500 500;" xml:space="preserve">
<path d="M212.1,274.7c-5.3,6.2-11.7,11.3-18.9,15.1c-9.2,4.8-19.4,7.5-30,7.5c-9.4,0-18.5-2.1-26.9-5.9c-8.4-3.8-15.9-9.5-22-16.7
	c-16.1,8.3-29.9,20.5-40,35.5c20,29.6,53.3,47.3,89,47.3s69-17.7,88.8-47.3C241.9,295.2,228.1,283,212.1,274.7z M131.2,254.3
	c1.1,1.6,2.3,3.1,3.5,4.5c0.4,0.5,0.9,1,1.3,1.4c0.5,0.5,0.9,0.9,1.4,1.3c1.4,1.3,3,2.5,4.4,3.5c1.1,0.7,2.2,1.4,3.3,2
	c1.7,0.9,3.3,1.7,5.1,2.3c4.1,1.5,8.6,2.3,13,2.3c0.7,0,1.3,0,1.9,0c1.9-0.1,3.8-0.3,5.6-0.7c0.6-0.1,1.2-0.3,1.9-0.4
	c3.1-0.8,6-1.9,8.8-3.3c1.1-0.6,2.2-1.3,3.3-2c1.6-1.1,3.1-2.3,4.5-3.5c0.5-0.4,1-0.9,1.4-1.3c7.3-7.2,11.3-17,11.3-27.3
	c0-2-0.1-3.8-0.4-5.7c-0.8-5.6-2.9-11-6.1-15.8c-1.4-2.1-3.1-4-4.8-5.8c-1.8-1.8-3.7-3.4-5.8-4.8c-4.7-3.2-10-5.2-15.8-6.1
	c-1.9-0.3-3.7-0.4-5.7-0.4c-10.2,0-20,4-27.3,11.3c-0.5,0.5-0.9,0.9-1.3,1.4c-1.3,1.4-2.5,3-3.5,4.4c-0.7,1.1-1.4,2.2-2,3.3
	c-0.9,1.7-1.7,3.3-2.3,5.1c-1.5,4.1-2.3,8.6-2.3,13s0.8,8.9,2.3,13c0.6,1.8,1.4,3.4,2.3,5.1C129.8,252.1,130.5,253.2,131.2,254.3z
	 M372.7,143.6c1.3,0.8,2.7,1.5,4,2.2c3.4,1.7,7.1,2.9,10.9,3.6c3.1,0.6,6.1,0.9,9.3,0.9c12.5,0,24.5-4.9,33.4-13.8
	c0.6-0.6,1.1-1.1,1.6-1.7c1.6-1.8,3-3.5,4.2-5.5c0.9-1.3,1.7-2.6,2.4-3.9c1.1-2.1,2-4.1,2.8-6.3c1.8-5,2.8-10.4,2.8-16
	c0-12.5-4.9-24.6-13.8-33.4S409.3,56,396.8,56s-24.5,4.9-33.3,13.8c-8.9,8.9-13.9,20.9-13.9,33.4s4.9,24.5,13.8,33.4
	C366.3,139.3,369.3,141.7,372.7,143.6z M270.5,246.7c-0.2-6.3-1-12.5-2.3-18.6c-0.4-2.1-0.9-4.1-1.5-6.1c-1.7-6.1-3.8-12-6.6-17.8
	c-2.8-5.8-6-11.3-9.8-16.7c-20.1-28.2-52.6-44.8-87.2-44.8c-2.2,0-4.3,0.1-6.5,0.2c-2.2,0.1-4.2,0.3-6.4,0.6
	c-1.1,0.1-2.1,0.3-3.2,0.4c-7.4,1.1-14.6,3-21.5,5.5c-2,0.7-3.9,1.6-5.8,2.4c-3.8,1.7-7.6,3.6-11.2,5.7c-1.8,1.1-3.6,2.2-5.3,3.3
	c-6.1,4.1-11.8,8.9-17,14.2c-0.8,0.8-1.5,1.6-2.2,2.4c-1.5,1.6-2.9,3.2-4.2,4.8c-1.4,1.7-2.7,3.3-3.9,5.1
	c-3.7,5.2-7.1,10.8-9.8,16.6c-1.8,3.8-3.4,7.8-4.7,11.7c-3.3,10-5.2,20.4-5.5,30.9s0.9,21.2,3.7,31.5c0.6,2.1,1.2,4.1,1.9,6.2
	c4.9-5.8,10.3-11.1,16.1-16c5.8-4.8,12-9.3,18.5-13.1c1.9-1.1,3.7-2.2,5.7-3.2c-6.1-19.6-2.6-40.9,9.6-57.4s31.4-26.3,51.9-26.3
	s39.8,9.8,51.9,26.3c12.2,16.6,15.7,37.8,9.6,57.4c2,1,3.8,2.1,5.7,3.2c4.6,2.8,9.2,5.7,13.5,9.1c7.8,5.9,14.9,12.6,21.2,20.1
	c4.1-12.2,5.9-24.9,5.6-37.5C270.5,246.8,270.5,246.7,270.5,246.7z M451.8,348.6c-13.9-15.7-33.9-24.6-54.9-24.6
	c-20.6,0-40.1,8.7-54,23.8l-60.6-38.1c18.8-37.5,18.8-81.7,0-119.2l60.7-38.1c14,15.3,33.6,23.7,53.9,23.7c3.8,0,7.6-0.3,11.4-0.9
	c24.2-3.8,44.9-19.6,55.1-42c10.1-22.4,8.4-48.3-4.7-69.1c-13.1-20.7-35.8-33.5-60.3-34c-0.5,0-1,0-1.5,0
	c-23.9,0-46.5,11.7-60.1,31.5c-13.9,20.2-16.7,46-7.6,68.8l-60.7,38.1c-22.8-29.5-56.9-48.1-94.1-51.2c-3.7-0.3-7.6-0.5-11.3-0.5
	c-33.2,0-65.4,12.4-90,35.1c-27.3,25.3-43,60.9-43,98.1s15.7,72.8,43.1,98c24.7,22.7,56.8,35.1,90,35.1c3.7,0,7.5-0.2,11.3-0.5
	c37.1-3.2,71.2-21.8,94.1-51.2l60.7,38.1c-7.9,19.5-7,41.4,2.5,60.1c9.5,18.7,26.5,32.5,46.8,37.8c6.1,1.6,12.2,2.4,18.4,2.4
	c14.4,0,28.7-4.3,40.9-12.5c17.4-11.7,28.9-30.4,31.5-51.2S465.7,364.3,451.8,348.6z M461.6,405.1c-2.4,18.6-12.6,35.3-28.1,45.7
	C422.7,458.1,410,462,397,462c-5.5,0-11-0.7-16.4-2.1c-18.1-4.7-33.3-17-41.8-33.8c-8.4-16.7-9.3-36.2-2.2-53.6l2.5-6.1l-5.6-3.5
	l-60.7-38.1l-6-3.8l-4.3,5.6c-21.5,27.7-53.8,45.2-88.6,48.2c-3.5,0.3-7.1,0.5-10.6,0.5c-31.4,0-61.6-11.7-84.7-33
	C52.8,318.6,38,284.9,38,250s14.8-68.5,40.4-92.3c23.2-21.3,53.3-33,84.7-33c3.5,0,7.1,0.2,10.6,0.5c34.9,3,67.1,20.5,88.5,48.2
	l4.3,5.6l6-3.8l60.7-38.1l5.6-3.5l-2.5-6.1c-8.2-20.4-5.6-43.3,6.8-61.4c12.2-17.4,32.2-28,53.7-28l0,0c0.4,0,0.9,0,1.3,0
	c22,0.4,42.1,11.8,53.8,30.3c11.7,18.6,13.3,41.6,4.2,61.6s-27.5,34-49.2,37.4c-3.3,0.5-6.8,0.8-10.2,0.8
	c-18.2,0-35.8-7.7-48.1-21.2l-4.4-4.8l-5.6,3.5L278,183.8l-6.1,3.8l3.3,6.4c8.7,17.3,13.3,36.7,13.3,56.1s-4.6,38.7-13.3,56.1
	l-3.3,6.4l6,3.8l60.6,38.1l5.6,3.5l4.4-4.8c12.4-13.5,30-21.3,48.2-21.3c18.7,0,36.6,8,49,22C458.3,367.8,464,386.5,461.6,405.1z
	 M439.6,376.7c-0.7-1.4-1.4-2.8-2.2-4c-2-3.3-4.3-6.4-7.1-9.2c-8.9-8.8-20.9-13.8-33.4-13.8c-12.5,0-24.5,4.9-33.4,13.8
	c-8.8,8.9-13.8,20.9-13.8,33.4s4.9,24.5,13.8,33.4c0.6,0.6,1.1,1.1,1.7,1.6c1.8,1.6,3.5,3,5.5,4.2c0.7,0.4,1.3,0.8,2,1.2
	c0.9,0.5,1.8,1,2.7,1.5c1.9,0.9,3.7,1.8,5.6,2.5c2.2,0.8,4.4,1.4,6.7,1.9c3.1,0.6,6.1,0.9,9.3,0.9c3.2,0,6.3-0.3,9.3-0.9
	c9.1-1.8,17.3-6.2,24-12.9c3.3-3.3,6.1-7.1,8.3-11.1c0.7-1.4,1.4-2.8,2-4.1c0.9-2.2,1.6-4.3,2.2-6.6c1-3.7,1.5-7.6,1.5-11.5
	c0-3.2-0.3-6.2-0.9-9.3C442.4,383.9,441.2,380.2,439.6,376.7z"/>
</svg>
