<?xml version="1.0" encoding="utf-8"?>
<!-- Generator: Adobe Illustrator 26.5.0, SVG Export Plug-In . SVG Version: 6.00 Build 0)  -->
<svg version="1.1" id="Layer_1" xmlns="http://www.w3.org/2000/svg" xmlns:xlink="http://www.w3.org/1999/xlink" x="0px" y="0px"
	 viewBox="0 0 446.4 446.3" style="enable-background:new 0 0 446.4 446.3;" xml:space="preserve">
<path d="M184.7,248.2c-5.4,6.3-11.9,11.5-19.2,15.3c-9.3,4.9-19.7,7.6-30.4,7.6c-9.5,0-18.8-2.1-27.3-6s-16.1-9.6-22.3-16.9
	c-16.3,8.4-30.3,20.8-40.6,36c20.3,30,54.1,48,90.3,48s70-18,90.1-48C215,269,201,256.6,184.7,248.2z M102.6,227.5
	c1.1,1.6,2.3,3.1,3.6,4.6c0.4,0.5,0.9,1,1.3,1.4c0.5,0.5,0.9,0.9,1.4,1.3c1.4,1.3,3,2.5,4.5,3.6c1.1,0.7,2.2,1.4,3.3,2
	c1.7,0.9,3.4,1.7,5.2,2.3c4.2,1.5,8.7,2.3,13.2,2.3c0.7,0,1.3,0,1.9,0c1.9-0.1,3.9-0.3,5.7-0.7c0.6-0.1,1.2-0.3,1.9-0.4
	c3.1-0.8,6.1-1.9,8.9-3.4c1.1-0.6,2.2-1.3,3.3-2c1.6-1.1,3.1-2.3,4.6-3.6c0.5-0.4,1-0.9,1.4-1.3c7.4-7.3,11.5-17.3,11.5-27.7
	c0-2-0.1-3.9-0.4-5.8c-0.8-5.7-2.9-11.2-6.2-16c-1.4-2.1-3.1-4.1-4.9-5.9c-1.8-1.8-3.8-3.5-5.9-4.9c-4.8-3.2-10.2-5.3-16-6.2
	c-1.9-0.3-3.8-0.4-5.8-0.4c-10.4,0-20.3,4.1-27.7,11.5c-0.5,0.5-0.9,0.9-1.3,1.4c-1.3,1.4-2.5,3-3.6,4.5c-0.7,1.1-1.4,2.2-2,3.3
	c-0.9,1.7-1.7,3.4-2.3,5.2c-1.5,4.2-2.3,8.7-2.3,13.2s0.8,9,2.3,13.2c0.6,1.8,1.4,3.5,2.3,5.2C101.2,225.3,101.9,226.4,102.6,227.5z
	 M347.7,115.2c1.3,0.8,2.7,1.5,4.1,2.2c3.5,1.7,7.2,2.9,11.1,3.7c3.1,0.6,6.2,0.9,9.4,0.9c12.7,0,24.9-5,33.9-14
	c0.6-0.6,1.1-1.1,1.6-1.7c1.6-1.8,3-3.6,4.3-5.6c0.9-1.3,1.7-2.6,2.4-4c1.1-2.1,2-4.2,2.8-6.4c1.8-5.1,2.8-10.6,2.8-16.2
	c0-12.7-5-25-14-33.9c-9-8.9-21.2-14-33.9-14c-12.7,0-24.9,5-33.8,14c-9,9-14.1,21.2-14.1,33.9c0,12.7,5,24.9,14,33.9
	C341.2,110.8,344.3,113.2,347.7,115.2z M244,219.8c-0.2-6.4-1-12.7-2.3-18.9c-0.4-2.1-0.9-4.2-1.5-6.2c-1.7-6.2-3.9-12.2-6.7-18.1
	s-6.1-11.5-9.9-16.9c-20.4-28.6-53.4-45.5-88.5-45.5c-2.2,0-4.4,0.1-6.6,0.2c-2.2,0.1-4.3,0.3-6.5,0.6c-1.1,0.1-2.1,0.3-3.2,0.4
	c-7.5,1.1-14.8,3-21.8,5.6c-2,0.7-4,1.6-5.9,2.4c-3.9,1.7-7.7,3.7-11.4,5.8c-1.8,1.1-3.7,2.2-5.4,3.4c-6.2,4.2-12,9-17.3,14.4
	c-0.8,0.8-1.5,1.6-2.2,2.4c-1.5,1.6-2.9,3.2-4.3,4.9c-1.4,1.7-2.7,3.4-4,5.2c-3.8,5.3-7.2,11-9.9,16.8c-1.8,3.9-3.5,7.9-4.8,11.9
	c-3.4,10.1-5.3,20.7-5.6,31.4s0.9,21.5,3.8,32c0.6,2.1,1.2,4.2,1.9,6.3c5-5.9,10.5-11.3,16.3-16.2c5.9-4.9,12.2-9.4,18.8-13.3
	c1.9-1.1,3.8-2.2,5.8-3.2c-6.2-19.9-2.6-41.5,9.7-58.3c12.3-16.8,31.9-26.7,52.7-26.7c20.8,0,40.4,9.9,52.7,26.7
	c12.4,16.8,15.9,38.4,9.7,58.3c2,1,3.9,2.1,5.8,3.2c4.7,2.8,9.3,5.8,13.7,9.2c7.9,6,15.1,12.8,21.5,20.4c4.2-12.4,6-25.3,5.7-38.1
	C244,219.9,244,219.8,244,219.8z M428,323.2c-14.1-15.9-34.4-25-55.7-25c-20.9,0-40.7,8.8-54.8,24.2L256,283.7
	c19.1-38.1,19.1-82.9,0-121l61.6-38.7c14.2,15.5,34.1,24.1,54.7,24.1c3.9,0,7.7-0.3,11.6-0.9c24.6-3.9,45.6-19.9,55.9-42.6
	c10.3-22.7,8.5-49-4.8-70.1c-13.3-21-36.3-34-61.2-34.5c-0.5,0-1,0-1.5,0c-24.3,0-47.2,11.9-61,32c-14.1,20.5-17,46.7-7.7,69.8
	L242,140.5c-23.1-29.9-57.8-48.8-95.5-52c-3.8-0.3-7.7-0.5-11.5-0.5c-33.7,0-66.4,12.6-91.4,35.6C15.9,149.3,0,185.4,0,223.2
	s15.9,73.9,43.7,99.5c25.1,23,57.7,35.6,91.4,35.6c3.8,0,7.6-0.2,11.5-0.5c37.7-3.2,72.3-22.1,95.5-52l61.6,38.7
	c-8,19.8-7.1,42,2.5,61s26.9,33,47.5,38.4c6.2,1.6,12.4,2.4,18.7,2.4c14.6,0,29.1-4.4,41.5-12.7c17.7-11.9,29.3-30.9,32-52
	C448.6,360.5,442.1,339.2,428,323.2z M438,380.6c-2.4,18.9-12.8,35.8-28.5,46.4c-11,7.4-23.9,11.3-37.1,11.3
	c-5.6,0-11.2-0.7-16.6-2.1c-18.4-4.8-33.8-17.3-42.4-34.3c-8.5-16.9-9.4-36.7-2.2-54.4l2.5-6.2l-5.7-3.6L246.4,299l-6.1-3.9
	l-4.4,5.7c-21.8,28.1-54.6,45.9-89.9,48.9c-3.6,0.3-7.2,0.5-10.8,0.5c-31.9,0-62.5-11.9-86-33.5C23,292.8,8,258.6,8,223.2
	c0-35.4,15-69.5,41-93.7C72.5,107.9,103.1,96,135,96c3.6,0,7.2,0.2,10.8,0.5c35.4,3,68.1,20.8,89.8,48.9l4.4,5.7l6.1-3.9l61.6-38.7
	l5.7-3.6l-2.5-6.2c-8.3-20.7-5.7-43.9,6.9-62.3C330.2,18.7,350.5,8,372.3,8h0c0.4,0,0.9,0,1.3,0c22.3,0.4,42.7,12,54.6,30.8
	c11.9,18.9,13.5,42.2,4.3,62.5c-9.2,20.3-27.9,34.5-49.9,38c-3.4,0.5-6.9,0.8-10.4,0.8c-18.5,0-36.3-7.8-48.8-21.5l-4.5-4.9
	l-5.7,3.6l-61.6,38.7l-6.2,3.9l3.3,6.5c8.8,17.6,13.5,37.3,13.5,56.9s-4.7,39.3-13.5,56.9l-3.3,6.5l6.1,3.9l61.5,38.7l5.7,3.6
	l4.5-4.9c12.6-13.7,30.4-21.6,48.9-21.6c19,0,37.1,8.1,49.7,22.3C434.6,342.7,440.4,361.7,438,380.6z M415.6,351.8
	c-0.7-1.4-1.4-2.8-2.2-4.1c-2-3.4-4.4-6.5-7.2-9.3c-9-8.9-21.2-14-33.9-14c-12.7,0-24.9,5-33.9,14c-8.9,9-14,21.2-14,33.9
	s5,24.9,14,33.9c0.6,0.6,1.1,1.1,1.7,1.6c1.8,1.6,3.6,3,5.6,4.3c0.7,0.4,1.3,0.8,2,1.2c0.9,0.5,1.8,1,2.7,1.5
	c1.9,0.9,3.8,1.8,5.7,2.5c2.2,0.8,4.5,1.4,6.8,1.9c3.1,0.6,6.2,0.9,9.4,0.9c3.2,0,6.4-0.3,9.4-0.9c9.2-1.8,17.6-6.3,24.4-13.1
	c3.4-3.4,6.2-7.2,8.4-11.3c0.7-1.4,1.4-2.8,2-4.2c0.9-2.2,1.6-4.4,2.2-6.7c1-3.8,1.5-7.7,1.5-11.7c0-3.2-0.3-6.3-0.9-9.4
	C418.5,359.1,417.3,355.3,415.6,351.8z"/>
</svg>
