<?xml version="1.0" encoding="utf-8"?>
<!-- Generator: Adobe Illustrator 26.5.0, SVG Export Plug-In . SVG Version: 6.00 Build 0)  -->
<svg version="1.1" id="Layer_1" xmlns="http://www.w3.org/2000/svg" xmlns:xlink="http://www.w3.org/1999/xlink" x="0px" y="0px"
	 viewBox="0 0 500 500" style="enable-background:new 0 0 500 500;" xml:space="preserve">
<path d="M364.9,58.2H135.1c-14.5,0-26,12-26,26.4v330.8c0,14.5,12,26.4,26,26.4h229.3c14.5,0,26-12,26.5-26.4V84.6
	C390.9,70.1,378.9,58.2,364.9,58.2z M371,409.1c0,5.7-4.8,10.5-10.5,10.5h-221c-5.7,0-10.5-4.8-10.5-10.5V90.9
	c0-5.7,4.8-10.5,10.5-10.5h220.9c5.2,0,9.6,4,10.4,9h0.2L371,409.1L371,409.1z M171.6,355.4h156.4V127.1H171.6V355.4z M360.5,83.4
	H139.5c-4,0-7.5,3.4-7.5,7.5v318.2c0,4,3.4,7.5,7.5,7.5h221c4,0,7.5-3.4,7.5-7.5V92.4l-0.1-1.5C367.9,86.9,364.5,83.4,360.5,83.4z
	 M246.8,408.9c-5.9,0-10.7-4.9-10.7-11.1c0-6.1,4.8-11.1,10.7-11.1s10.7,4.9,10.7,11.1C257.5,403.9,252.7,408.9,246.8,408.9z
	 M349.7,372.5c0.1,4.3-3.6,8-7.5,8H157.4c-4.4,0-7.6-3.6-7.6-8.1V110.2c0-4.4,3.6-8.1,7.6-8.1h184.7c4.4,0,7.6,3.6,7.6,8.1V372.5z"
	/>
</svg>
