<?xml version="1.0" encoding="utf-8"?>
<!-- Generator: Adobe Illustrator 26.5.0, SVG Export Plug-In . SVG Version: 6.00 Build 0)  -->
<svg version="1.1" id="Layer_1" xmlns="http://www.w3.org/2000/svg" xmlns:xlink="http://www.w3.org/1999/xlink" x="0px" y="0px"
	 viewBox="0 0 370.2 504" style="enable-background:new 0 0 370.2 504;" xml:space="preserve">
<path d="M305.82,50.4H64.38c-15.28,0-27.36,12.56-27.36,27.76v347.68c0,15.2,12.56,27.76,27.36,27.76h240.96
	c15.28,0,27.36-12.56,27.84-27.76V78.16C333.18,62.96,320.62,50.4,305.82,50.4z M312.3,419.2c0,5.98-5.06,11.04-11.04,11.04H69.02
	c-5.98,0-11.04-5.06-11.04-11.04V84.8c0-5.98,5.06-11.04,11.04-11.04h232.16c5.44,0,10.12,4.18,10.92,9.44h0.2V419.2z M102.7,362.8
	h164.32V122.88H102.7V362.8z M301.18,76.96H69.02c-4.25,0-7.84,3.59-7.84,7.84v334.4c0,4.25,3.59,7.84,7.84,7.84h232.24
	c4.25,0,7.84-3.59,7.84-7.84V86.4l-0.08-1.6C309.02,80.55,305.43,76.96,301.18,76.96z M181.74,419.04c-6.16,0-11.2-5.2-11.2-11.68
	c0-6.4,5.04-11.68,11.2-11.68s11.2,5.2,11.2,11.68C192.94,413.76,187.9,419.04,181.74,419.04z M289.9,380.72
	c0.08,4.56-3.76,8.4-7.92,8.4H87.74c-4.64,0-8-3.76-8-8.48v-275.6c0-4.64,3.76-8.48,8-8.48H281.9c4.64,0,8,3.76,8,8.48V380.72z"/>
</svg>
