<?xml version="1.0" encoding="utf-8"?>
<!-- Generator: Adobe Illustrator 26.5.0, SVG Export Plug-In . SVG Version: 6.00 Build 0)  -->
<svg version="1.1" id="Layer_1" xmlns="http://www.w3.org/2000/svg" xmlns:xlink="http://www.w3.org/1999/xlink" x="0px" y="0px"
	 viewBox="0 0 500 500" style="enable-background:new 0 0 500 500;" xml:space="preserve">
<style type="text/css">
	.st0{fill:#FFFFFF;}
</style>
<g>
	<path d="M250.8,137.5c-82.5,0-159.8,37.4-218.2,105.2c-1.6,2.1-2.6,4.7-2.6,7.3c0,2.6,1,5.3,3.2,7.3
		c58.4,67.8,135.7,105.2,217.7,105.2c80.5,0,157.2-37.4,216.6-105.7c3.7-4.2,3.2-10,0-13.7C408,174.8,330.7,137.5,250.8,137.5
		L250.8,137.5z"/>
	<path class="st0" d="M249.8,172.8c-42.4,0-77.2,34.7-77.2,77.2s34.7,77.2,77.2,77.2S327,292.4,327,250S292.2,172.8,249.8,172.8z
		 M249.8,221c-16,0-28.9,13.1-28.9,28.9c0,5.4-4.3,9.7-9.7,9.7c-5.4,0-9.7-4.3-9.7-9.7c0-26.6,21.7-48.3,48.3-48.3
		c5.4,0,9.7,4.3,9.7,9.7S255,221,249.8,221z"/>
</g>
</svg>
