<?xml version="1.0" encoding="utf-8"?>
<!-- Generator: Adobe Illustrator 26.5.0, SVG Export Plug-In . SVG Version: 6.00 Build 0)  -->
<svg version="1.1" id="Layer_1" xmlns="http://www.w3.org/2000/svg" xmlns:xlink="http://www.w3.org/1999/xlink" x="0px" y="0px"
	 viewBox="0 0 500 500" style="enable-background:new 0 0 500 500;" xml:space="preserve">
<style type="text/css">
	.st0{fill:#FFFFFF;}
</style>
<g>
	<g>
		<path d="M369.5,124.9H130.4c-33.7,0-61.1,27.4-61.1,61.1v127.8c0,27.4,27.4,61.1,61.1,61.1h239c33.8,0,61.1-27.4,61.1-61.1V186
			C430.7,158.7,403.2,124.9,369.5,124.9L369.5,124.9z"/>
	</g>
	<g>
		<path class="st0" d="M206,180.2c-2.9,0-5.8,0.8-8.3,2.4c-4.8,3-7.7,8.2-7.7,13.7v107.7c0,5.6,3,10.7,7.7,13.6
			c2.6,1.5,5.4,2.4,8.3,2.4c2.5,0,4.9-0.6,7.2-1.8l54.7-28.1l49.9-25.7c5.3-2.8,8.7-8.3,8.7-14.2c0-6-3.4-11.6-8.7-14.2l-49.9-25.7
			L213.1,182C211,180.7,208.4,180.2,206,180.2L206,180.2z"/>
	</g>
</g>
</svg>
