<?xml version="1.0" encoding="utf-8"?>
<!-- Generator: Adobe Illustrator 26.5.0, SVG Export Plug-In . SVG Version: 6.00 Build 0)  -->
<svg version="1.1" id="Layer_1" xmlns="http://www.w3.org/2000/svg" xmlns:xlink="http://www.w3.org/1999/xlink" x="0px" y="0px"
	 viewBox="0 0 380.8 263.6" style="enable-background:new 0 0 380.8 263.6;" xml:space="preserve">
<style type="text/css">
	.st0{fill:#FFFFFF;}
</style>
<g>
	<path d="M316.4,0h-252C28.9,0,0,28.9,0,64.4v134.7c0,28.9,28.9,64.4,64.4,64.4h251.9c35.6,0,64.4-28.9,64.4-64.4V64.4
		C380.8,35.6,351.9,0,316.4,0L316.4,0z"/>
</g>
<g>
	<path class="st0" d="M144,58.2c-3.1,0-6.1,0.8-8.8,2.5c-5.1,3.2-8.1,8.6-8.1,14.4v113.5c0,5.9,3.2,11.3,8.1,14.3
		c2.7,1.6,5.7,2.5,8.7,2.5c2.6,0,5.2-0.6,7.6-1.9l57.6-29.6l52.6-27.1c5.6-2.9,9.2-8.7,9.2-15s-3.6-12.2-9.2-15l-52.6-27.1
		l-57.6-29.6C149.3,58.8,146.6,58.2,144,58.2L144,58.2z"/>
</g>
</svg>
