<?xml version="1.0" encoding="utf-8"?>
<!-- Generator: Adobe Illustrator 26.5.0, SVG Export Plug-In . SVG Version: 6.00 Build 0)  -->
<svg version="1.1" id="Layer_1" xmlns="http://www.w3.org/2000/svg" xmlns:xlink="http://www.w3.org/1999/xlink" x="0px" y="0px"
	 viewBox="0 0 507.6 463.1" style="enable-background:new 0 0 507.6 463.1;" xml:space="preserve">
<path d="M81,261.2c19.5,0,35.6-16.1,35.6-35.6c0-6.2-1.6-12-4.4-17.1l64.9-60.8c5.5,3.6,12.1,5.7,19.2,5.7c9.2,0,17.6-3.5,23.9-9.3
	l60.8,40.1c-1.3,3.6-2,7.6-2,11.6c0,19.6,16,35.6,35.5,35.6s35.5-16.1,35.5-35.6c0-8.8-3.3-16.9-8.6-23.2L414,68.9
	c3.9,1.5,8.2,2.4,12.6,2.4c19.5,0,35.5-16.1,35.5-35.7S446.1,0,426.6,0c-0.2,0-0.6,0-0.9,0c-19.1,0.5-34.6,16.3-34.6,35.6
	c0,8.8,3.3,16.9,8.6,23.2L327,162.4c-3.9-1.5-8.2-2.3-12.6-2.3c-9.2,0-17.6,3.6-23.9,9.4l-60.7-40.1c1.3-3.7,2-7.6,2-11.7
	c0-19.6-16-35.6-35.6-35.6s-35.5,16-35.5,35.6c0,6.2,1.6,12,4.4,17.1l-64.9,60.8C94.6,192.1,88,190,81,190
	c-19.5,0-35.5,16-35.5,35.6S61.5,261.2,81,261.2z M426.6,17.5c10.1,0,18.1,8,18.1,18.1s-8,18.1-18.1,18.1s-18-8-18-18.1
	S416.6,17.5,426.6,17.5z M314.4,177.6c10.1,0,18,8,18,18.1s-8,18.1-18,18.1s-18.1-8-18.1-18.1S304.4,177.6,314.4,177.6z M196.2,99.6
	c10.1,0,18.1,8,18.1,18.1s-8,18.1-18.1,18.1s-18-8-18-18.1S186.1,99.6,196.2,99.6z M80.9,207.5c10.1,0,18.1,8,18.1,18.1
	s-8,18.1-18.1,18.1s-18-8-18-18.1S70.9,207.5,80.9,207.5z M498.8,445.5h-38.5V172.2c0-2.3-0.9-4.6-2.6-6.2c-1.6-1.6-3.9-2.6-6.2-2.6
	h-49.7c-2.3,0-4.6,0.9-6.2,2.6c-1.7,1.6-2.6,3.9-2.6,6.2v273.4h-48V295c0-4.8-4-8.7-8.8-8.7h-49.7c-4.8,0-8.8,3.9-8.8,8.7v150.6
	h-47.9v-212c0-2.3-0.9-4.6-2.6-6.2c-1.6-1.6-3.9-2.6-6.2-2.6h-49.8c-2.3,0-4.6,0.9-6.2,2.6c-1.6,1.6-2.6,3.9-2.6,6.2v211.9h-47.9
	v-89.1c0-4.8-4-8.7-8.8-8.7H56.1c-4.8,0-8.8,3.9-8.8,8.7v89.1H8.8c-4.8,0-8.8,3.9-8.8,8.7c0,2.3,0.9,4.6,2.6,6.2s3.9,2.6,6.2,2.6
	h490c2.3,0,4.6-0.9,6.2-2.6c1.6-1.6,2.6-3.9,2.6-6.2C507.6,449.4,503.6,445.5,498.8,445.5z M96.3,449.6H65.6v-87.4h30.7V449.6z
	 M211.5,446.5h-30.7v-204h30.7V446.5z M326.8,448h-30.7V302.3h30.7V448z M442,444.9h-30.7V182.5H442V444.9z"/>
</svg>
