<?xml version="1.0" encoding="utf-8"?>
<!-- Generator: Adobe Illustrator 26.5.0, SVG Export Plug-In . SVG Version: 6.00 Build 0)  -->
<svg version="1.1" id="Layer_1" xmlns="http://www.w3.org/2000/svg" xmlns:xlink="http://www.w3.org/1999/xlink" x="0px" y="0px"
	 viewBox="0 0 500 500" style="enable-background:new 0 0 500 500;" xml:space="preserve">
<path d="M100.1,275.7c16.9,0,30.9-14,30.9-30.9c0-5.4-1.4-10.4-3.8-14.8l56.3-52.7c4.8,3.1,10.5,4.9,16.7,4.9c8,0,15.3-3,20.7-8.1
	l52.7,34.8c-1.1,3.1-1.7,6.6-1.7,10.1c0,17,13.9,30.9,30.8,30.9c16.9,0,30.8-14,30.8-30.9c0-7.6-2.9-14.7-7.5-20.1l63-89.9
	c3.4,1.3,7.1,2.1,10.9,2.1c16.9,0,30.8-14,30.8-31s-13.9-30.9-30.8-30.9c-0.2,0-0.5,0-0.8,0c-16.6,0.4-30,14.1-30,30.9
	c0,7.6,2.9,14.7,7.5,20.1l-63,89.8c-3.4-1.3-7.1-2-10.9-2c-8,0-15.3,3.1-20.7,8.2l-52.6-34.8c1.1-3.2,1.7-6.6,1.7-10.1
	c0-17-13.9-30.9-30.9-30.9s-30.8,13.9-30.8,30.9c0,5.4,1.4,10.4,3.8,14.8l-56.3,52.7c-4.9-3-10.6-4.9-16.7-4.9
	c-16.9,0-30.8,13.9-30.8,30.9S83.2,275.7,100.1,275.7z M399.9,64.4c8.8,0,15.7,6.9,15.7,15.7s-6.9,15.7-15.7,15.7
	s-15.6-6.9-15.6-15.7S391.2,64.4,399.9,64.4z M302.6,203.2c8.8,0,15.6,6.9,15.6,15.7s-6.9,15.7-15.6,15.7c-8.7,0-15.7-6.9-15.7-15.7
	S293.9,203.2,302.6,203.2z M200,135.6c8.8,0,15.7,6.9,15.7,15.7c0,8.8-6.9,15.7-15.7,15.7s-15.6-6.9-15.6-15.7
	C184.4,142.5,191.3,135.6,200,135.6z M100.1,229.1c8.8,0,15.7,6.9,15.7,15.7s-6.9,15.7-15.7,15.7s-15.6-6.9-15.6-15.7
	S91.4,229.1,100.1,229.1z M462.5,435.5h-33.4v-237c0-2-0.8-4-2.3-5.4c-1.4-1.4-3.4-2.3-5.4-2.3h-43.1c-2,0-4,0.8-5.4,2.3
	c-1.5,1.4-2.3,3.4-2.3,5.4v237.1h-41.6V305c0-4.2-3.5-7.5-7.6-7.5h-43.1c-4.2,0-7.6,3.4-7.6,7.5v130.6h-41.5V251.8
	c0-2-0.8-4-2.3-5.4c-1.4-1.4-3.4-2.3-5.4-2.3h-43.2c-2,0-4,0.8-5.4,2.3c-1.4,1.4-2.3,3.4-2.3,5.4v183.8h-41.5v-77.3
	c0-4.2-3.5-7.5-7.6-7.5h-43c-4.2,0-7.6,3.4-7.6,7.5v77.3H37.5c-4.2,0-7.6,3.4-7.6,7.5c0,2,0.8,4,2.3,5.4c1.5,1.4,3.4,2.3,5.4,2.3
	h424.9c2,0,4-0.8,5.4-2.3c1.4-1.4,2.3-3.4,2.3-5.4C470.1,438.9,466.6,435.5,462.5,435.5z M113.4,439.1H86.8v-75.8h26.6V439.1z
	 M213.3,436.4h-26.6V259.5h26.6V436.4z M313.3,437.7h-26.6V311.3h26.6V437.7z M413.2,435h-26.6V207.5h26.6V435z"/>
</svg>
