<?xml version="1.0" encoding="utf-8"?>
<!-- Generator: Adobe Illustrator 26.5.0, SVG Export Plug-In . SVG Version: 6.00 Build 0)  -->
<svg version="1.1" id="Layer_1" xmlns="http://www.w3.org/2000/svg" xmlns:xlink="http://www.w3.org/1999/xlink" x="0px" y="0px"
	 viewBox="0 0 481.9 354.5" style="enable-background:new 0 0 481.9 354.5;" xml:space="preserve">
<path d="M51.4,260.9c-3.7,3.7-8,6.6-12.6,8.6v67c0,10,8.1,18,18,18h40.5c10,0,18-8.1,18-18V199.8c0-0.9-0.1-1.8-0.2-2.6L51.4,260.9z
	 M95.3,334.5H58.8v-53.6c2.4-1.8,4.6-3.7,6.7-5.8l29.8-29.8V334.5z M366.7,176.4l-11.1,11.1v149c0,10,8.1,18,18,18h40.5
	c10,0,18-8.1,18-18v-223c0-0.8-0.1-1.6-0.2-2.4L366.7,176.4z M412.1,334.5h-36.5V195.8l5.3-5.3l31.2-31.3V334.5z M471.2,0
	c-0.4,0-0.9,0-1.3,0c-27.3,1.3-54.6,2.6-81.9,3.9c-4.3,0.2-8.5,0.4-10.8,5.5c-2.4,5.1,0.3,8,3.2,10.9c8.4,8.4,16.6,16.9,25.2,25.1
	L232.4,218.6L129.7,115.9c-3.6-3.5-8.1-5.3-12.8-5.3s-9.3,1.8-12.8,5.3l-4.5,4.5L5.2,214.8c-7,7-7,18.5,0,25.5l4.5,4.5
	c3.6,3.5,8.1,5.3,12.8,5.3s9.3-1.8,12.8-5.3l81.6-81.6l102.5,102.7c3.6,3.5,8.1,5.3,12.8,5.3s9.3-1.8,12.8-5.3l82.3-82.3l16.6-16.6
	l91.5-91.6l2.7,2.7c1,0.9,1.9,1.7,2.7,2.5c6.5,6.4,12.9,12.9,19.3,19.3c2.4,2.3,4.6,4.8,7.8,4.8c1.2,0,2.6-0.4,4.1-1.2
	c4.9-2.7,6-7,6.2-11.9c1.1-26.6,2.5-53.2,3.7-79.9C482.3,3.7,478.9,0,471.2,0z M146.8,225.3c-1.6,2.7-2.5,5.8-2.5,9.1v102
	c0,10,8.1,18,18,18h40.5c10,0,18-8.1,18-18v-44.2c-6.4-1.8-12.4-5.3-17.4-10.3L146.8,225.3z M200.8,334.5h-36.5v-63.4l25,25
	c3.5,3.5,7.4,6.5,11.5,9.1V334.5z M265.6,277.5l-4.5,4.5c-3.3,3.3-7.1,6-11.1,7.9v46.6c0,10,8.1,18,18,18h40.5c10,0,18-8.1,18-18
	v-102c0-4.9-2-9.4-5.2-12.7L265.6,277.5z M306.5,334.5H270v-33.7c1.8-1.4,3.6-3,5.2-4.7l4.5-4.5l26.8-26.7V334.5z"/>
</svg>
