<?xml version="1.0" encoding="utf-8"?>
<!-- Generator: Adobe Illustrator 26.5.0, SVG Export Plug-In . SVG Version: 6.00 Build 0)  -->
<svg version="1.1" id="Layer_1" xmlns="http://www.w3.org/2000/svg" xmlns:xlink="http://www.w3.org/1999/xlink" x="0px" y="0px"
	 viewBox="0 0 481.9 354.5" style="enable-background:new 0 0 481.9 354.5;" xml:space="preserve">
<path d="M38.9,110.7c-0.1,0.8-0.2,1.6-0.2,2.4v223c0,10,8.1,18,18,18h40.5c10,0,18-8.1,18-18v-149l-11-11.1L38.9,110.7z M95.2,334.1
	H58.7V158.8L90,190.1l5.2,5.2V334.1z M481.9,259.4c-1.3-26.7-2.6-53.3-3.5-79.9c-0.2-4.9-1.3-9.2-6.2-11.9c-1.6-0.8-2.9-1.2-4.1-1.2
	c-3.2,0-5.5,2.5-7.8,4.8c-6.4,6.4-12.8,12.9-19.3,19.3c-0.9,0.9-1.8,1.7-2.7,2.5l-2.7,2.7l-91.5-91.5l-16.6-16.6L245.2,5.3
	c-3.6-3.5-8.1-5.3-12.8-5.3s-9.3,1.8-12.8,5.3L117,107.9L35.4,26.3c-3.6-3.5-8.1-5.3-12.8-5.3c-4.7,0-9.3,1.8-12.8,5.3l-4.5,4.5
	c-7,7-7,18.5,0,25.5l94.2,94.3l4.5,4.5c3.6,3.5,8.1,5.3,12.8,5.3s9.3-1.8,12.8-5.3L232.3,52.5l173.2,173.2
	c-8.5,8.2-16.8,16.7-25.2,25.1c-2.9,2.9-5.5,5.8-3.2,10.9c2.4,5.1,6.5,5.3,10.8,5.5c27.3,1.4,54.6,2.6,81.9,3.9c0.5,0,0.9,0,1.3,0
	C478.9,271.1,482.3,267.5,481.9,259.4z M364.4,267.6c-6.5-14.1,2.9-23.5,6-26.6c2.2-2.2,4.4-4.5,6.7-6.7c2.7-2.7,5.4-5.4,8.1-8.1
	L385,226l-29.1-29.1c-0.1,0.9-0.2,1.7-0.2,2.6v136.7c0,10,8.1,18,18,18h40.5c10,0,18-8.1,18-18v-52.8c-14.1-0.7-29-1.4-45-2.1
	C382.2,281,370.3,280.4,364.4,267.6z M412.2,334.2h-36.5v-34.3c4.4,1,8,1.2,10.2,1.4h0.1c0.1,0,0.2,0,0.3,0
	c8.8,0.4,17.3,0.8,25.9,1.2V334.2z M161.8,145l-17.5,17.6v173.5h0.1c0,10,8.1,18,18,18h40.5c10,0,18-8.1,18-18V97.6
	c0-3.3-0.9-6.4-2.5-9.1L161.8,145z M200.9,334.1h-36.6V170.9l11.6-11.7l25-25V334.1z M255.3,95.2c-3.2,3.3-5.2,7.7-5.2,12.7v228.2
	c0,10,8.1,18,18,18h40.5c10,0,18-8.1,18-18V166.4L311,150.9L255.3,95.2z M306.6,334.1h-36.5V138.3l26.8,26.8l9.7,9.6V334.1z"/>
</svg>
