<?xml version="1.0" encoding="utf-8"?>
<!-- Generator: Adobe Illustrator 26.5.0, SVG Export Plug-In . SVG Version: 6.00 Build 0)  -->
<svg version="1.1" id="Layer_1" xmlns="http://www.w3.org/2000/svg" xmlns:xlink="http://www.w3.org/1999/xlink" x="0px" y="0px"
	 viewBox="0 0 500 500" style="enable-background:new 0 0 500 500;" xml:space="preserve">
<path d="M73.8,327.8c-3.4,3.4-7.4,6.1-11.7,8v62.3c0,9.3,7.5,16.7,16.7,16.7h37.7c9.3,0,16.7-7.5,16.7-16.7V271
	c0-0.8-0.1-1.7-0.2-2.4L73.8,327.8z M114.6,396.2H80.7v-49.8c2.2-1.7,4.3-3.4,6.2-5.4l27.7-27.7V396.2z M366.9,249.2l-10.3,10.3
	v138.5c0,9.3,7.5,16.7,16.7,16.7H411c9.3,0,16.7-7.5,16.7-16.7V190.7c0-0.7-0.1-1.5-0.2-2.2L366.9,249.2z M409.1,396.2h-33.9V267.2
	l4.9-4.9l29-29.1V396.2z M464.1,85.2c-0.4,0-0.8,0-1.2,0c-25.4,1.2-50.8,2.4-76.1,3.6c-4,0.2-7.9,0.4-10,5.1
	c-2.2,4.7,0.3,7.4,3,10.1c7.8,7.8,15.4,15.7,23.4,23.3l-161,161L146.6,193c-3.3-3.3-7.5-4.9-11.9-4.9c-4.4,0-8.6,1.7-11.9,4.9
	l-4.2,4.2l-87.8,87.8c-6.5,6.5-6.5,17.2,0,23.7l4.2,4.2c3.3,3.3,7.5,4.9,11.9,4.9s8.6-1.7,11.9-4.9l75.9-75.9l95.3,95.5
	c3.3,3.3,7.5,4.9,11.9,4.9s8.6-1.7,11.9-4.9l76.5-76.5l15.4-15.4l85.1-85.2l2.5,2.5c0.9,0.8,1.8,1.6,2.5,2.3c6,5.9,12,12,17.9,17.9
	c2.2,2.1,4.3,4.5,7.3,4.5c1.1,0,2.4-0.4,3.8-1.1c4.6-2.5,5.6-6.5,5.8-11.1c1-24.7,2.3-49.5,3.4-74.3
	C474.4,88.7,471.2,85.2,464.1,85.2z M162.5,294.7c-1.5,2.5-2.3,5.4-2.3,8.5V398c0,9.3,7.5,16.7,16.7,16.7h37.7
	c9.3,0,16.7-7.5,16.7-16.7v-41.1c-5.9-1.7-11.5-4.9-16.2-9.6L162.5,294.7z M212.7,396.2h-33.9v-58.9l23.2,23.2
	c3.3,3.3,6.9,6,10.7,8.5V396.2z M272.9,343.2l-4.2,4.2c-3.1,3.1-6.6,5.6-10.3,7.3v43.3c0,9.3,7.5,16.7,16.7,16.7h37.7
	c9.3,0,16.7-7.5,16.7-16.7v-94.8c0-4.6-1.9-8.7-4.8-11.8L272.9,343.2z M310.9,396.2H277v-31.3c1.7-1.3,3.3-2.8,4.8-4.4l4.2-4.2
	l24.9-24.8V396.2z"/>
</svg>
