<?xml version="1.0" encoding="utf-8"?>
<!-- Generator: Adobe Illustrator 26.5.0, SVG Export Plug-In . SVG Version: 6.00 Build 0)  -->
<svg version="1.1" id="Layer_1" xmlns="http://www.w3.org/2000/svg" xmlns:xlink="http://www.w3.org/1999/xlink" x="0px" y="0px"
	 viewBox="0 0 500 500" style="enable-background:new 0 0 500 500;" xml:space="preserve">
<path d="M121.8,310.7h63.5c5.6,0,10.1-4.6,10.1-10.1v-42.2c0-5.6-4.5-10.1-10.1-10.1h-63.5c-5.6,0-10.1,4.5-10.1,10.1v42.2
	C111.6,306.2,116.2,310.7,121.8,310.7z M131.9,268.5h43.2v21.9h-43.2C131.9,290.5,131.9,268.5,131.9,268.5z M314.8,385.1h63.5
	c5.6,0,10.1-4.5,10.1-10.1v-42.2c0-5.6-4.5-10.1-10.1-10.1h-63.5c-5.6,0-10.1,4.5-10.1,10.1V375
	C304.7,380.6,309.2,385.1,314.8,385.1z M324.9,342.9h43.2v21.9h-43.2V342.9z M384.3,109.6h-39.5V85.8c0-8.1-6.5-14.6-14.6-14.6
	s-14.6,6.5-14.6,14.6l-0.1,23.9h-135V85.8c0-8.1-6.5-14.6-14.6-14.6c-8.1,0-14.6,6.5-14.6,14.6v23.9h-35.4
	c-24.6,0-44.6,19.9-44.6,44.6v230.2c0,24.6,19.9,44.6,44.6,44.6h268.6c24.6,0,44.6-19.9,44.6-44.6V154.2
	C428.9,129.6,409,109.6,384.3,109.6z M399.5,384.4c0,8.4-6.8,15.2-15.2,15.2H115.8c-8.4,0-15.2-6.8-15.2-15.2V241.3h298.9
	L399.5,384.4L399.5,384.4z M399.5,212H100.6v-57.8c0-8.4,6.8-15.2,15.2-15.2h35.5v17.2c0,8.1,6.5,14.6,14.6,14.6s14.6-6.5,14.6-14.6
	V139h135v17.2c0,8.1,6.5,14.6,14.6,14.6c8.1,0,14.6-6.5,14.6-14.6V139h39.4c8.4,0,15.2,6.8,15.2,15.2L399.5,212L399.5,212z
	 M314.8,310.7h63.5c5.6,0,10.1-4.6,10.1-10.1v-42.2c0-5.6-4.5-10.1-10.1-10.1h-63.5c-5.6,0-10.1,4.5-10.1,10.1v42.2
	C304.7,306.2,309.2,310.7,314.8,310.7z M324.9,268.5h43.2v21.9h-43.2V268.5z M218.3,385.1h63.5c5.6,0,10.1-4.5,10.1-10.1v-42.2
	c0-5.6-4.5-10.1-10.1-10.1h-63.5c-5.6,0-10.1,4.5-10.1,10.1V375C208.2,380.6,212.7,385.1,218.3,385.1z M228.4,342.9h43.2v21.9h-43.2
	L228.4,342.9L228.4,342.9z M218.3,310.7h63.5c5.6,0,10.1-4.6,10.1-10.1v-42.2c0-5.6-4.5-10.1-10.1-10.1h-63.5
	c-5.6,0-10.1,4.5-10.1,10.1v42.2C208.2,306.2,212.7,310.7,218.3,310.7z M228.4,268.5h43.2v21.9h-43.2L228.4,268.5L228.4,268.5z
	 M121.8,385.1h63.5c5.6,0,10.1-4.5,10.1-10.1v-42.2c0-5.6-4.5-10.1-10.1-10.1h-63.5c-5.6,0-10.1,4.5-10.1,10.1V375
	C111.6,380.6,116.2,385.1,121.8,385.1z M131.9,342.9h43.2v21.9h-43.2C131.9,364.9,131.9,342.9,131.9,342.9z"/>
</svg>
