<?xml version="1.0" encoding="utf-8"?>
<!-- Generator: Adobe Illustrator 26.5.0, SVG Export Plug-In . SVG Version: 6.00 Build 0)  -->
<svg version="1.1" id="Layer_1" xmlns="http://www.w3.org/2000/svg" xmlns:xlink="http://www.w3.org/1999/xlink" x="0px" y="0px"
	 viewBox="0 0 529.8 530.1" style="enable-background:new 0 0 529.8 530.1;" xml:space="preserve">
<path d="M93.91,346.01h84.6c7.47,0,13.5-6.12,13.5-13.5v-56.25c0-7.47-6.03-13.5-13.5-13.5h-84.6c-7.47,0-13.5,6.03-13.5,13.5v56.25
	C80.41,339.98,86.43,346.01,93.91,346.01z M107.41,289.76h57.6v29.25h-57.6V289.76z M351.31,445.19h84.6c7.47,0,13.5-6.03,13.5-13.5
	v-56.25c0-7.47-6.03-13.5-13.5-13.5h-84.6c-7.47,0-13.5,6.03-13.5,13.5v56.25C337.81,439.16,343.84,445.19,351.31,445.19z
	 M364.81,388.94h57.6v29.25h-57.6V388.94z M444.01,77.9h-52.65V46.04c0-10.8-8.73-19.53-19.53-19.53s-19.53,8.73-19.53,19.53
	l-0.09,31.86h-180V46.04c0-10.8-8.73-19.53-19.53-19.53c-10.8,0-19.53,8.73-19.53,19.53V77.9H85.9c-32.76,0-59.4,26.55-59.4,59.4
	v306.99c0,32.76,26.55,59.4,59.4,59.4h358.11c32.76,0,59.4-26.55,59.4-59.4V137.3C503.41,104.54,476.86,77.9,444.01,77.9z
	 M464.16,444.29c0,11.16-9.09,20.25-20.25,20.25H85.9c-11.16,0-20.25-9.09-20.25-20.25v-190.8h398.52V444.29z M464.16,214.34H65.65
	V137.3c0-11.16,9.09-20.25,20.25-20.25h47.34V140c0,10.8,8.73,19.53,19.53,19.53c10.8,0,19.53-8.73,19.53-19.53v-22.95h180V140
	c0,10.8,8.73,19.53,19.53,19.53s19.53-8.73,19.53-19.53v-22.95l52.56,0c11.16,0,20.25,9.09,20.25,20.25V214.34z M351.31,346.01h84.6
	c7.47,0,13.5-6.12,13.5-13.5v-56.25c0-7.47-6.03-13.5-13.5-13.5h-84.6c-7.47,0-13.5,6.03-13.5,13.5v56.25
	C337.81,339.98,343.84,346.01,351.31,346.01z M364.81,289.76h57.6v29.25h-57.6V289.76z M222.61,445.19h84.6
	c7.47,0,13.5-6.03,13.5-13.5v-56.25c0-7.47-6.03-13.5-13.5-13.5h-84.6c-7.47,0-13.5,6.03-13.5,13.5v56.25
	C209.11,439.16,215.13,445.19,222.61,445.19z M236.11,388.94h57.6v29.25h-57.6V388.94z M222.61,346.01h84.6
	c7.47,0,13.5-6.12,13.5-13.5v-56.25c0-7.47-6.03-13.5-13.5-13.5h-84.6c-7.47,0-13.5,6.03-13.5,13.5v56.25
	C209.11,339.98,215.13,346.01,222.61,346.01z M236.11,289.76h57.6v29.25h-57.6V289.76z M93.91,445.19h84.6
	c7.47,0,13.5-6.03,13.5-13.5v-56.25c0-7.47-6.03-13.5-13.5-13.5h-84.6c-7.47,0-13.5,6.03-13.5,13.5v56.25
	C80.41,439.16,86.43,445.19,93.91,445.19z M107.41,388.94h57.6v29.25h-57.6V388.94z"/>
</svg>
