<?xml version="1.0" encoding="utf-8"?>
<!-- Generator: Adobe Illustrator 26.5.0, SVG Export Plug-In . SVG Version: 6.00 Build 0)  -->
<svg version="1.1" id="Layer_1" xmlns="http://www.w3.org/2000/svg" xmlns:xlink="http://www.w3.org/1999/xlink" x="0px" y="0px"
	 viewBox="0 0 437.5 507.5" style="enable-background:new 0 0 437.5 507.5;" xml:space="preserve">
<path d="M124.8,300.4v-33.1c-12-0.2-23.9-5.1-32.6-13.6l-0.4-0.4c-8.9-8.9-14-21.2-14-33.7v-7.2H58c-11.6,24.1-17.8,50.7-17.8,77.6
	c0,7.5,0.5,14.9,1.4,22.2L124.8,300.4z M64.7,238.5c3.1,9.8,8.4,18.8,15.8,26.1c0,0,0.1,0.1,0.1,0.1l0.4,0.4c0,0,0.1,0.1,0.1,0.1
	c7.8,7.5,17.4,13,27.8,15.8v5.5L56.3,294c0-1.3,0-2.6,0-3.9C56.3,272.6,59.1,255.1,64.7,238.5z M217.5,168.6c15,0,29.7-6,40.2-16.6
	l0,0l0,0c10.7-10.8,16.5-25,16.5-40.1c0-15-6-29.7-16.6-40.2l0,0l0,0c-10.8-10.7-25-16.5-40.1-16.5c-15.1,0-29.8,6.1-40.3,16.7
	c-10.7,10.8-16.5,25-16.5,40.1c0,15.2,5.9,29.4,16.7,40.1C188.1,162.7,202.3,168.6,217.5,168.6z M187.9,82.2
	c7.8-7.9,18.5-12.2,29.6-12.2s21.7,4.4,29.6,12.2c7.8,7.8,12.2,18.5,12.2,29.6c0,11.1-4.4,21.7-12.2,29.6
	c-7.8,7.8-18.5,12.2-29.6,12.2s-21.7-4.4-29.5-12.3c-7.9-7.8-12.3-18.4-12.3-29.5C175.7,100.7,180.1,90.1,187.9,82.2z M404.5,173.1
	c-20.7-33.2-50-60.3-84.8-78.4c-2.7-34.8-22.9-65.9-53.6-82.4c-15.2-8.2-31.9-12.2-48.6-12.2c-17.1,0-34.2,4.3-49.7,12.8
	c-30.5,16.9-50.3,48.3-52.5,83.1c-34.9,18.7-64,46.5-84.3,80.4c-20.4,34-31.1,72.8-31,112.3c0,120.6,98.1,218.8,218.8,218.8
	s218.7-98.1,218.7-218.8C437.5,247.9,426.1,207.8,404.5,173.1z M218.8,492.5C106.4,492.5,15,401.1,15,288.7
	c-0.1-36.8,9.9-72.9,28.9-104.6c18.9-31.6,46.1-57.5,78.5-74.9l7.4-3.9l0.5-8.3c0.9-14.6,5.5-28.8,13.4-41.2
	c7.8-12.4,18.7-22.7,31.4-29.7c12.9-7.2,27.6-10.9,42.4-10.9c14.5,0,28.8,3.6,41.5,10.4c12.8,6.9,23.9,17,31.8,29.3
	c8,12.3,12.8,26.5,13.9,41l0.6,8.3l7.4,3.8c32.4,16.8,59.7,42.1,79,73c20.1,32.3,30.7,69.5,30.7,107.7
	C422.5,401.1,331.1,492.5,218.8,492.5z M413.7,277.2c-1.4-21.4-6.3-42.2-14.5-62.1c-8.3-19.8-19.6-38-33.7-54.1
	c-14.2-16.1-30.8-29.7-49.4-40.3l-18.6-10.6l-3.6,21.1c-2.9,16.7-13.2,41.4-29.9,71.5c-13.6,24.5-29,48-38.2,60.4
	c-1.8,2.4-4.7,3.8-7.7,3.8c-3,0-5.9-1.4-7.6-3.7l-0.1-0.1l-0.1-0.1c-19.6-26.2-61-93.6-68-130.9l-3.9-21l-18.4,10.9
	c-21.6,12.8-40.3,29.3-55.6,49.2l-18.6,24.1h30.5h2c4.5,0.1,8.6,1.8,11.6,4.8l0,0l0,0c3,2.9,4.7,7.1,4.7,11.4v7.9
	c0,8.1,3.3,16,9,21.7l0.1,0.1l0.1,0.1c5.8,5.6,13.6,8.8,21.4,8.8c4.5,0.1,8.6,1.8,11.6,4.8l0,0l0,0c3,2.9,4.7,7.1,4.7,11.4V301
	c0,3.8-1.4,7.6-4,10.7c-2.6,3-6.2,4.9-10,5.5l-82.2,11.7L28,331.3l5.3,16.9c11.5,36.6,33.4,68.8,63.3,93.1
	c30.4,24.7,66.9,39.5,105.8,42.8l16.2,1.4l0.1-16.3l0.3-69.7l0,0v0c0-6.4,2.5-12.5,7-17s10.6-7,17-7c10.1,0,20-4.1,27.2-11.3
	c7.3-7.3,11.3-16.9,11.3-27.2v-15.9c0-6.4,2.5-12.5,7-17s10.6-7,17-7H321c6.5,0,12.5,2.5,17,6.9c4.5,4.5,7,10.6,7,17
	c0,8.1,3.3,16,9,21.7l0.1,0.1l0.1,0.1c5.8,5.6,13.6,8.8,21.5,8.8h17.2h11.5l3-11.1C413,319.9,415.1,298.6,413.7,277.2z M392.9,336.7
	h-17.2c-4.1,0-8.1-1.7-11.1-4.6c-2.9-2.9-4.6-6.9-4.6-11.1c0-10.4-4.1-20.3-11.4-27.6c-7.3-7.3-17.2-11.3-27.6-11.3h-15.6
	c-10.4,0-20.3,4.1-27.6,11.4c-7.3,7.3-11.4,17.2-11.4,27.6V337c0,6.3-2.5,12.2-6.9,16.6c-4.4,4.4-10.4,6.9-16.6,6.9
	c-10.4,0-20.3,4.1-27.6,11.4c-7.3,7.3-11.4,17.2-11.4,27.6l-0.3,69.7C130,462.9,69,411.9,47.6,343.7l82.3-11.7
	c7.4-1.1,14.2-4.8,19.2-10.5c4.9-5.7,7.7-13,7.7-20.5v-34.4c0-8.3-3.3-16.3-9.2-22.1c-5.9-5.9-13.8-9.1-22.1-9.2
	c-4.1,0-8.1-1.7-11.1-4.6c-2.9-2.9-4.6-6.9-4.6-11.1v-7.9c0-8.3-3.3-16.3-9.2-22.1c-5.9-5.9-13.8-9.1-22.1-9.2h-2.1
	c14-18.2,31.5-33.7,51.3-45.4c8,42.6,53.2,113.7,70.7,137.1c4.6,6.3,12,9.9,19.7,9.9c7.7,0,15.1-3.7,19.7-9.9
	c17.6-23.7,63.6-95.8,70.9-138.3c34.5,19.7,61.4,50.4,76.7,87.1C400.6,257.6,403.3,298.3,392.9,336.7z M342.4,355.2l-0.5-0.4
	c-8.9-8.9-14-21.2-14-33.7c0-1.9-0.7-3.6-2-5c-1.6-1.6-3.6-1.9-5-1.9h-15.6c-1.9,0-3.6,0.7-5,2c-1.3,1.3-2,3-2,5V337
	c0,14.8-5.8,28.7-16.3,39.2c-10.3,10.3-24.6,16.3-39.2,16.3c-1.9,0-3.6,0.7-5,2c-1.3,1.3-2,3-2,5c0,0-0.3,68.1-0.3,68.1
	c61.9-5.8,116.1-43.4,143.3-99h-3.2C363.4,368.7,351.3,363.7,342.4,355.2z M311.2,423.7c-17.9,12.4-38.2,21-59.5,25.4
	c0.1-22.2,0.1-34.4,0.2-41.2c15.6-2,30.4-9.2,41.6-20.4c13.2-13.2,20.7-30.7,21-49.4c2.9,10.4,8.5,20.1,16.3,27.9
	c0,0,0.1,0.1,0.1,0.1l0.5,0.4c0,0,0,0,0.1,0.1c6.4,6.2,14,10.9,22.3,14C342.3,397.5,327.9,412.1,311.2,423.7z"/>
</svg>
