<?xml version="1.0" encoding="utf-8"?>
<!-- Generator: Adobe Illustrator 26.5.0, SVG Export Plug-In . SVG Version: 6.00 Build 0)  -->
<svg version="1.1" id="Layer_1" xmlns="http://www.w3.org/2000/svg" xmlns:xlink="http://www.w3.org/1999/xlink" x="0px" y="0px"
	 viewBox="0 0 500 500" style="enable-background:new 0 0 500 500;" xml:space="preserve">
<g>
	<path d="M146.8,199.6H75.1c-5.6,0-10.9,2.2-14.9,6.2s-6.2,9.3-6.2,14.9v157.2c0,5.6,2.2,10.9,6.2,14.9c4,4,9.3,6.2,14.9,6.2h71.7
		c5.6,0,10.9-2.2,14.9-6.2c4-4,6.2-9.3,6.2-14.9V220.7c0-5.6-2.2-10.9-6.2-14.9C157.7,201.8,152.4,199.6,146.8,199.6z M148.9,377.9
		c0,1.2-1,2.1-2.1,2.1H75.1c-1.2,0-2.1-1-2.1-2.1V220.7c0-1.2,1-2.1,2.1-2.1h71.7c1.2,0,2.1,1,2.1,2.1
		C148.9,220.7,148.9,377.9,148.9,377.9z"/>
	<path d="M239.6,417.9c-23.8,0-52.2-11.5-60.3-43.9c-1.8-7.4,2.6-14.9,10-16.8c1.1-0.3,2.3-0.4,3.4-0.4c6.4,0,11.9,4.3,13.4,10.4
		c5,20,23.4,23.1,34,23.1c1.5,0,2.6-0.1,3.1-0.1c0.3,0,0.6,0,0.7,0h114.7c3.8-0.1,7.6-1.3,10.8-3.5c3.1-2.2,5.6-5.4,6.9-9L417,266.5
		c1.4-3.8,1.6-7.9,0.5-11.6l-4.8-18.1c-1-3.9-3.4-7.5-6.8-10.1c-3.3-2.5-7.4-3.9-11.5-3.9h-88.9c-4.8,0-9.3-2.5-11.7-6.5
		c-2.4-4-2.7-9-0.6-13.3l8.3-16.6c4-56.2-8.2-70.9-13.8-74.6c-2.6-1.5-5.6-2.3-8.6-2.3c-0.9,0-1.7,0.1-2.5,0.2v37.7
		c0,2.5-0.7,5-2.1,7.2l-47.5,76c-2.4,4-6.9,6.5-11.6,6.5h-23.8c-7.6,0-13.7-6.2-13.7-13.7c0-7.6,6.2-13.7,13.7-13.7h16.2l41.3-66.2
		V100c0-5,2.8-9.6,7.2-12.1c0.4-0.3,10.7-5.8,23.8-5.8c8.3,0,16,2.2,22.7,6.6c21.8,14,30.4,47.5,26.1,102.5c-0.1,1.4-0.4,2.8-1,4.2
		h66.7c10.2,0,20.3,3.4,28.3,9.5c8.1,6.1,14.1,14.8,16.8,24.7l4.7,18c2.5,9.5,2.1,19.4-1.4,28.5l-40.7,111
		c-3.4,9.1-9.3,16.8-17.1,22.1c-7.7,5.4-17.2,8.4-26.5,8.4h-113C243.7,417.8,241.6,417.9,239.6,417.9z"/>
	<path d="M440.2,248.7l-4.7-18c-2.4-9-7.8-16.9-15.3-22.4c-7.3-5.6-16.4-8.6-25.8-8.6h-73.5l2.6-5.2l0,0c0.5-1.1,0.9-2.3,1-3.5
		c4.2-53.3-3.8-85.7-24.2-98.7c-19.4-12.6-41.1-1.1-42-0.6l0,0c-3.1,1.7-5,4.8-5,8.4v44.8L210.1,214h-18.5c-5.2,0-9.5,4.3-9.5,9.5
		c0,5.2,4.3,9.5,9.5,9.5h23.8c3.3,0,6.4-1.7,8-4.5l47.5-76c1-1.5,1.5-3.2,1.5-5v-41c5.9-1.9,12.3-1.3,17.6,1.7
		c7.7,5,19.9,21.9,15.8,79.4l-8.6,17.3l0,0c-1.5,3-1.3,6.5,0.4,9.3c1.7,2.8,4.7,4.5,8,4.5h88.8c5.1,0,10.1,1.7,14.1,4.8
		c4.1,3.1,7.1,7.4,8.3,12.4l4.7,18c1.4,4.6,1.1,9.7-0.6,14.2l-40.7,111.1l0,0c-1.6,4.4-4.5,8.3-8.5,11c-3.9,2.7-8.5,4.2-13.2,4.3
		H243.9c-1.5,0-34.6,3.5-42-26.1c-1.3-5.1-6.5-8.1-11.6-6.9c-5.1,1.3-8.1,6.5-6.9,11.6c8.1,32.5,37.5,40.7,56.2,40.7
		c1.8,0,3.8-0.1,5.7-0.3h113.3c8.6,0,17.1-2.7,24.2-7.6c7.2-4.9,12.5-12,15.5-20.1L439,274.8l0,0
		C442.1,266.2,442.5,257.2,440.2,248.7L440.2,248.7z"/>
	<path d="M130,342c0,10.5-8.5,18.9-18.9,18.9s-18.9-8.5-18.9-18.9S100.5,323,111,323S130,331.5,130,342"/>
</g>
</svg>
