<?xml version="1.0" encoding="utf-8"?>
<!-- Generator: Adobe Illustrator 26.5.0, SVG Export Plug-In . SVG Version: 6.00 Build 0)  -->
<svg version="1.1" id="Layer_1" xmlns="http://www.w3.org/2000/svg" xmlns:xlink="http://www.w3.org/1999/xlink" x="0px" y="0px"
	 viewBox="0 0 500 500" style="enable-background:new 0 0 500 500;" xml:space="preserve">
<path d="M175.7,286.9v-26.2c-9.5-0.2-18.9-4-25.8-10.8l-0.3-0.3c-7-7-11.1-16.8-11.1-26.7v-5.7h-15.7c-9.2,19.1-14.1,40.1-14.1,61.4
	c0,5.9,0.4,11.8,1.1,17.6L175.7,286.9z M128.2,237.9c2.5,7.8,6.6,14.9,12.5,20.6l0.1,0.1l0.3,0.3l0.1,0.1c6.2,5.9,13.8,10.3,22,12.5
	v4.3l-41.6,5.9c0-1,0-2.1,0-3.1C121.5,264.9,123.7,251.1,128.2,237.9z M249,182.7c11.9,0,23.5-4.7,31.8-13.1l0,0l0,0
	c8.5-8.5,13-19.8,13-31.7c0-11.9-4.7-23.5-13.1-31.8l0,0l0,0c-8.5-8.5-19.8-13-31.7-13s-23.6,4.8-31.9,13.2
	c-8.5,8.5-13,19.8-13,31.7c0,12,4.7,23.3,13.2,31.7C225.8,178,237,182.7,249,182.7z M225.6,114.3c6.2-6.2,14.6-9.6,23.4-9.6
	c8.8,0,17.2,3.5,23.4,9.6c6.2,6.2,9.6,14.6,9.6,23.4s-3.5,17.2-9.6,23.4c-6.2,6.2-14.6,9.6-23.4,9.6s-17.2-3.5-23.3-9.7
	c-6.2-6.2-9.7-14.6-9.7-23.3C216,129,219.4,120.6,225.6,114.3z M396.9,186.2c-16.4-26.3-39.5-47.7-67.1-62
	c-2.1-27.5-18.1-52.1-42.4-65.2c-12-6.5-25.2-9.6-38.4-9.6c-13.5,0-27,3.4-39.3,10.1c-24.1,13.4-39.8,38.2-41.5,65.7
	c-27.6,14.8-50.6,36.8-66.7,63.6c-16.1,26.9-24.6,57.6-24.5,88.8c0,95.4,77.6,173,173,173s173-77.6,173-173
	C423,245.4,414,213.7,396.9,186.2z M250,438.8c-88.9,0-161.2-72.3-161.2-161.2c-0.1-29.1,7.8-57.7,22.9-82.7
	c14.9-25,36.5-45.5,62.1-59.2l5.9-3.1l0.4-6.6c0.7-11.5,4.3-22.8,10.6-32.6c6.2-9.8,14.8-18,24.8-23.5c10.2-5.7,21.8-8.6,33.5-8.6
	c11.5,0,22.8,2.8,32.8,8.2C292,75,300.7,83,307,92.7c6.3,9.7,10.1,21,11,32.4l0.5,6.6l5.9,3c25.6,13.3,47.2,33.3,62.5,57.7
	c15.9,25.5,24.3,55,24.3,85.2C411.1,366.5,338.9,438.8,250,438.8z M404.2,268.6c-1.1-16.9-5-33.4-11.5-49.1
	c-6.6-15.7-15.5-30.1-26.7-42.8c-11.2-12.7-24.4-23.5-39.1-31.9l-14.7-8.4l-2.8,16.7c-2.3,13.2-10.4,32.7-23.6,56.5
	c-10.8,19.4-22.9,38-30.2,47.8c-1.4,1.9-3.7,3-6.1,3s-4.7-1.1-6-2.9l-0.1-0.1l-0.1-0.1c-15.5-20.7-48.2-74-53.8-103.5l-3.1-16.6
	l-14.6,8.6c-17.1,10.1-31.9,23.2-44,38.9l-14.7,19.1h24.1h1.6c3.6,0.1,6.8,1.4,9.2,3.8l0,0l0,0c2.4,2.3,3.7,5.6,3.7,9v6.2
	c0,6.4,2.6,12.7,7.1,17.2l0.1,0.1l0.1,0.1c4.6,4.4,10.8,7,16.9,7c3.6,0.1,6.8,1.4,9.2,3.8l0,0l0,0c2.4,2.3,3.7,5.6,3.7,9v27.4
	c0,3-1.1,6-3.2,8.5c-2.1,2.4-4.9,3.9-7.9,4.3l-65,9.3l-13.7,1.9l4.2,13.4c9.1,28.9,26.4,54.4,50.1,73.6c24,19.5,52.9,31.2,83.7,33.8
	l12.8,1.1l0.1-12.9l0.2-55.1l0,0l0,0c0-5.1,2-9.9,5.5-13.4c3.6-3.6,8.4-5.5,13.4-5.5c8,0,15.8-3.2,21.5-8.9
	c5.8-5.8,8.9-13.4,8.9-21.5v-12.6c0-5.1,2-9.9,5.5-13.4s8.4-5.5,13.4-5.5h12.3c5.1,0,9.9,2,13.4,5.5c3.6,3.6,5.5,8.4,5.5,13.4
	c0,6.4,2.6,12.7,7.1,17.2l0.1,0.1l0.1,0.1c4.6,4.4,10.8,7,17,7h13.6h9.1l2.4-8.8C403.6,302.3,405.3,285.5,404.2,268.6z M387.7,315.6
	h-13.6c-3.2,0-6.4-1.3-8.8-3.6c-2.3-2.3-3.6-5.5-3.6-8.8c0-8.2-3.2-16.1-9-21.8c-5.8-5.8-13.6-8.9-21.8-8.9h-12.3
	c-8.2,0-16.1,3.2-21.8,9s-9,13.6-9,21.8v12.6c0,5-2,9.6-5.5,13.1s-8.2,5.5-13.1,5.5c-8.2,0-16.1,3.2-21.8,9c-5.8,5.8-9,13.6-9,21.8
	l-0.2,55.1c-58.2-5-106.4-45.3-123.4-99.3l65.1-9.3c5.9-0.9,11.2-3.8,15.2-8.3c3.9-4.5,6.1-10.3,6.1-16.2v-27.2
	c0-6.6-2.6-12.9-7.3-17.5c-4.7-4.7-10.9-7.2-17.5-7.3c-3.2,0-6.4-1.3-8.8-3.6c-2.3-2.3-3.6-5.5-3.6-8.8v-6.2
	c0-6.6-2.6-12.9-7.3-17.5c-4.7-4.7-10.9-7.2-17.5-7.3h-1.7c11.1-14.4,24.9-26.7,40.6-35.9c6.3,33.7,42.1,89.9,55.9,108.4
	c3.6,5,9.5,7.8,15.6,7.8c6.1,0,11.9-2.9,15.6-7.8c13.9-18.7,50.3-75.8,56.1-109.4c27.3,15.6,48.6,39.9,60.7,68.9
	C393.8,253.1,396,285.2,387.7,315.6z M347.8,330.2l-0.4-0.3c-7-7-11.1-16.8-11.1-26.7c0-1.5-0.6-2.8-1.6-4c-1.3-1.3-2.8-1.5-4-1.5
	h-12.3c-1.5,0-2.8,0.6-4,1.6c-1,1-1.6,2.4-1.6,4v12.5c0,11.7-4.6,22.7-12.9,31c-8.1,8.1-19.5,12.9-31,12.9c-1.5,0-2.8,0.6-4,1.6
	c-1,1-1.6,2.4-1.6,4l-0.2,53.9c49-4.6,91.8-34.3,113.3-78.3H374C364.4,340.9,354.8,337,347.8,330.2z M323.1,384.4
	c-14.2,9.8-30.2,16.6-47.1,20.1c0.1-17.6,0.1-27.2,0.2-32.6c12.3-1.6,24-7.3,32.9-16.1c10.4-10.4,16.4-24.3,16.6-39.1
	c2.3,8.2,6.7,15.9,12.9,22.1l0.1,0.1l0.4,0.3c0,0,0,0,0.1,0.1c5.1,4.9,11.1,8.6,17.6,11.1C347.7,363.7,336.3,375.2,323.1,384.4z"/>
</svg>
