<?xml version="1.0" encoding="utf-8"?>
<!-- Generator: Adobe Illustrator 26.5.0, SVG Export Plug-In . SVG Version: 6.00 Build 0)  -->
<svg version="1.1" id="Layer_1" xmlns="http://www.w3.org/2000/svg" xmlns:xlink="http://www.w3.org/1999/xlink" x="0px" y="0px"
	 viewBox="0 0 481.6 481.6" style="enable-background:new 0 0 481.6 481.6;" xml:space="preserve">
<g>
	<path d="M26.9,300.5c10.6-1.9,17.6-12.2,15.7-22.6c-9.9-53.1,1.4-106.7,32-151.2S151.1,52.4,204,42.4c53.1-9.9,106.7,1.4,151.2,32
		c91.9,63,115.2,188.8,52.2,280.6s-188.8,115.2-280.6,52.2c-25.4-17.4-46.1-39.8-61.2-66.5c-2.6-4.7-5.2-9.6-7.5-14.3
		c-0.7-1.7-1.6-3.3-2.3-5c-4.3-9.9-15.8-14.4-25.6-10.1c-9.7,4.3-14.4,15.8-10.1,25.6c0.9,1.9,1.7,4,2.6,5.9
		c2.8,5.7,5.6,11.5,8.9,17.2c18.1,31.8,42.6,58.6,73.1,79.3c41.6,28.5,88.9,42.1,135.9,42.1c76.7,0,152.2-36.5,198.9-104.6
		c75.2-109.4,47.2-259.6-62.3-334.8C324,5.9,260-7.7,196.9,4.2S78.7,51.7,42.3,104.7S-7.6,221.8,4.1,285.2
		C6,295.6,16.2,302.4,26.9,300.5L26.9,300.5z"/>
	<path d="M360.7,371.3c27.5-25.4,45.2-58.1,51.3-94.8c1.7-10.6-5.4-20.7-16-22.4c-10.6-1.9-20.7,5.4-22.4,16
		c-4.7,28-18.3,53.2-39.1,72.6c-7.8,7.3-8.4,19.7-1.2,27.5c3.8,4.2,9,6.3,14.3,6.3C352.2,376.3,357.1,374.6,360.7,371.3L360.7,371.3
		z"/>
	<path d="M264.4,298.6h-51.5c-11.8,0-21.6-9.7-21.6-21.6c0-10.8-8.7-19.5-19.5-19.5c-10.8,0-19.5,8.7-19.5,19.5
		c0,33.4,27.1,60.5,60.5,60.5h6.3v22.1c0,10.8,8.7,19.5,19.5,19.5s19.5-8.7,19.5-19.5v-22.1h6.3c33.4,0,60.5-27.1,60.5-60.5
		s-27.1-60.5-60.5-60.5h-51.5c-11.8,0-21.6-9.7-21.6-21.6s9.7-21.6,21.6-21.6h51.5c11.8,0,21.6,9.7,21.6,21.6
		c0,10.8,8.7,19.5,19.5,19.5c10.8,0,19.5-8.7,19.5-19.5c0-33.4-27.1-60.5-60.5-60.5h-6.3v-17.2c0-10.8-8.7-19.5-19.5-19.5
		c-10.8,0-19.5,8.7-19.5,19.5v17.2h-6.3c-33.4,0-60.5,27.1-60.5,60.5s27.1,60.5,60.5,60.5h51.5c11.8,0,21.6,9.7,21.6,21.6
		C285.9,288.8,276.4,298.6,264.4,298.6L264.4,298.6z"/>
</g>
</svg>
