<?xml version="1.0" encoding="utf-8"?>
<!-- Generator: Adobe Illustrator 26.5.0, SVG Export Plug-In . SVG Version: 6.00 Build 0)  -->
<svg version="1.1" id="Layer_1" xmlns="http://www.w3.org/2000/svg" xmlns:xlink="http://www.w3.org/1999/xlink" x="0px" y="0px"
	 viewBox="0 0 500 500" style="enable-background:new 0 0 500 500;" xml:space="preserve">
<g>
	<path d="M78.5,297.8c8.5-1.5,14.1-9.8,12.6-18.1c-7.9-42.6,1.1-85.6,25.7-121.2s61.3-59.6,103.8-67.6c42.6-7.9,85.6,1.1,121.2,25.7
		c73.7,50.5,92.4,151.4,41.9,225s-151.4,92.4-225,41.9c-20.4-14-37-31.9-49.1-53.3c-2.1-3.8-4.2-7.7-6-11.5c-0.6-1.4-1.3-2.6-1.8-4
		c-3.4-7.9-12.7-11.5-20.5-8.1c-7.8,3.4-11.5,12.7-8.1,20.5c0.7,1.5,1.4,3.2,2.1,4.7c2.2,4.6,4.5,9.2,7.1,13.8
		c14.5,25.5,34.2,47,58.6,63.6c33.4,22.9,71.3,33.8,109,33.8c61.5,0,122-29.3,159.5-83.9c60.3-87.7,37.8-208.1-50-268.4
		c-42.7-28.9-94-39.8-144.6-30.3s-94.8,38.1-124,80.6s-40,93.9-30.6,144.7C61.7,293.9,69.9,299.4,78.5,297.8L78.5,297.8z"/>
	<path d="M346.1,354.6c22-20.4,36.2-46.6,41.1-76c1.4-8.5-4.3-16.6-12.8-18c-8.5-1.5-16.6,4.3-18,12.8
		c-3.8,22.5-14.7,42.7-31.4,58.2c-6.3,5.9-6.7,15.8-1,22c3,3.4,7.2,5.1,11.5,5.1C339.3,358.6,343.3,357.3,346.1,354.6L346.1,354.6z"
		/>
	<path d="M268.9,296.3h-41.3c-9.5,0-17.3-7.8-17.3-17.3c0-8.7-7-15.6-15.6-15.6c-8.7,0-15.6,7-15.6,15.6c0,26.8,21.7,48.5,48.5,48.5
		h5.1v17.7c0,8.7,7,15.6,15.6,15.6c8.7,0,15.6-7,15.6-15.6v-17.7h5.1c26.8,0,48.5-21.7,48.5-48.5s-21.7-48.5-48.5-48.5h-41.3
		c-9.5,0-17.3-7.8-17.3-17.3c0-9.5,7.8-17.3,17.3-17.3h41.3c9.5,0,17.3,7.8,17.3,17.3c0,8.7,7,15.6,15.6,15.6s15.6-7,15.6-15.6
		c0-26.8-21.7-48.5-48.5-48.5H264v-13.8c0-8.7-7-15.6-15.6-15.6c-8.7,0-15.6,7-15.6,15.6v13.8h-5.1c-26.8,0-48.5,21.7-48.5,48.5
		s21.7,48.5,48.5,48.5h41.3c9.5,0,17.3,7.8,17.3,17.3C286.2,288.5,278.6,296.3,268.9,296.3L268.9,296.3z"/>
</g>
</svg>
