<?xml version="1.0" encoding="utf-8"?>
<!-- Generator: Adobe Illustrator 26.5.0, SVG Export Plug-In . SVG Version: 6.00 Build 0)  -->
<svg version="1.1" id="Layer_1" xmlns="http://www.w3.org/2000/svg" xmlns:xlink="http://www.w3.org/1999/xlink" x="0px" y="0px"
	 viewBox="0 0 500 500" style="enable-background:new 0 0 500 500;" xml:space="preserve">
<style type="text/css">
	.st0{fill-rule:evenodd;clip-rule:evenodd;}
</style>
<g>
	<g>
		<path d="M404.4,186.7v215.9H95.6V186.7H404.4 M195.3,375.9c5.6,3.3,11.9,5,18.3,5c6.2,0,12.3-1.6,17.6-4.6l91.3-50.6
			c11.5-6.4,18.6-18.5,18.6-31.6c0-13.2-7.1-25.3-18.7-31.6l-91.3-50.8h-0.1H231c-5.4-2.9-11.4-4.5-17.5-4.5
			c-6.3,0-12.6,1.6-18.1,4.8l-0.1,0.1l-0.1,0.1c-11,6.5-17.9,18.5-17.9,31.2v101.5C177.4,357.5,184.2,369.5,195.3,375.9
			 M415.6,160.7H84.4c-8.2,0-14.9,6.7-14.9,14.9v238.2c0,8.2,6.7,14.9,14.9,14.9h331.2c8.2,0,14.9-6.7,14.9-14.9V175.6
			C430.5,167.4,423.8,160.7,415.6,160.7L415.6,160.7z M213.6,354.8c-1.8,0-3.6-0.4-5.1-1.4c-3.1-1.9-5.1-5.1-5.1-8.7V243.2
			c0-3.6,1.9-6.9,5.1-8.7c1.6-0.9,3.3-1.3,5.1-1.3c1.7,0,3.4,0.4,5,1.3l91.3,50.7c3.3,1.8,5.2,5.2,5.2,8.9c0,3.6-2,7.1-5.2,8.9
			l-91.4,50.7C217,354.4,215.3,354.8,213.6,354.8L213.6,354.8z"/>
	</g>
	<path class="st0" d="M124,145.8h254.4c8.2,0,14.9-6.7,14.9-14.9s-6.7-14.9-14.9-14.9H124c-8.2,0-14.9,6.7-14.9,14.9
		S115.8,145.8,124,145.8L124,145.8z"/>
	<path class="st0" d="M183.5,101.1h135.3c8.2,0,14.9-6.7,14.9-14.9s-6.7-14.9-14.9-14.9H183.5c-8.2,0-14.9,6.7-14.9,14.9
		S175.3,101.1,183.5,101.1z"/>
</g>
</svg>
