<?xml version="1.0" encoding="utf-8"?>
<!-- Generator: Adobe Illustrator 26.5.0, SVG Export Plug-In . SVG Version: 6.00 Build 0)  -->
<svg version="1.1" id="Layer_1" xmlns="http://www.w3.org/2000/svg" xmlns:xlink="http://www.w3.org/1999/xlink" x="0px" y="0px"
	 viewBox="0 0 485 480" style="enable-background:new 0 0 485 480;" xml:space="preserve">
<style type="text/css">
	.st0{fill-rule:evenodd;clip-rule:evenodd;}
</style>
<g>
	<g>
		<path d="M450,155v290H35V155H450 M169,409.1c7.5,4.4,16,6.7,24.6,6.7c8.3,0,16.5-2.1,23.7-6.2l122.7-68c15.4-8.6,25-24.9,25-42.5
			c0-17.7-9.6-34-25.1-42.5l-122.7-68.2l-0.1,0l-0.1,0c-7.2-3.9-15.3-6-23.5-6c-8.5,0-16.9,2.2-24.3,6.5l-0.2,0.1l-0.2,0.1
			c-14.8,8.7-24,24.8-24,41.9v136.4C144.9,384.4,154.1,400.5,169,409.1 M465,120H20c-11,0-20,9-20,20v320c0,11,9,20,20,20h445
			c11,0,20-9,20-20V140C485,129,476,120,465,120L465,120z M193.6,380.8c-2.4,0-4.8-0.6-6.9-1.9c-4.2-2.5-6.8-6.9-6.8-11.7V230.8
			c0-4.8,2.6-9.3,6.8-11.7c2.1-1.2,4.5-1.8,6.9-1.8c2.3,0,4.6,0.6,6.7,1.7L323,287.1c4.4,2.4,7,7,7,11.9s-2.7,9.5-7,11.9
			l-122.8,68.1C198.2,380.2,195.9,380.8,193.6,380.8L193.6,380.8z"/>
	</g>
	<path class="st0" d="M73.2,100H415c11,0,20-9,20-20s-9-20-20-20H73.2c-11,0-20,9-20,20S62.2,100,73.2,100L73.2,100z"/>
	<path class="st0" d="M153.2,40H335c11,0,20-9,20-20s-9-20-20-20H153.2c-11,0-20,9-20,20S142.2,40,153.2,40z"/>
</g>
</svg>
