<?xml version="1.0" encoding="utf-8"?>
<!-- Generator: Adobe Illustrator 26.5.0, SVG Export Plug-In . SVG Version: 6.00 Build 0)  -->
<svg version="1.1" id="Layer_1" xmlns="http://www.w3.org/2000/svg" xmlns:xlink="http://www.w3.org/1999/xlink" x="0px" y="0px"
	 viewBox="0 0 446.4 446.3" style="enable-background:new 0 0 446.4 446.3;" xml:space="preserve">
<g>
	<path d="M372.3,298.2c-20.9,0-40.7,8.8-54.8,24.2L256,283.7v0c19.1-38.1,19.1-82.9,0-121l61.6-38.7v0
		c16.8,18.4,41.7,27.1,66.3,23.2c24.6-3.9,45.6-19.9,55.9-42.6c10.3-22.7,8.5-49-4.8-70.1C421.7,13.5,398.7,0.5,373.8,0
		c-24.9-0.5-48.4,11.5-62.5,32c-14.1,20.5-17,46.7-7.7,69.8l-61.6,38.7c-23.1-29.9-57.8-48.8-95.5-52c-37.7-3.2-75,9.5-102.9,35.1
		C15.9,149.3,0,185.4,0,223.2s15.9,73.9,43.7,99.5c27.9,25.6,65.2,38.3,102.9,35.1c37.7-3.2,72.3-22.1,95.5-52l61.6,38.7
		c-8,19.8-7.1,42,2.5,61c9.6,19,26.9,33,47.5,38.4c20.6,5.4,42.5,1.6,60.2-10.3c17.7-11.9,29.3-30.9,32-52
		c2.7-21.1-3.8-42.4-17.9-58.4C413.9,307.3,393.6,298.2,372.3,298.2L372.3,298.2z M372.3,26.2c12.7,0,24.9,5.1,33.9,14
		s14,21.2,14,33.9c0,12.7-5.1,24.9-14,33.9c-9,9-21.2,14-33.9,14c-12.7,0-24.9-5.1-33.9-14c-9-9-14-21.2-14-33.9
		c0-12.7,5.1-24.9,14.1-33.9C347.4,31.2,359.6,26.2,372.3,26.2L372.3,26.2z M135.2,114.2c35.1,0,68.1,16.9,88.5,45.5
		s25.9,65.2,14.7,98.4c-11.4-13.4-25.3-24.6-40.9-32.7c6.2-19.9,2.7-41.5-9.7-58.3c-12.3-16.8-31.9-26.7-52.7-26.7
		c-20.8,0-40.4,9.9-52.7,26.7c-12.3,16.8-15.9,38.4-9.7,58.3c-15.6,8.2-29.5,19.3-40.9,32.7c-11.2-33.3-5.8-69.9,14.7-98.4
		C67.1,131.1,100.1,114.2,135.2,114.2L135.2,114.2z M174.4,205.8L174.4,205.8c0,10.4-4.1,20.4-11.5,27.7
		c-7.4,7.4-17.3,11.5-27.7,11.5c-10.4,0-20.4-4.1-27.7-11.5c-7.4-7.4-11.5-17.3-11.5-27.7c0-10.4,4.1-20.4,11.5-27.7
		c7.4-7.4,17.3-11.5,27.7-11.5c10.4,0,20.4,4.1,27.7,11.5C170.3,185.4,174.4,195.4,174.4,205.8L174.4,205.8z M135.2,332.2
		c-36.2,0-70-18-90.3-48c10.3-15.2,24.3-27.6,40.6-36c12.4,14.5,30.5,22.9,49.6,22.9c19.1,0,37.2-8.4,49.6-22.9
		c16.3,8.4,30.3,20.8,40.6,36C205.2,314.2,171.4,332.2,135.2,332.2z M372.3,420.2L372.3,420.2c-12.7,0-24.9-5.1-33.9-14
		c-9-9-14-21.2-14-33.9c0-12.7,5.1-24.9,14-33.9c9-9,21.2-14,33.9-14c12.7,0,24.9,5.1,33.9,14c9,9,14,21.2,14,33.9
		c0,12.7-5.1,24.9-14.1,33.9S385.1,420.2,372.3,420.2L372.3,420.2z"/>
</g>
</svg>
