<?xml version="1.0" encoding="utf-8"?>
<!-- Generator: Adobe Illustrator 26.5.0, SVG Export Plug-In . SVG Version: 6.00 Build 0)  -->
<svg version="1.1" id="Layer_1" xmlns="http://www.w3.org/2000/svg" xmlns:xlink="http://www.w3.org/1999/xlink" x="0px" y="0px"
	 viewBox="0 0 500 500" style="enable-background:new 0 0 500 500;" xml:space="preserve">
<g>
	<path d="M396.9,323.9c-20.6,0-40.1,8.7-54,23.8l-60.6-38.1l0,0c18.8-37.5,18.8-81.7,0-119.2l60.7-38.1l0,0
		c16.5,18.1,41.1,26.7,65.3,22.9c24.2-3.8,44.9-19.6,55.1-42s8.4-48.3-4.7-69.1c-13.1-20.7-35.8-33.5-60.3-34
		c-24.5-0.5-47.7,11.3-61.6,31.5s-16.7,46-7.6,68.8l-60.7,38.1c-22.8-29.5-56.9-48.1-94.1-51.2c-37.1-3.2-73.9,9.4-101.4,34.6
		c-27.3,25.3-43,60.9-43,98.1s15.7,72.8,43,98c27.5,25.2,64.2,37.7,101.4,34.6c37.1-3.2,71.2-21.8,94.1-51.2l60.7,38.1
		c-7.9,19.5-7,41.4,2.5,60.1c9.5,18.7,26.5,32.5,46.8,37.8s41.9,1.6,59.3-10.1s28.9-30.4,31.5-51.2s-3.7-41.8-17.6-57.5
		C437.9,332.9,417.9,323.9,396.9,323.9L396.9,323.9z M396.9,56c12.5,0,24.5,5,33.4,13.8s13.8,20.9,13.8,33.4s-5,24.5-13.8,33.4
		c-8.9,8.9-20.9,13.8-33.4,13.8s-24.5-5-33.4-13.8c-8.9-8.9-13.8-20.9-13.8-33.4s5-24.5,13.9-33.4C372.4,60.9,384.4,56,396.9,56
		L396.9,56z M163.3,142.7c34.6,0,67.1,16.6,87.2,44.8c20.1,28.2,25.5,64.2,14.5,96.9c-11.2-13.2-24.9-24.2-40.3-32.2
		c6.1-19.6,2.7-40.9-9.6-57.4c-12.1-16.5-31.4-26.3-51.9-26.3s-39.8,9.8-51.9,26.3s-15.7,37.8-9.6,57.4c-15.4,8.1-29.1,19-40.3,32.2
		c-11-32.8-5.7-68.9,14.5-96.9C96.2,159.3,128.7,142.7,163.3,142.7L163.3,142.7z M201.9,232.9L201.9,232.9c0,10.2-4,20.1-11.3,27.3
		c-7.3,7.3-17,11.3-27.3,11.3s-20.1-4-27.3-11.3c-7.3-7.3-11.3-17-11.3-27.3c0-10.2,4-20.1,11.3-27.3c7.3-7.3,17-11.3,27.3-11.3
		c10.2,0,20.1,4,27.3,11.3C197.9,212.8,201.9,222.7,201.9,232.9L201.9,232.9z M163.3,357.4c-35.7,0-69-17.7-89-47.3
		c10.1-15,23.9-27.2,40-35.5c12.2,14.3,30,22.6,48.9,22.6s36.6-8.3,48.9-22.6c16.1,8.3,29.8,20.5,40,35.5
		C232.3,339.7,199,357.4,163.3,357.4z M396.9,444.1L396.9,444.1c-12.5,0-24.5-5-33.4-13.8c-8.9-8.9-13.8-20.9-13.8-33.4
		c0-12.5,5-24.5,13.8-33.4c8.9-8.9,20.9-13.8,33.4-13.8c12.5,0,24.5,5,33.4,13.8c8.9,8.9,13.8,20.9,13.8,33.4s-5,24.5-13.9,33.4
		C421.3,439.2,409.5,444.1,396.9,444.1L396.9,444.1z"/>
</g>
</svg>
