<?xml version="1.0" encoding="utf-8"?>
<!-- Generator: Adobe Illustrator 26.5.0, SVG Export Plug-In . SVG Version: 6.00 Build 0)  -->
<svg version="1.1" id="Layer_1" xmlns="http://www.w3.org/2000/svg" xmlns:xlink="http://www.w3.org/1999/xlink" x="0px" y="0px"
	 viewBox="0 0 370.2 504" style="enable-background:new 0 0 370.2 504;" xml:space="preserve">
<g>
	<path d="M305.34,453.6H64.38c-14.8,0-27.36-12.56-27.36-27.76V78.16c0-15.2,12.08-27.76,27.36-27.76h241.44
		c14.8,0,27.36,12.56,27.36,27.76v347.68C332.7,441.04,320.62,453.6,305.34,453.6L305.34,453.6z M69.02,75.36
		c-5.12,0-9.44,4.32-9.44,9.44v334.4c0,5.12,4.32,9.44,9.44,9.44h232.24c5.12,0,9.44-4.32,9.44-9.44V84.8
		c0-5.12-4.32-9.44-9.44-9.44H69.02z"/>
	<path d="M281.98,389.12H87.74c-4.64,0-8-3.76-8-8.48v-275.6c0-4.64,3.76-8.48,8-8.48H281.9c4.64,0,8,3.76,8,8.48v275.68
		C289.98,385.28,286.14,389.12,281.98,389.12z M102.7,362.8h164.32V122.88H102.7V362.8z"/>
	<path d="M192.94,407.36c0,6.4-5.04,11.68-11.2,11.68c-6.16,0-11.2-5.2-11.2-11.68c0-6.4,5.04-11.68,11.2-11.68
		C187.9,395.68,192.94,400.88,192.94,407.36"/>
</g>
</svg>
