<?xml version="1.0" encoding="utf-8"?>
<!-- Generator: Adobe Illustrator 26.5.0, SVG Export Plug-In . SVG Version: 6.00 Build 0)  -->
<svg version="1.1" id="Layer_1" xmlns="http://www.w3.org/2000/svg" xmlns:xlink="http://www.w3.org/1999/xlink" x="0px" y="0px"
	 viewBox="0 0 500 500" style="enable-background:new 0 0 500 500;" xml:space="preserve">
<g>
	<path d="M364.3,441.7H135.2c-14.1,0-26-11.9-26-26.4V84.7c0-14.5,11.5-26.4,26-26.4h229.6c14.1,0,26,11.9,26,26.4v330.6
		C390.3,429.7,378.9,441.7,364.3,441.7L364.3,441.7z M139.6,82c-4.9,0-9,4.1-9,9v318c0,4.9,4.1,9,9,9h220.8c4.9,0,9-4.1,9-9V91
		c0-4.9-4.1-9-9-9H139.6z"/>
	<path d="M342.1,380.4H157.4c-4.4,0-7.6-3.6-7.6-8.1V110.3c0-4.4,3.6-8.1,7.6-8.1H342c4.4,0,7.6,3.6,7.6,8.1v262.1
		C349.7,376.7,346.1,380.4,342.1,380.4z M171.7,355.4h156.2V127.2H171.7V355.4z"/>
	<path d="M257.5,397.7c0,6.1-4.8,11.1-10.6,11.1s-10.6-4.9-10.6-11.1c0-6.1,4.8-11.1,10.6-11.1C252.7,386.6,257.5,391.6,257.5,397.7
		"/>
</g>
</svg>
