<?xml version="1.0" encoding="utf-8"?>
<!-- Generator: Adobe Illustrator 26.5.0, SVG Export Plug-In . SVG Version: 6.00 Build 0)  -->
<svg version="1.1" id="Layer_1" xmlns="http://www.w3.org/2000/svg" xmlns:xlink="http://www.w3.org/1999/xlink" x="0px" y="0px"
	 viewBox="0 0 500 500" style="enable-background:new 0 0 500 500;" xml:space="preserve">
<g>
	<path d="M250.8,137.4c-82.6,0-159.9,37.4-218.3,105.2c-1.6,2.1-2.6,4.7-2.6,7.3c0,2.6,1,5.3,3.2,7.3
		c58.4,67.8,135.7,105.2,217.8,105.2c80.5,0,157.3-37.4,216.7-105.8c3.7-4.2,3.2-10,0-13.7C408.1,174.8,330.7,137.4,250.8,137.4
		L250.8,137.4z M250.8,337.4c-70.3,0-136.6-31.1-187.3-87.4c50.7-56.2,117-87.4,187.3-87.4c68.3,0,133.6,31.1,185.8,87.4
		C384.4,306.2,319.1,337.4,250.8,337.4z"/>
	<path d="M249.8,172.7c-42.5,0-77.2,34.8-77.2,77.2s34.8,77.2,77.2,77.2S327,292.4,327,250S292.2,172.7,249.8,172.7z M249.8,221
		c-16,0-28.9,13.1-28.9,28.9c0,5.4-4.3,9.7-9.7,9.7c-5.4,0-9.7-4.3-9.7-9.7c0-26.6,21.7-48.3,48.3-48.3c5.4,0,9.7,4.3,9.7,9.7
		C259.4,216.7,255,221,249.8,221z"/>
</g>
</svg>
