<?xml version="1.0" encoding="utf-8"?>
<!-- Generator: Adobe Illustrator 26.5.0, SVG Export Plug-In . SVG Version: 6.00 Build 0)  -->
<svg version="1.1" id="Layer_1" xmlns="http://www.w3.org/2000/svg" xmlns:xlink="http://www.w3.org/1999/xlink" x="0px" y="0px"
	 viewBox="0 0 468.7 239.7" style="enable-background:new 0 0 468.7 239.7;" xml:space="preserve">
<g>
	<path d="M235.2,0C147.3,0,65,39.8,2.8,112c-1.7,2.2-2.8,5-2.8,7.8s1.1,5.6,3.4,7.8c62.2,72.2,144.5,112,231.8,112
		c85.7,0,167.4-39.8,230.7-112.6c3.9-4.5,3.4-10.6,0-14.6C402.6,39.8,320.3,0,235.2,0L235.2,0z M235.2,212.9
		c-74.8,0-145.4-33.1-199.4-93c54-59.8,124.6-93,199.4-93c72.7,0,142.2,33.1,197.8,93C377.4,179.7,307.9,212.9,235.2,212.9z"/>
	<path d="M234.1,37.6c-45.2,0-82.2,37-82.2,82.2s37,82.2,82.2,82.2s82.2-37,82.2-82.2S279.3,37.6,234.1,37.6z M234.1,89
		c-17,0-30.8,13.9-30.8,30.8c0,5.7-4.6,10.3-10.3,10.3s-10.3-4.6-10.3-10.3c0-28.3,23.1-51.4,51.4-51.4c5.7,0,10.3,4.6,10.3,10.3
		S239.7,89,234.1,89z"/>
</g>
</svg>
