<?xml version="1.0" encoding="utf-8"?>
<!-- Generator: Adobe Illustrator 26.5.0, SVG Export Plug-In . SVG Version: 6.00 Build 0)  -->
<svg version="1.1" id="Layer_1" xmlns="http://www.w3.org/2000/svg" xmlns:xlink="http://www.w3.org/1999/xlink" x="0px" y="0px"
	 viewBox="0 0 500 500" style="enable-background:new 0 0 500 500;" xml:space="preserve">
<path d="M317.6,235.8l-49.9-25.7L213.1,182c-2.1-1.2-4.6-1.8-7.1-1.8c-2.9,0-5.8,0.8-8.3,2.4c-4.8,3-7.7,8.2-7.7,13.7v107.7
	c0,5.6,3,10.7,7.7,13.6c2.6,1.5,5.4,2.4,8.3,2.4c2.5,0,4.9-0.6,7.2-1.8l54.6-28.1l49.9-25.7c5.3-2.8,8.7-8.3,8.7-14.2
	C326.4,244,322.9,238.4,317.6,235.8z M257.4,269.7l-44.7,23v-85.4l44.7,23l38.3,19.7L257.4,269.7z M369.5,125h-239
	c-33.7,0-61.1,27.4-61.1,61.1v127.8c0,27.4,27.4,61.1,61.1,61.1h238.9c33.8,0,61.1-27.4,61.1-61.1V186.1
	C430.6,158.7,403.2,125,369.5,125z M411.6,313.8c0,23.2-18.9,42.1-42.1,42.1h-239c-10.1,0-20.9-5.2-29.3-14.2
	c-7.9-8.4-12.8-19.2-12.8-27.9V186.1c0-23.2,18.9-42.1,42.1-42.1h239c10.1,0,20.9,5.2,29.3,14.2c7.9,8.4,12.8,19.2,12.8,27.9V313.8z
	"/>
</svg>
