<?xml version="1.0" encoding="utf-8"?>
<!-- Generator: Adobe Illustrator 26.5.0, SVG Export Plug-In . SVG Version: 6.00 Build 0)  -->
<svg version="1.1" id="Layer_1" xmlns="http://www.w3.org/2000/svg" xmlns:xlink="http://www.w3.org/1999/xlink" x="0px" y="0px"
	 viewBox="0 0 380.8 263.6" style="enable-background:new 0 0 380.8 263.6;" xml:space="preserve">
<g>
	<path d="M151.1,86.8l47.1,24.2l40.4,20.8l-40.4,20.8l-47.1,24.2V86.8 M144,58.2c-3.1,0-6.1,0.8-8.8,2.5c-5.1,3.2-8.1,8.6-8.1,14.4
		v113.5c0,5.9,3.2,11.3,8.1,14.3c2.7,1.6,5.7,2.5,8.7,2.5c2.6,0,5.2-0.6,7.6-1.9l57.6-29.6l52.6-27.1c5.6-2.9,9.2-8.7,9.2-15
		s-3.6-12.2-9.2-15l-52.6-27.1l-57.6-29.6C149.3,58.8,146.6,58.2,144,58.2L144,58.2z"/>
</g>
<g>
	<path d="M316.4,20c10.7,0,22,5.5,30.9,15c8.3,8.9,13.5,20.2,13.5,29.4v134.7c0,24.5-19.9,44.4-44.4,44.4H64.4
		c-10.7,0-22-5.5-30.9-15c-8.3-8.9-13.5-20.2-13.5-29.4V64.4C20,39.9,39.9,20,64.4,20H316.4 M316.4,0H64.4C28.9,0,0,28.9,0,64.4
		v134.7c0,28.9,28.9,64.4,64.4,64.4h251.9c35.6,0,64.4-28.9,64.4-64.4V64.4C380.8,35.6,351.9,0,316.4,0L316.4,0z"/>
</g>
</svg>
